SplineFontDB: 3.0
FontName: CourerMegaSSBlack
FullName: Courer Mega SS Black
FamilyName: Courer Mega SS Black
Weight: Black
Copyright: Copyright (c) 2013 by Richard Alexander Hall. All rights reserved.
Version: 0.001 2013
ItalicAngle: 0
UnderlinePosition: -120
UnderlineWidth: 130
Ascent: 1638
Descent: 410
sfntRevision: 0x00000042
LayerCount: 2
Layer: 0 1 "Back"  1
Layer: 1 1 "Fore"  0
XUID: [1021 724 1758327272 13099717]
FSType: 0
OS2Version: 3
OS2_WeightWidthSlopeOnly: 0
OS2_UseTypoMetrics: 1
CreationTime: 1366792131
ModificationTime: 1366789157
PfmFamily: 17
TTFWeight: 900
TTFWidth: 5
LineGap: 0
VLineGap: 0
Panose: 2 6 9 9 0 0 0 2 0 4
OS2TypoAscent: 1421
OS2TypoAOffset: 0
OS2TypoDescent: -643
OS2TypoDOffset: 0
OS2TypoLinegap: 0
OS2WinAscent: 1797
OS2WinAOffset: 0
OS2WinDescent: 839
OS2WinDOffset: 0
HheadAscent: 1421
HheadAOffset: 0
HheadDescent: -643
HheadDOffset: 0
OS2SubXSize: 1434
OS2SubYSize: 1331
OS2SubXOff: 0
OS2SubYOff: 293
OS2SupXSize: 1434
OS2SupYSize: 1331
OS2SupXOff: 0
OS2SupYOff: 928
OS2StrikeYSize: 102
OS2StrikeYPos: 512
OS2FamilyClass: 1285
OS2Vendor: 'RAH7'
OS2CodePages: 00000093.00000000
OS2UnicodeRanges: a00000af.500068fb.00000000.00000000
DEI: 91125
TtTable: prep
PUSHW_1
 0
CALL
SVTCA[y-axis]
PUSHW_3
 1
 4
 7
CALL
PUSHW_1
 0
DUP
RCVT
RDTG
ROUND[Black]
RTG
WCVTP
EndTTInstrs
TtTable: fpgm
PUSHW_1
 0
FDEF
MPPEM
PUSHW_1
 9
LT
IF
PUSHB_2
 1
 1
INSTCTRL
EIF
PUSHW_1
 511
SCANCTRL
PUSHW_1
 68
SCVTCI
PUSHW_2
 9
 3
SDS
SDB
ENDF
PUSHW_1
 1
FDEF
DUP
DUP
RCVT
ROUND[Black]
WCVTP
PUSHB_1
 1
ADD
ENDF
PUSHW_1
 2
FDEF
PUSHW_1
 1
LOOPCALL
POP
ENDF
PUSHW_1
 3
FDEF
DUP
GC[cur]
PUSHB_1
 3
CINDEX
GC[cur]
GT
IF
SWAP
EIF
DUP
ROLL
DUP
ROLL
MD[grid]
ABS
ROLL
DUP
GC[cur]
DUP
ROUND[Grey]
SUB
ABS
PUSHB_1
 4
CINDEX
GC[cur]
DUP
ROUND[Grey]
SUB
ABS
GT
IF
SWAP
NEG
ROLL
EIF
MDAP[rnd]
DUP
PUSHB_1
 0
GTEQ
IF
ROUND[Black]
DUP
PUSHB_1
 0
EQ
IF
POP
PUSHB_1
 64
EIF
ELSE
ROUND[Black]
DUP
PUSHB_1
 0
EQ
IF
POP
PUSHB_1
 64
NEG
EIF
EIF
MSIRP[no-rp0]
ENDF
PUSHW_1
 4
FDEF
DUP
GC[cur]
PUSHB_1

StartChar: exclam
Encoding: 33 33 4
Width: 1228
Flags: W
LayerCount: 2
Fore
SplineSet
812 90 m 0,0,1
 812 12.1861 812 12.1861 751.879 -40.9961 c 0,2,3
 694.076 -92 694.076 -92 614 -92 c 128,-1,4
 533.926 -92 533.926 -92 476.098 -40.9759 c 0,5,6
 416 12.1882 416 12.1882 416 92 c 0,7,8
 416 169.812 416 169.812 476.121 222.996 c 0,9,10
 533.926 274 533.926 274 614 274 c 0,11,12
 697.501 274 697.501 274 753.346 221.574 c 0,13,14
 812 167.519 812 167.519 812 90 c 0,0,1
693 338 m 2,15,-1
 536 338 l 2,16,17
 526.401 338 526.401 338 519.429 344.911 c 128,-1,18
 512.457 351.822 512.457 351.822 512.027 360.858 c 2,19,-1
 472.027 1200.86 l 2,20,21
 471.537 1211.15 471.537 1211.15 478.965 1218.58 c 128,-1,22
 486.393 1226 486.393 1226 496 1226 c 2,23,-1
 734 1226 l 2,24,25
 744.305 1226 744.305 1226 751.373 1218.23 c 128,-1,26
 758.441 1210.45 758.441 1210.45 757.971 1200.83 c 2,27,-1
 716.971 360.83 l 2,28,29
 716.503 351.245 716.503 351.245 709.262 344.623 c 128,-1,30
 702.02 338 702.02 338 693 338 c 2,15,-1
EndSplineSet
EndChar

StartChar: quotedbl
Encoding: 34 34 5
Width: 1228
Flags: W
LayerCount: 2
Fore
SplineSet
916 522 m 2,0,-1
 702 522 l 2,1,2
 692.372 522 692.372 522 685.361 528.917 c 128,-1,3
 678.35 535.835 678.35 535.835 678.016 545.138 c 2,4,-1
 655.016 1185.14 l 2,5,6
 654.646 1195.42 654.646 1195.42 662.158 1202.71 c 128,-1,7
 669.67 1210 669.67 1210 679 1210 c 2,8,-1
 941 1210 l 2,9,10
 951.29 1210 951.29 1210 958.32 1202.23 c 128,-1,11
 965.349 1194.46 965.349 1194.46 964.982 1185.06 c 2,12,-1
 939.982 545.063 l 2,13,14
 939.606 535.45 939.606 535.45 932.422 528.725 c 128,-1,15
 925.239 522 925.239 522 916 522 c 2,0,-1
527 522 m 2,16,-1
 313 522 l 2,17,18
 303.379 522 303.379 522 296.379 528.916 c 128,-1,19
 289.379 535.831 289.379 535.831 289.018 545.063 c 2,20,-1
 264.018 1185.06 l 2,21,22
 263.617 1195.35 263.617 1195.35 271.106 1202.67 c 128,-1,23
 278.596 1210 278.596 1210 288 1210 c 2,24,-1
 550 1210 l 2,25,26
 560.286 1210 560.286 1210 567.302 1202.23 c 128,-1,27
 574.319 1194.46 574.319 1194.46 573.984 1185.14 c 2,28,-1
 550.984 545.138 l 2,29,30
 550.639 535.516 550.639 535.516 543.474 528.758 c 128,-1,31
 536.31 522 536.31 522 527 522 c 2,16,-1
EndSplineSet
EndChar

StartChar: numbersign
Encoding: 35 35 6
Width: 1228
Flags: W
LayerCount: 2
Fore
SplineSet
700.433 512 m 1,0,-1
 714.476 740 l 1,1,-1
 530.567 740 l 1,2,-1
 516.524 512 l 1,3,-1
 700.433 512 l 1,0,-1
850 -174 m 2,4,-1
 689 -174 l 2,5,6
 678.683 -174 678.683 -174 671.582 -166.224 c 128,-1,7
 664.482 -158.448 664.482 -158.448 665.039 -148.639 c 2,8,-1
 688.598 266 l 1,9,-1
 502.778 266 l 1,10,-1
 480.967 -151.253 l 2,11,12
 480.467 -160.827 480.467 -160.827 473.205 -167.413 c 128,-1,13
 465.943 -174 465.943 -174 457 -174 c 2,14,-1
 296 -174 l 2,15,16
 285.693 -174 285.693 -174 278.62 -166.226 c 128,-1,17
 271.547 -158.453 271.547 -158.453 272.03 -148.801 c 2,18,-1
 292.77 266 l 1,19,-1
 128 266 l 2,20,21
 118 266 118 266 111 273 c 128,-1,22
 104 280 104 280 104 290 c 2,23,-1
 104 488 l 2,24,25
 104 498 104 498 111 505 c 128,-1,26
 118 512 118 512 128 512 c 2,27,-1
 306.433 512 l 1,28,-1
 320.476 740 l 1,29,-1
 128 740 l 2,30,31
 118 740 118 740 111 747 c 128,-1,32
 104 754 104 754 104 764 c 2,33,-1
 104 962 l 2,34,35
 104 972 104 972 111 979 c 128,-1,36
 118 986 118 986 128 986 c 2,37,-1
 333.386 986 l 1,38,-1
 357.042 1383.43 l 2,39,40
 357.611 1392.98 357.611 1392.98 364.914 1399.49 c 128,-1,41
 372.216 1406 372.216 1406 381 1406 c 2,42,-1
 542 1406 l 2,43,44
 552.321 1406 552.321 1406 559.433 1398.22 c 128,-1,45
 566.545 1390.45 566.545 1390.45 565.958 1380.57 c 2,46,-1
 542.471 986 l 1,47,-1
 726.386 986 l 1,48,-1
 750.042 1383.43 l 2,49,50
 750.611 1392.98 750.611 1392.98 757.914 1399.49 c 128,-1,51
 765.216 1406 765.216 1406 774 1406 c 2,52,-1
 935 1406 l 2,53,54
 945.318 1406 945.318 1406 952.42 1398.22 c 128,-1,55
 959.522 1390.45 959.522 1390.45 958.961 1380.63 c 2,56,-1
 936.411 986 l 1,57,-1
 1102 986 l 2,58,59
 1112 986 1112 986 1119 979 c 128,-1,60
 1126 972 1126 972 1126 962 c 2,61,-1
 1126 764 l 2,62,63
 1126 754 1126 754 1119 747 c 128,-1,64
 1112 740 1112 740 1102 740 c 2,65,-1
 923.567 740 l 1,66,-1
 909.524 512 l 1,67,-1
 1102 512 l 2,68,69
 1112 512 1112 512 1119 505 c 128,-1,70
 1126 498 1126 498 1126 488 c 2,71,-1
 1126 290 l 2,72,73
 1126 280 1126 280 1119 273 c 128,-1,74
 1112 266 1112 266 1102 266 c 2,75,-1
 897.675 266 l 1,76,-1
 873.961 -151.361 l 2,77,78
 873.418 -160.921 873.418 -160.921 866.131 -167.46 c 128,-1,79
 858.843 -174 858.843 -174 850 -174 c 2,4,-1
EndSplineSet
EndChar

StartChar: dollar
Encoding: 36 36 7
Width: 1228
Flags: W
LayerCount: 2
Fore
SplineSet
716 434.103 m 1,0,-1
 716 194.094 l 1,1,2
 717.841 194.617 717.841 194.617 719.228 195.025 c 0,3,4
 719.783 195.188 719.783 195.188 720.346 195.324 c 0,5,6
 750.702 202.683 750.702 202.683 784.398 219.532 c 0,7,8
 811.381 232.614 811.381 232.614 826.724 256.841 c 128,-1,9
 842 280.961 842 280.961 842 315 c 0,10,11
 842 338.556 842 338.556 833.439 356.456 c 0,12,13
 823.645 376.045 823.645 376.045 811.196 386.938 c 0,14,15
 810.594 387.464 810.594 387.464 810.029 388.029 c 0,16,17
 798.331 399.728 798.331 399.728 769.185 412.093 c 1,18,19
 736.997 427.293 736.997 427.293 716 434.103 c 1,0,-1
504 719.241 m 1,20,-1
 504 962.885 l 1,21,22
 461.179 949.83 461.179 949.83 436.44 928.624 c 0,23,24
 423.189 917.712 423.189 917.712 410.315 891.965 c 0,25,26
 398 868.977 398 868.977 398 838 c 0,27,28
 398 813.238 398 813.238 406.894 793.834 c 0,29,30
 416.154 772.787 416.154 772.787 426.971 761.971 c 0,31,32
 438.336 750.605 438.336 750.605 463.879 737.393 c 0,33,34
 486.874 725.896 486.874 725.896 504 719.241 c 1,20,-1
716 -1.07191 m 1,35,-1
 716 -279 l 2,36,37
 716 -289 716 -289 709 -296 c 128,-1,38
 702 -303 702 -303 692 -303 c 2,39,-1
 528 -303 l 2,40,41
 518 -303 518 -303 511 -296 c 128,-1,42
 504 -289 504 -289 504 -279 c 2,43,-1
 504 -0.428691 l 1,44,45
 450.378 9.2814 450.378 9.2814 373.64 33.1552 c 0,46,47
 373.385 33.2403 373.385 33.2403 372.763 21.9612 c 128,-1,48
 372.141 10.6821 372.141 10.6821 371.986 6.1729 c 0,49,50
 371.654 -3.45331 371.654 -3.45331 364.498 -10.2267 c 128,-1,51
 357.343 -17 357.343 -17 348 -17 c 2,52,-1
 187 -17 l 2,53,54
 176.675 -17 176.675 -17 169.55 -9.22199 c 128,-1,55
 162.425 -1.44398 162.425 -1.44398 163.047 8.49708 c 2,56,-1
 165.036 40.3259 l 1,57,58
 172.924 203.985 172.924 203.985 145.218 412.769 c 1,59,-1
 140.228 448.698 l 2,60,61
 138.731 459.478 138.731 459.478 146.148 467.739 c 128,-1,62
 153.566 476 153.566 476 164 476 c 2,63,-1
 324 476 l 2,64,65
 332.677 476 332.677 476 339.387 470.091 c 128,-1,66
 346.097 464.183 346.097 464.183 347.568 456.532 c 2,67,-1
 352.562 430.563 l 2,68,69
 359.456 395.108 359.456 395.108 365.372 370.458 c 0,70,71
 369.819 350.889 369.819 350.889 386.814 315.012 c 0,72,73
 401.176 282.697 401.176 282.697 420.656 262.783 c 0,74,75
 440.336 242.665 440.336 242.665 478.891 223.387 c 0,76,77
 490.812 217.206 490.812 217.206 504 212.314 c 1,78,-1
 504 492.645 l 1,79,80
 492.315 495.957 492.315 495.957 483.182 498.976 c 0,81,82
 458.556 505.534 458.556 505.534 417.842 520.429 c 0,83,84
 374.208 536.014 374.208 536.014 346.311 551.036 c 0,85,86
 318.596 567.025 318.596 567.025 286.363 591.98 c 0,87,88
 249.169 620.42 249.169 620.42 227.925 652.847 c 0,89,90
 207.165 684.535 207.165 684.535 193.091 727.842 c 1,91,92
 180 771.477 180 771.477 180 822 c 0,93,94
 180 970.186 180 970.186 288.446 1061.28 c 1,95,96
 373.888 1134.94 373.888 1134.94 504 1155.83 c 1,97,-1
 504 1343 l 2,98,99
 504 1353 504 1353 511 1360 c 128,-1,100
 518 1367 518 1367 528 1367 c 2,101,-1
 692 1367 l 2,102,103
 702 1367 702 1367 709 1360 c 128,-1,104
 716 1353 716 1353 716 1343 c 2,105,-1
 716 1152.33 l 1,106,107
 766.343 1140.29 766.343 1140.29 823.562 1116.01 c 0,108,109
 824.737 1115.49 824.737 1115.49 827.259 1132.52 c 0,110,111
 828.556 1141.27 828.556 1141.27 835.467 1147.14 c 128,-1,112
 842.379 1153 842.379 1153 851 1153 c 2,113,-1
 1010 1153 l 2,114,115
 1020.83 1153 1020.83 1153 1027.78 1144.55 c 128,-1,116
 1034.72 1136.09 1034.72 1136.09 1033.91 1126.89 c 2,117,-1
 1030.94 1093.24 l 1,118,119
 1028 1042.87 1028 1042.87 1028 1003 c 0,120,121
 1028 898.375 1028 898.375 1048.82 721.935 c 1,122,-1
 1052.8 691.071 l 2,123,124
 1054.12 680.884 1054.12 680.884 1047.31 672.963 c 128,-1,125
 1040.5 665.042 1040.5 665.042 1031.42 664.122 c 2,126,-1
 873.418 648.122 l 2,127,128
 863.828 647.151 863.828 647.151 856.141 653.327 c 128,-1,129
 848.454 659.503 848.454 659.503 847.211 668.828 c 2,130,-1
 843.232 698.669 l 2,131,132
 838.443 731.229 838.443 731.229 825.723 780.15 c 0,133,134
 802.941 874.026 802.941 874.026 727.397 931.204 c 0,135,136
 723.235 933.758 723.235 933.758 716 936.889 c 1,137,-1
 716 651.49 l 1,138,139
 735.16 646.303 735.16 646.303 748.739 642.04 c 0,140,141
 775.845 634.684 775.845 634.684 820.045 618.612 c 0,142,143
 868.014 601.929 868.014 601.929 895.861 585.865 c 0,144,145
 921.901 571.282 921.901 571.282 955.162 547.377 c 0,146,147
 993.736 518.722 993.736 518.722 1015.02 486.236 c 0,148,149
 1034.81 456.55 1034.81 456.55 1047.77 416.584 c 0,150,151
 1062 374.997 1062 374.997 1062 325 c 0,152,153
 1062 178.04 1062 178.04 942.363 87.7722 c 1,154,155
 848.891 18.6425 848.891 18.6425 716 -1.07191 c 1,35,-1
EndSplineSet
EndChar

StartChar: percent
Encoding: 37 37 8
Width: 1228
Flags: W
LayerCount: 2
Fore
SplineSet
1049.1 912.351 m 2,0,-1
 1115.1 756.351 l 2,1,2
 1118.97 747.213 1118.97 747.213 1114.92 737.94 c 128,-1,3
 1110.86 728.666 1110.86 728.666 1102.73 725.059 c 2,4,-1
 211.727 330.059 l 2,5,6
 202.349 325.902 202.349 325.902 192.844 330.181 c 128,-1,7
 183.339 334.46 183.339 334.46 179.875 342.699 c 2,8,-1
 113.875 499.699 l 2,9,10
 110.031 508.843 110.031 508.843 114.107 518.103 c 128,-1,11
 118.183 527.363 118.183 527.363 126.294 530.95 c 2,12,-1
 1017.29 924.95 l 2,13,14
 1026.67 929.096 1026.67 929.096 1036.16 924.804 c 128,-1,15
 1045.65 920.513 1045.65 920.513 1049.1 912.351 c 2,0,-1
292.638 894.298 m 0,16,17
 324.574 864 324.574 864 383 864 c 0,18,19
 439.425 864 439.425 864 471.592 894.516 c 0,20,21
 504 924.492 504 924.492 504 967 c 0,22,23
 504 1009.87 504 1009.87 472.137 1040.92 c 0,24,25
 441.061 1072 441.061 1072 383 1072 c 0,26,27
 324.225 1072 324.225 1072 291.958 1041.02 c 1,28,29
 260 1007.84 260 1007.84 260 967 c 128,-1,30
 260 926.12 260 926.12 292.638 894.298 c 0,16,17
728 967 m 0,31,32
 728 842.979 728 842.979 631.826 747.885 c 0,33,34
 535.784 654 535.784 654 381 654 c 0,35,36
 228.061 654 228.061 654 132.173 749.886 c 1,37,38
 34.9096 843.904 34.9096 843.904 36 967.106 c 1,39,40
 36 1086.7 36 1086.7 129.839 1183.78 c 1,41,42
 225.978 1281 225.978 1281 381 1281 c 0,43,44
 485.437 1281 485.437 1281 566.96 1233.81 c 0,45,46
 649.809 1186.47 649.809 1186.47 689.031 1114.56 c 0,47,48
 728 1044.2 728 1044.2 728 967 c 0,31,32
732.699 188.238 m 0,49,50
 764.76 157 764.76 157 821 157 c 0,51,52
 880.06 157 880.06 157 911.136 188.077 c 0,53,54
 944 220.12 944 220.12 944 262 c 0,55,56
 944 301.841 944 301.841 912.042 335.015 c 1,57,58
 879.778 366 879.778 366 821 366 c 0,59,60
 763.759 366 763.759 366 731.859 334.918 c 0,61,62
 700 303.059 700 303.059 700 262 c 0,63,64
 700 220.12 700 220.12 732.699 188.238 c 0,49,50
1168 260 m 0,65,66
 1168 182.795 1168 182.795 1128.86 112.128 c 1,67,68
 1087.56 41.4751 1087.56 41.4751 1007.09 -5.73441 c 0,69,70
 925.447 -53 925.447 -53 821 -53 c 0,71,72
 664.898 -53 664.898 -53 569.79 44.272 c 0,73,74
 476 141.298 476 141.298 476 260 c 0,75,76
 476 315.835 476 315.835 498.872 370.294 c 0,77,78
 521.456 424.064 521.456 424.064 562.211 469.111 c 0,79,80
 605.805 517.063 605.805 517.063 673.694 545.623 c 0,81,82
 741.152 574 741.152 574 821 574 c 0,83,84
 926.378 574 926.378 574 1009.07 526.746 c 1,85,86
 1090.91 478.286 1090.91 478.286 1130.11 406.426 c 0,87,88
 1168 336.055 1168 336.055 1168 260 c 0,65,66
EndSplineSet
EndChar

StartChar: ampersand
Encoding: 38 38 9
Width: 1228
Flags: W
LayerCount: 2
Fore
SplineSet
480.878 467.547 m 1,0,1
 452.186 447.968 452.186 447.968 428.589 418.819 c 0,2,3
 392 374.389 392 374.389 392 307 c 0,4,5
 392 239.887 392 239.887 429.414 189.112 c 0,6,7
 460.324 146 460.324 146 522 146 c 0,8,9
 548.844 146 548.844 146 572.928 154.602 c 0,10,11
 597.27 163.296 597.27 163.296 617.107 178.821 c 0,12,13
 640.368 197.429 640.368 197.429 652.718 208.714 c 1,14,-1
 653.785 209.952 l 1,15,-1
 480.878 467.547 l 1,0,1
1130 -56 m 2,16,-1
 847 -56 l 2,17,18
 834.325 -56 834.325 -56 827.179 -45.5319 c 2,19,-1
 772.035 35.242 l 1,20,21
 749.971 15.4853 749.971 15.4853 711.72 -11.6932 c 0,22,23
 667.221 -42.0826 667.221 -42.0826 612.474 -57.1107 c 0,24,25
 560.36 -72 560.36 -72 498 -72 c 0,26,27
 337.24 -72 337.24 -72 240.122 36.9877 c 0,28,29
 144 143.791 144 143.791 144 283 c 0,30,31
 144 406.743 144 406.743 220.498 512.988 c 0,32,33
 276.189 590.954 276.189 590.954 362.327 638.246 c 1,34,35
 310.8 717.916 310.8 717.916 294.33 752.683 c 0,36,37
 270 803.557 270 803.557 270 872 c 0,38,39
 270 997.478 270 997.478 360.796 1081.7 c 1,40,41
 449.778 1162 449.778 1162 590 1162 c 0,42,43
 684.49 1162 684.49 1162 774.29 1123.13 c 1,44,45
 833.129 1099.3 833.129 1099.3 895.279 1062.62 c 2,46,-1
 910.348 1053.58 l 2,47,48
 922 1046.59 922 1046.59 922 1033 c 2,49,-1
 922 830 l 2,50,51
 922 820 922 820 915 813 c 128,-1,52
 908 806 908 806 898 806 c 2,53,-1
 732 806 l 2,54,55
 722 806 722 806 715 813 c 128,-1,56
 708 820 708 820 708 830 c 2,57,-1
 708 921.451 l 1,58,59
 690.675 929.703 690.675 929.703 665.991 938.376 c 0,60,61
 627.847 952 627.847 952 590 952 c 0,62,63
 540.291 952 540.291 952 523.172 931.315 c 1,64,65
 502 907.79 502 907.79 502 881 c 0,66,67
 502 870.047 502 870.047 509.082 852.404 c 0,68,69
 519.385 829.102 519.385 829.102 528.572 813.362 c 0,70,71
 539.594 795.394 539.594 795.394 572.873 746.456 c 2,72,-1
 782.352 435.818 l 1,73,74
 785.276 442.829 785.276 442.829 787.605 448.634 c 0,75,76
 800.552 483.579 800.552 483.579 835.103 590.194 c 1,77,-1
 842.04 612.988 l 2,78,79
 847.217 630 847.217 630 865 630 c 2,80,-1
 1116 630 l 2,81,82
 1126 630 1126 630 1133 623 c 128,-1,83
 1140 616 1140 616 1140 606 c 2,84,-1
 1140 444 l 2,85,86
 1140 434 1140 434 1133 427 c 128,-1,87
 1126 420 1126 420 1116 420 c 2,88,-1
 1000.72 420 l 1,89,90
 965.61 326.132 965.61 326.132 919.682 231.912 c 1,91,-1
 973.74 152 l 1,92,-1
 1130 152 l 2,93,94
 1140 152 1140 152 1147 145 c 128,-1,95
 1154 138 1154 138 1154 128 c 2,96,-1
 1154 -32 l 2,97,98
 1154 -42 1154 -42 1147 -49 c 128,-1,99
 1140 -56 1140 -56 1130 -56 c 2,16,-1
EndSplineSet
EndChar

StartChar: quotesingle
Encoding: 39 39 10
Width: 1228
Flags: W
LayerCount: 2
Fore
SplineSet
720 518 m 2,0,-1
 507 518 l 2,1,2
 497.457 518 497.457 518 490.549 524.896 c 128,-1,3
 483.642 531.792 483.642 531.792 483.056 540.364 c 2,4,-1
 439.056 1184.36 l 2,5,6
 438.351 1194.67 438.351 1194.67 445.626 1202.34 c 128,-1,7
 452.901 1210 452.901 1210 463 1210 c 2,8,-1
 766 1210 l 2,9,10
 776.337 1210 776.337 1210 783.5 1202.22 c 128,-1,11
 790.664 1194.44 790.664 1194.44 789.939 1184.29 c 2,12,-1
 743.939 540.29 l 2,13,14
 743.26 530.781 743.26 530.781 735.892 524.39 c 128,-1,15
 728.525 518 728.525 518 720 518 c 2,0,-1
EndSplineSet
EndChar

StartChar: parenleft
Encoding: 40 40 11
Width: 1228
Flags: W
LayerCount: 2
Fore
SplineSet
797.02 -228.296 m 2,0,1
 678.284 -50.6972 678.284 -50.6972 605.245 166.363 c 0,2,3
 532 386.109 532 386.109 532 565 c 0,4,5
 532 741.832 532 741.832 604.201 961.497 c 0,6,7
 676.247 1179.65 676.247 1179.65 797.031 1360.31 c 2,8,-1
 807.031 1375.31 l 2,9,10
 814.156 1386 814.156 1386 827 1386 c 2,11,-1
 1002 1386 l 2,12,13
 1012 1386 1012 1386 1019 1379 c 128,-1,14
 1026 1372 1026 1372 1026 1362 c 0,15,16
 1026 1356.13 1026 1356.13 1023.29 1350.91 c 2,17,-1
 998.288 1302.92 l 2,18,19
 960.471 1230.27 960.471 1230.27 939.418 1187.17 c 1,20,21
 917.708 1145.72 917.708 1145.72 880.05 1057.52 c 0,22,23
 842.583 970.753 842.583 970.753 821.988 902.104 c 128,-1,24
 801.335 833.261 801.335 833.261 783.618 740.73 c 1,25,26
 768 648.963 768 648.963 768 565 c 128,-1,27
 768 481.049 768 481.049 783.614 390.291 c 1,28,29
 801.323 297.802 801.323 297.802 822.456 228.501 c 128,-1,30
 843.591 159.194 843.591 159.194 880.078 72.4111 c 0,31,32
 917.724 -14.7707 917.724 -14.7707 939.366 -57.0686 c 0,33,34
 961.303 -99.9427 961.303 -99.9427 998.286 -170.914 c 2,35,-1
 1023.29 -218.914 l 2,36,37
 1027.81 -227.609 1027.81 -227.609 1024.8 -237.183 c 128,-1,38
 1021.78 -246.757 1021.78 -246.757 1013.09 -251.286 c 0,39,40
 1007.88 -254 1007.88 -254 1002 -254 c 2,41,-1
 827 -254 l 2,42,43
 814.155 -254 814.155 -254 807.031 -243.313 c 2,44,-1
 797.02 -228.296 l 2,0,1
EndSplineSet
EndChar

StartChar: parenright
Encoding: 41 41 12
Width: 1228
Flags: W
LayerCount: 2
Fore
SplineSet
230.89 -169.581 m 1,0,1
 273.715 -91.8981 273.715 -91.8981 304.398 -29.5415 c 0,2,3
 334.02 32.6644 334.02 32.6644 376.753 138.004 c 0,4,5
 417.921 239.947 417.921 239.947 440.511 350.93 c 1,6,7
 464 459.565 464 459.565 464 565 c 128,-1,8
 464 670.511 464 670.511 441.487 778.189 c 0,9,10
 419.93 885.982 419.93 885.982 376.788 989.908 c 1,11,12
 333.014 1098.35 333.014 1098.35 305.318 1156.71 c 128,-1,13
 277.565 1215.19 277.565 1215.19 230.772 1302.8 c 1,14,-1
 205.714 1350.91 l 2,15,16
 201.185 1359.61 201.185 1359.61 204.202 1369.18 c 128,-1,17
 207.218 1378.76 207.218 1378.76 215.914 1383.29 c 0,18,19
 221.125 1386 221.125 1386 227 1386 c 2,20,-1
 405 1386 l 2,21,22
 418.589 1386 418.589 1386 425.58 1374.35 c 2,23,-1
 434.33 1359.76 l 1,24,25
 562.007 1164.98 562.007 1164.98 629.839 952.376 c 1,26,27
 700 737.813 700 737.813 700 565 c 0,28,29
 700 388.109 700 388.109 627.753 171.364 c 0,30,31
 555.929 -42.0941 555.929 -42.0941 434.333 -227.759 c 1,32,-1
 425.58 -242.348 l 2,33,34
 418.589 -254 418.589 -254 405 -254 c 2,35,-1
 226 -254 l 2,36,37
 216 -254 216 -254 209 -247 c 128,-1,38
 202 -240 202 -240 202 -230 c 0,39,40
 202 -224.027 202 -224.027 204.8 -218.751 c 2,41,-1
 230.89 -169.581 l 1,0,1
EndSplineSet
EndChar

StartChar: asterisk
Encoding: 42 42 13
Width: 1228
Flags: W
LayerCount: 2
Fore
SplineSet
957.382 480.786 m 2,0,-1
 790.382 355.786 l 2,1,2
 781.843 349.657 781.843 349.657 771.64 351.602 c 128,-1,3
 761.436 353.546 761.436 353.546 756.006 361.725 c 2,4,-1
 614 575.61 l 1,5,-1
 471.994 361.725 l 2,6,7
 466.286 353.127 466.286 353.127 455.751 351.485 c 128,-1,8
 445.217 349.843 445.217 349.843 437.563 355.828 c 2,9,-1
 271.563 480.828 l 2,10,11
 263.355 487.008 263.355 487.008 262.414 497.734 c 128,-1,12
 261.473 508.461 261.473 508.461 267.259 514.993 c 2,13,-1
 424.567 711.628 l 1,14,-1
 179.56 779.88 l 2,15,16
 169.637 782.645 169.637 782.645 164.927 792.025 c 128,-1,17
 160.217 801.405 160.217 801.405 163.197 810.484 c 2,18,-1
 227.197 1005.48 l 2,19,20
 230.402 1015.25 230.402 1015.25 239.964 1019.48 c 128,-1,21
 249.526 1023.7 249.526 1023.7 258.182 1020.56 c 2,22,-1
 497.525 933.767 l 1,23,-1
 487.021 1185 l 2,24,25
 486.591 1195.28 486.591 1195.28 494.061 1202.64 c 128,-1,26
 501.531 1210 501.531 1210 511 1210 c 2,27,-1
 718 1210 l 2,28,29
 728.295 1210 728.295 1210 735.335 1202.23 c 128,-1,30
 742.374 1194.46 742.374 1194.46 741.979 1185 c 2,31,-1
 731.477 933.813 l 1,32,-1
 969.792 1020.55 l 2,33,34
 979.45 1024.07 979.45 1024.07 988.687 1019.16 c 128,-1,35
 997.923 1014.26 997.923 1014.26 1000.8 1005.48 c 2,36,-1
 1064.8 810.484 l 2,37,38
 1068.02 800.699 1068.02 800.699 1062.83 791.576 c 128,-1,39
 1057.64 782.453 1057.64 782.453 1048.46 779.886 c 2,40,-1
 804.41 711.657 l 1,41,-1
 961.741 514.993 l 2,42,43
 968.066 506.377 968.066 506.377 966.423 496.351 c 128,-1,44
 964.78 486.324 964.78 486.324 957.382 480.786 c 2,0,-1
EndSplineSet
EndChar

StartChar: plus
Encoding: 43 43 14
Width: 1228
Flags: W
LayerCount: 2
Fore
SplineSet
1126 512 m 2,0,-1
 722 512 l 1,1,-1
 722 118 l 2,2,3
 722 108 722 108 715 101 c 128,-1,4
 708 94 708 94 698 94 c 2,5,-1
 530 94 l 2,6,7
 520 94 520 94 513 101 c 128,-1,8
 506 108 506 108 506 118 c 2,9,-1
 506 512 l 1,10,-1
 102 512 l 2,11,12
 92 512 92 512 85 519 c 128,-1,13
 78 526 78 526 78 536 c 2,14,-1
 78 704 l 2,15,16
 78 714 78 714 85 721 c 128,-1,17
 92 728 92 728 102 728 c 2,18,-1
 506 728 l 1,19,-1
 506 1124 l 2,20,21
 506 1134 506 1134 513 1141 c 128,-1,22
 520 1148 520 1148 530 1148 c 2,23,-1
 698 1148 l 2,24,25
 708 1148 708 1148 715 1141 c 128,-1,26
 722 1134 722 1134 722 1124 c 2,27,-1
 722 728 l 1,28,-1
 1126 728 l 2,29,30
 1136 728 1136 728 1143 721 c 128,-1,31
 1150 714 1150 714 1150 704 c 2,32,-1
 1150 536 l 2,33,34
 1150 526 1150 526 1143 519 c 128,-1,35
 1136 512 1136 512 1126 512 c 2,0,-1
EndSplineSet
EndChar

StartChar: comma
Encoding: 44 44 15
Width: 1228
Flags: W
LayerCount: 2
Fore
SplineSet
529 -280 m 2,0,-1
 318 -280 l 2,1,2
 308 -280 308 -280 301 -273 c 128,-1,3
 294 -266 294 -266 294 -256 c 0,4,5
 294 -252.317 294 -252.317 295.104 -248.804 c 2,6,-1
 471.104 311.196 l 2,7,8
 476.386 328 476.386 328 494 328 c 2,9,-1
 781 328 l 2,10,11
 791 328 791 328 798 321 c 128,-1,12
 805 314 805 314 805 304 c 0,13,14
 805 298.849 805 298.849 802.886 294.151 c 2,15,-1
 550.886 -265.849 l 2,16,17
 544.518 -280 544.518 -280 529 -280 c 2,0,-1
EndSplineSet
EndChar

StartChar: hyphen
Encoding: 45 45 16
Width: 1228
Flags: W
LayerCount: 2
Fore
SplineSet
864 480 m 2,0,-1
 364 480 l 2,1,2
 354 480 354 480 347 487 c 128,-1,3
 340 494 340 494 340 504 c 2,4,-1
 340 682 l 2,5,6
 340 692 340 692 347 699 c 128,-1,7
 354 706 354 706 364 706 c 2,8,-1
 864 706 l 2,9,10
 874 706 874 706 881 699 c 128,-1,11
 888 692 888 692 888 682 c 2,12,-1
 888 504 l 2,13,14
 888 494 888 494 881 487 c 128,-1,15
 874 480 874 480 864 480 c 2,0,-1
EndSplineSet
EndChar

StartChar: period
Encoding: 46 46 17
Width: 1228
Flags: W
LayerCount: 2
Fore
SplineSet
762.143 -35.7596 m 0,0,1
 700.279 -92 700.279 -92 614 -92 c 128,-1,2
 527.845 -92 527.845 -92 464.847 -35.7522 c 1,3,4
 402 22.5237 402 22.5237 402 105 c 128,-1,5
 402 187.605 402 187.605 465.856 245.759 c 0,6,7
 527.721 302 527.721 302 614 302 c 128,-1,8
 700.279 302 700.279 302 762.16 245.744 c 0,9,10
 826 187.603 826 187.603 826 105 c 128,-1,11
 826 22.3975 826 22.3975 762.143 -35.7596 c 0,0,1
EndSplineSet
EndChar

StartChar: slash
Encoding: 47 47 18
Width: 1228
Flags: W
LayerCount: 2
Fore
SplineSet
279.924 -336.782 m 2,0,-1
 132.924 -268.782 l 2,1,2
 123.89 -264.604 123.89 -264.604 120.543 -254.792 c 128,-1,3
 117.196 -244.98 117.196 -244.98 121.199 -236.964 c 2,4,-1
 916.199 1490.04 l 2,5,6
 920.227 1498.78 920.227 1498.78 929.528 1502.3 c 128,-1,7
 938.828 1505.81 938.828 1505.81 947.273 1502.14 c 2,8,-1
 1095.27 1440.14 l 2,9,10
 1104.76 1436.16 1104.76 1436.16 1108.32 1426.02 c 128,-1,11
 1111.87 1415.87 1111.87 1415.87 1107.81 1407.98 c 2,12,-1
 311.809 -325.017 l 2,13,14
 307.54 -334.312 307.54 -334.312 297.143 -337.484 c 128,-1,15
 286.745 -340.656 286.745 -340.656 279.924 -336.782 c 2,0,-1
EndSplineSet
EndChar

StartChar: zero
Encoding: 48 48 19
Width: 1228
Flags: W
LayerCount: 2
Fore
SplineSet
612 120 m 0,0,1
 656.482 120 656.482 120 690.33 137.974 c 1,2,3
 725.404 158.371 725.404 158.371 747.961 192.208 c 0,4,5
 774.437 232.869 774.437 232.869 792.51 281.379 c 0,6,7
 810.664 330.105 810.664 330.105 820.307 391.827 c 0,8,9
 831.146 456.853 831.146 456.853 835.048 509.542 c 1,10,11
 838 563.674 838 563.674 838 623 c 128,-1,12
 838 682.323 838 682.323 835.047 736.475 c 0,13,14
 831.539 784.73 831.539 784.73 822.3 842.127 c 1,15,-1
 539.97 136.302 l 1,16,17
 542.724 134.894 542.724 134.894 545.239 133.706 c 0,18,19
 574.366 120 574.366 120 612 120 c 0,0,1
1009.83 234.582 m 0,20,21
 990.03 173.113 990.03 173.113 955.804 115.031 c 1,22,23
 922.161 55.1074 922.161 55.1074 876.464 11.5371 c 0,24,25
 829.028 -32.6639 829.028 -32.6639 761.292 -59.3316 c 128,-1,26
 693.555 -86 693.555 -86 614 -86 c 128,-1,27
 534.413 -86 534.413 -86 467.208 -59.3317 c 0,28,29
 465.188 -58.5427 465.188 -58.5427 462.47 -57.4481 c 1,30,-1
 426.283 -147.913 l 2,31,32
 422.598 -157.127 422.598 -157.127 413.192 -160.862 c 128,-1,33
 403.785 -164.598 403.785 -164.598 395.462 -161.43 c 2,34,-1
 240.462 -102.43 l 2,35,36
 230.878 -98.7817 230.878 -98.7817 227.144 -89.0534 c 128,-1,37
 223.41 -79.3251 223.41 -79.3251 226.727 -71.0598 c 2,38,-1
 290.184 87.028 l 1,39,40
 280.573 101.843 280.573 101.843 272.072 117.25 c 0,41,42
 238.921 175.266 238.921 175.266 219.174 236.585 c 0,43,44
 199.592 296.362 199.592 296.362 188.299 368.22 c 0,45,46
 177.13 437.272 177.13 437.272 173.069 497.175 c 1,47,48
 168 556.986 168 556.986 168 621 c 128,-1,49
 168 685.016 168 685.016 173.068 744.812 c 1,50,51
 177.127 805.71 177.127 805.71 188.299 874.78 c 0,52,53
 199.592 946.638 199.592 946.638 219.155 1006.36 c 0,54,55
 238.888 1068.67 238.888 1068.67 272.073 1126.75 c 1,56,57
 305.763 1187.82 305.763 1187.82 351.536 1231.46 c 0,58,59
 399.024 1275.72 399.024 1275.72 466.861 1301.89 c 128,-1,60
 534.525 1328 534.525 1328 614 1328 c 128,-1,61
 693.472 1328 693.472 1328 761.139 1301.89 c 0,62,63
 768.276 1299.14 768.276 1299.14 775.486 1296.06 c 1,64,-1
 800.727 1358.94 l 2,65,66
 804.304 1367.85 804.304 1367.85 813.317 1371.75 c 128,-1,67
 822.329 1375.65 822.329 1375.65 830.896 1372.66 c 2,68,-1
 985.896 1318.66 l 2,69,70
 995.622 1315.28 995.622 1315.28 999.727 1305.62 c 128,-1,71
 1003.83 1295.96 1003.83 1295.96 1000.28 1287.09 c 2,72,-1
 944.635 1147.97 l 1,73,74
 951.083 1137.85 951.083 1137.85 956.849 1127.89 c 0,75,76
 990.134 1068.61 990.134 1068.61 1009.84 1006.36 c 0,77,78
 1029.41 946.64 1029.41 946.64 1040.7 874.766 c 0,79,80
 1051.87 805.708 1051.87 805.708 1055.95 744.623 c 0,81,82
 1060 684.803 1060 684.803 1060 621 c 0,83,84
 1060 556.186 1060 556.186 1055.94 496.404 c 0,85,86
 1051.87 435.29 1051.87 435.29 1040.7 366.234 c 0,87,88
 1029.41 294.36 1029.41 294.36 1009.83 234.582 c 0,20,21
409.436 384.12 m 1,89,-1
 697.567 1101.94 l 1,90,91
 694.555 1103.77 694.555 1103.77 692.208 1105.1 c 0,92,93
 658.699 1124 658.699 1124 614 1124 c 0,94,95
 575.522 1124 575.522 1124 545.368 1109.35 c 0,96,97
 513.884 1094.49 513.884 1094.49 493.211 1070.37 c 0,98,99
 470.353 1043.85 470.353 1043.85 451.849 1004.07 c 0,100,101
 432.7 960.98 432.7 960.98 421.206 917.878 c 0,102,103
 409.619 873.458 409.619 873.458 402.789 818.814 c 0,104,105
 394.925 763.771 394.925 763.771 392.967 718.714 c 0,106,107
 390 672.227 390 672.227 390 623 c 0,108,109
 390 572.774 390 572.774 392.967 526.275 c 0,110,111
 394.927 480.217 394.927 480.217 402.759 425.394 c 0,112,113
 405.742 404.508 405.742 404.508 409.436 384.12 c 1,89,-1
EndSplineSet
EndChar

StartChar: one
Encoding: 49 49 20
Width: 1228
Flags: W
LayerCount: 2
Fore
SplineSet
1090 161 m 2,0,-1
 1090 0 l 2,1,2
 1090 -10 1090 -10 1083 -17 c 128,-1,3
 1076 -24 1076 -24 1066 -24 c 2,4,-1
 192 -24 l 2,5,6
 182 -24 182 -24 175 -17 c 128,-1,7
 168 -10 168 -10 168 0 c 2,8,-1
 168 161 l 2,9,10
 168 171 168 171 175 178 c 128,-1,11
 182 185 182 185 192 185 c 2,12,-1
 526 185 l 1,13,-1
 526 1044.25 l 1,14,-1
 247.649 922.025 l 2,15,16
 238.707 918.192 238.707 918.192 229.544 921.679 c 128,-1,17
 220.381 925.166 220.381 925.166 216.326 933.693 c 2,18,-1
 148.326 1076.69 l 2,19,20
 144.057 1086.38 144.057 1086.38 147.967 1095.9 c 128,-1,21
 151.877 1105.42 151.877 1105.42 160.716 1109.13 c 2,22,-1
 601.716 1294.13 l 2,23,24
 606.17 1296 606.17 1296 611 1296 c 2,25,-1
 716 1296 l 2,26,27
 726 1296 726 1296 733 1289 c 128,-1,28
 740 1282 740 1282 740 1272 c 2,29,-1
 740 185 l 1,30,-1
 1066 185 l 2,31,32
 1076 185 1076 185 1083 178 c 128,-1,33
 1090 171 1090 171 1090 161 c 2,0,-1
EndSplineSet
EndChar

StartChar: two
Encoding: 50 50 21
Width: 1228
Flags: W
LayerCount: 2
Fore
SplineSet
1024 364 m 2,0,-1
 1024 0 l 2,1,2
 1024 -10 1024 -10 1017 -17 c 128,-1,3
 1010 -24 1010 -24 1000 -24 c 2,4,-1
 136 -24 l 2,5,6
 126 -24 126 -24 119 -17 c 128,-1,7
 112 -10 112 -10 112 0 c 2,8,-1
 112 148 l 2,9,10
 112 159.373 112 159.373 120.802 166.575 c 2,11,-1
 131.819 175.589 l 2,12,13
 239.667 263.464 239.667 263.464 415.408 414.246 c 0,14,15
 590.95 563.856 590.95 563.856 697.505 665.433 c 0,16,17
 760.057 724.198 760.057 724.198 781.086 771.287 c 0,18,19
 802 818.117 802 818.117 802 878 c 0,20,21
 802 928.688 802 928.688 779.06 969.272 c 0,22,23
 756.962 1009.05 756.962 1009.05 722.572 1033.11 c 1,24,25
 684.381 1058.1 684.381 1058.1 647.328 1068.95 c 0,26,27
 608.646 1080 608.646 1080 575 1080 c 0,28,29
 546.492 1080 546.492 1080 510.944 1072.51 c 0,30,31
 476.669 1065.3 476.669 1065.3 439.575 1043.97 c 1,32,33
 406.725 1026.68 406.725 1026.68 386.15 994.962 c 0,34,35
 368.658 967.928 368.658 967.928 370.932 927.815 c 1,36,-1
 373.912 893.05 l 2,37,38
 374.837 882.261 374.837 882.261 367.007 874.63 c 128,-1,39
 359.177 867 359.177 867 350 867 c 2,40,-1
 176 867 l 2,41,42
 166 867 166 867 159 874 c 128,-1,43
 152 881 152 881 152 891 c 2,44,-1
 152 1069 l 2,45,46
 152 1078.12 152 1078.12 158.062 1084.94 c 2,47,-1
 165.893 1093.75 l 1,48,49
 213.467 1149.6 213.467 1149.6 267.6 1190.2 c 128,-1,50
 321.757 1230.82 321.757 1230.82 370.231 1252.42 c 128,-1,51
 418.788 1274.06 418.788 1274.06 469.295 1283.54 c 1,52,53
 517.88 1293.87 517.88 1293.87 539.795 1294.97 c 0,54,55
 559.35 1296 559.35 1296 580 1296 c 0,56,57
 691.502 1296 691.502 1296 791.499 1247.58 c 0,58,59
 893.257 1197.76 893.257 1197.76 958.783 1101.59 c 0,60,61
 1026 1004.5 1026 1004.5 1026 883 c 0,62,63
 1026 813.035 1026 813.035 1006.77 756.412 c 0,64,65
 988.747 701.282 988.747 701.282 945.851 638.512 c 0,66,67
 892.25 559.136 892.25 559.136 717.112 401.212 c 0,68,69
 598.214 293.197 598.214 293.197 461.638 185 c 1,70,-1
 814 185 l 1,71,-1
 814 364 l 2,72,73
 814 374 814 374 821 381 c 128,-1,74
 828 388 828 388 838 388 c 2,75,-1
 1000 388 l 2,76,77
 1010 388 1010 388 1017 381 c 128,-1,78
 1024 374 1024 374 1024 364 c 2,0,-1
EndSplineSet
EndChar

StartChar: three
Encoding: 51 51 22
Width: 1228
Flags: W
LayerCount: 2
Fore
SplineSet
205.149 259.748 m 2,0,-1
 235.281 245.687 l 1,1,2
 419.474 157 419.474 157 551 157 c 0,3,4
 651.666 157 651.666 157 726.225 215.913 c 0,5,6
 796 269.79 796 269.79 796 366 c 0,7,8
 796 407.379 796 407.379 782.717 440.587 c 128,-1,9
 769.366 473.963 769.366 473.963 754.943 491.186 c 0,10,11
 737.829 509.936 737.829 509.936 716.874 523.906 c 0,12,13
 693.832 538.653 693.832 538.653 683.769 542.846 c 0,14,15
 674.325 546.781 674.325 546.781 671.054 547.327 c 0,16,17
 669.136 547.646 669.136 547.646 667.2 548.303 c 0,18,19
 665.2 548.626 665.2 548.626 663.31 549.265 c 0,20,21
 599.746 570.763 599.746 570.763 486.385 564.04 c 2,22,-1
 451.369 562.039 l 2,23,24
 441.068 561.45 441.068 561.45 433.534 568.809 c 128,-1,25
 426 576.167 426 576.167 426 586 c 2,26,-1
 426 742 l 2,27,28
 426 752 426 752 433 759 c 128,-1,29
 440 766 440 766 450 766 c 2,30,-1
 483 766 l 2,31,32
 599.285 766 599.285 766 649.669 796.591 c 0,33,34
 688.316 819.428 688.316 819.428 709.162 855.907 c 128,-1,35
 730 892.372 730 892.372 730 935 c 0,36,37
 730 1002.58 730 1002.58 679.84 1043.39 c 0,38,39
 626.448 1087 626.448 1087 542.677 1087 c 0,40,41
 509.127 1087.91 509.127 1087.91 478.601 1078.92 c 0,42,43
 444.374 1069.42 444.374 1069.42 412.102 1054.23 c 0,44,45
 378.486 1038.86 378.486 1038.86 346.618 1018.58 c 0,46,47
 311.496 997.51 311.496 997.51 277.7 976.636 c 2,48,-1
 250.788 959.69 l 2,49,50
 241.891 954.517 241.891 954.517 232.303 956.95 c 128,-1,51
 222.714 959.383 222.714 959.383 217.802 967.037 c 2,52,-1
 131.802 1101.04 l 2,53,54
 126.59 1109.98 126.59 1109.98 128.94 1119.51 c 128,-1,55
 131.29 1129.04 131.29 1129.04 138.687 1133.97 c 2,56,-1
 165.863 1152.09 l 1,57,58
 273.638 1221.22 273.638 1221.22 355.344 1256.97 c 0,59,60
 443.952 1296 443.952 1296 545 1296 c 0,61,62
 621.181 1296 621.181 1296 691.942 1270.65 c 0,63,64
 762.41 1246.46 762.41 1246.46 818.52 1204.11 c 0,65,66
 877.926 1158.74 877.926 1158.74 913.3 1089.06 c 1,67,68
 950 1019.99 950 1019.99 950 937 c 0,69,70
 950 781.676 950 781.676 838.595 679.781 c 1,71,72
 880.072 651.968 880.072 651.968 918.505 610.42 c 0,73,74
 960.597 566.169 960.597 566.169 986.309 501.35 c 128,-1,75
 1012 436.582 1012 436.582 1012 363 c 0,76,77
 1012 175.914 1012 175.914 875.513 59.6876 c 0,78,79
 741.76 -53 741.76 -53 545 -53 c 0,80,81
 479.406 -53 479.406 -53 412.973 -38.4679 c 0,82,83
 349.772 -25.2162 349.772 -25.2162 300.674 -6.51143 c 1,84,85
 254.831 9.81993 254.831 9.81993 150.865 51.8058 c 1,86,-1
 119.719 64.8673 l 2,87,88
 110.266 68.8314 110.266 68.8314 106.734 79.0609 c 128,-1,89
 103.203 89.2904 103.203 89.2904 107.009 96.612 c 2,90,-1
 173.009 247.612 l 2,91,92
 177.121 257.019 177.121 257.019 187.359 260.409 c 128,-1,93
 197.598 263.799 197.598 263.799 205.149 259.748 c 2,0,-1
EndSplineSet
EndChar

StartChar: four
Encoding: 52 52 23
Width: 1228
Flags: W
LayerCount: 2
Fore
SplineSet
350.972 454 m 1,0,-1
 644 454 l 1,1,-1
 644 951.902 l 1,2,-1
 350.972 454 l 1,0,-1
1040 161 m 2,3,-1
 1040 0 l 2,4,5
 1040 -10 1040 -10 1033 -17 c 128,-1,6
 1026 -24 1026 -24 1016 -24 c 2,7,-1
 392 -24 l 2,8,9
 382 -24 382 -24 375 -17 c 128,-1,10
 368 -10 368 -10 368 0 c 2,11,-1
 368 161 l 2,12,13
 368 171 368 171 375 178 c 128,-1,14
 382 185 382 185 392 185 c 2,15,-1
 644 185 l 1,16,-1
 644 242 l 1,17,-1
 120 242 l 2,18,19
 110 242 110 242 103 249 c 128,-1,20
 96 256 96 256 96 266 c 2,21,-1
 96 422 l 2,22,23
 96 428.759 96 428.759 99.5272 434.525 c 2,24,-1
 619.527 1284.52 l 2,25,26
 626.547 1296 626.547 1296 640 1296 c 2,27,-1
 832 1296 l 2,28,29
 842 1296 842 1296 849 1289 c 128,-1,30
 856 1282 856 1282 856 1272 c 2,31,-1
 856 454 l 1,32,-1
 1016 454 l 2,33,34
 1026 454 1026 454 1033 447 c 128,-1,35
 1040 440 1040 440 1040 430 c 2,36,-1
 1040 266 l 2,37,38
 1040 256 1040 256 1033 249 c 128,-1,39
 1026 242 1026 242 1016 242 c 2,40,-1
 856 242 l 1,41,-1
 856 185 l 1,42,-1
 1016 185 l 2,43,44
 1026 185 1026 185 1033 178 c 128,-1,45
 1040 171 1040 171 1040 161 c 2,3,-1
EndSplineSet
EndChar

StartChar: five
Encoding: 53 53 24
Width: 1228
Flags: W
LayerCount: 2
Fore
SplineSet
214.62 253.988 m 2,0,-1
 246.843 239.89 l 1,1,2
 413.279 163 413.279 163 563 163 c 0,3,4
 699.442 163 699.442 163 767.383 227.317 c 1,5,6
 834 292.134 834 292.134 834 397 c 0,7,8
 834 498.15 834 498.15 766.916 566.144 c 128,-1,9
 699.967 634 699.967 634 582 634 c 0,10,11
 458.987 634 458.987 634 342.475 546.856 c 1,12,-1
 325.579 533.935 l 2,13,14
 312.871 524.219 312.871 524.219 299.014 532.207 c 2,15,-1
 214.014 581.207 l 2,16,17
 202 588.133 202 588.133 202 602 c 2,18,-1
 202 1241 l 2,19,20
 202 1251 202 1251 209 1258 c 128,-1,21
 216 1265 216 1265 226 1265 c 2,22,-1
 974 1265 l 2,23,24
 984 1265 984 1265 991 1258 c 128,-1,25
 998 1251 998 1251 998 1241 c 2,26,-1
 998 1078 l 2,27,28
 998 1068 998 1068 991 1061 c 128,-1,29
 984 1054 984 1054 974 1054 c 2,30,-1
 406 1054 l 1,31,-1
 406 810.419 l 1,32,33
 506.563 842 506.563 842 598 842 c 0,34,35
 803.941 842 803.941 842 930.971 714.971 c 128,-1,36
 1058 587.941 1058 587.941 1058 402 c 0,37,38
 1058 343.987 1058 343.987 1043.32 286.326 c 1,39,40
 1029.56 227.02 1029.56 227.02 993.748 165.937 c 0,41,42
 957.766 103.501 957.766 103.501 902.705 55.852 c 0,43,44
 847.279 7.88683 847.279 7.88683 761.043 -22.6124 c 0,45,46
 676.168 -53 676.168 -53 571 -53 c 0,47,48
 464.809 -53 464.809 -53 376.792 -29.1832 c 0,49,50
 292.553 -6.85486 292.553 -6.85486 165.194 42.6737 c 1,51,-1
 135.087 54.7166 l 2,52,53
 125.852 58.4104 125.852 58.4104 122.081 67.8345 c 128,-1,54
 118.31 77.2587 118.31 77.2587 121.667 85.789 c 2,55,-1
 182.667 240.789 l 2,56,57
 186.435 250.362 186.435 250.362 196.484 254.145 c 128,-1,58
 206.533 257.928 206.533 257.928 214.62 253.988 c 2,0,-1
EndSplineSet
EndChar

StartChar: six
Encoding: 54 54 25
Width: 1228
Flags: W
LayerCount: 2
Fore
SplineSet
485.342 557.416 m 0,0,1
 456.476 540.277 456.476 540.277 427.851 507.957 c 0,2,3
 401.065 478.58 401.065 478.58 381.386 436.602 c 1,4,5
 385.542 384.269 385.542 384.269 398.744 344.663 c 0,6,7
 413.814 300.396 413.814 300.396 434.285 267.827 c 0,8,9
 453.166 238.156 453.166 238.156 477.364 218.44 c 0,10,11
 502.202 197.281 502.202 197.281 526.258 185.698 c 0,12,13
 551.745 173.864 551.745 173.864 576.118 168.448 c 0,14,15
 601.542 163 601.542 163 621 163 c 0,16,17
 661.132 163 661.132 163 695.649 177.603 c 128,-1,18
 730.149 192.199 730.149 192.199 756.891 219.832 c 0,19,20
 783.613 246.555 783.613 246.555 799.787 286.087 c 128,-1,21
 816 325.716 816 325.716 816 377 c 0,22,23
 816 422.495 816 422.495 800.132 463.301 c 0,24,25
 784.107 504.51 784.107 504.51 757.856 535.289 c 0,26,27
 732.286 564.387 732.286 564.387 697.384 582.473 c 1,28,29
 664.149 598 664.149 598 625 598 c 0,30,31
 615.26 598 615.26 598 591.528 596.126 c 1,32,33
 570.925 593.355 570.925 593.355 543.253 585.12 c 1,34,35
 515.705 575.819 515.705 575.819 485.342 557.416 c 0,0,1
1026.63 1078.04 m 2,36,-1
 991.493 1080.05 l 2,37,38
 962.749 1082.03 962.749 1082.03 936.112 1083.02 c 128,-1,39
 909.541 1084 909.541 1084 884.902 1084 c 0,40,41
 762.059 1084.97 762.059 1084.97 672.249 1060.83 c 0,42,43
 588.694 1038.3 588.694 1038.3 530.927 987.046 c 128,-1,44
 473.015 935.669 473.015 935.669 436.222 847.931 c 0,45,46
 419.661 806.219 419.661 806.219 406.686 753.77 c 1,47,48
 503.526 814 503.526 814 625 814 c 0,49,50
 716.382 814 716.382 814 793.306 777.675 c 0,51,52
 868.676 741.584 868.676 741.584 923.798 680.101 c 0,53,54
 978.747 619.867 978.747 619.867 1009.37 541.206 c 128,-1,55
 1040 462.503 1040 462.503 1040 376 c 0,56,57
 1040 291.296 1040 291.296 1008.22 213.43 c 0,58,59
 976.568 135.877 976.568 135.877 921.509 76.5856 c 0,60,61
 865.19 17.077 865.19 17.077 787.886 -17.8693 c 0,62,63
 710.175 -53 710.175 -53 621 -53 c 0,64,65
 575.338 -53 575.338 -53 523.842 -41.4395 c 0,66,67
 470.007 -29.8282 470.007 -29.8282 417.667 -1.15811 c 1,68,69
 364.611 26.6001 364.611 26.6001 317.611 70.4674 c 0,70,71
 268.901 116 268.901 116 231.052 183.287 c 0,72,73
 194.4 249.261 194.4 249.261 173.676 337.341 c 1,74,75
 152 424.045 152 424.045 152 536 c 0,76,77
 152 566.844 152 566.844 156.057 624.651 c 0,78,79
 160.172 684.327 160.172 684.327 175.511 756.928 c 0,80,81
 190.938 830.978 190.938 830.978 222.745 909.985 c 0,82,83
 255.946 991.953 255.946 991.953 310.889 1064.52 c 0,84,85
 367.461 1138.89 367.461 1138.89 457.988 1197.17 c 0,86,87
 549.89 1256.7 549.89 1256.7 665.486 1278.57 c 0,88,89
 775.734 1300.01 775.734 1300.01 896.103 1299 c 0,90,91
 943.583 1299 943.583 1299 998.441 1295.96 c 2,92,-1
 1029.55 1293.95 l 2,93,94
 1039.08 1293.34 1039.08 1293.34 1045.54 1286.01 c 128,-1,95
 1052 1278.67 1052 1278.67 1052 1270 c 2,96,-1
 1052 1102 l 2,97,98
 1052 1091.68 1052 1091.68 1044.22 1084.58 c 128,-1,99
 1036.45 1077.48 1036.45 1077.48 1026.63 1078.04 c 2,36,-1
EndSplineSet
EndChar

StartChar: seven
Encoding: 55 55 26
Width: 1228
Flags: W
LayerCount: 2
Fore
SplineSet
1052.15 1099.7 m 1,0,-1
 647.544 -8.23284 l 2,1,2
 641.786 -24 641.786 -24 625 -24 c 2,3,-1
 437 -24 l 2,4,5
 427 -24 427 -24 420 -17 c 128,-1,6
 413 -10 413 -10 413 0 c 0,7,8
 413 4.44241 413 4.44241 414.59 8.59046 c 2,9,-1
 816.097 1056 l 1,10,-1
 352 1056 l 1,11,-1
 352 891 l 2,12,13
 352 881 352 881 345 874 c 128,-1,14
 338 867 338 867 328 867 c 2,15,-1
 162 867 l 2,16,17
 152 867 152 867 145 874 c 128,-1,18
 138 881 138 881 138 891 c 2,19,-1
 138 1241 l 2,20,21
 138 1251 138 1251 145 1258 c 128,-1,22
 152 1265 152 1265 162 1265 c 2,23,-1
 1032 1265 l 2,24,25
 1042 1265 1042 1265 1049 1258 c 128,-1,26
 1056 1251 1056 1251 1056 1241 c 2,27,-1
 1056 1114 l 2,28,29
 1056 1110.1 1056 1110.1 1054.77 1106.41 c 2,30,-1
 1052.15 1099.7 l 1,0,-1
EndSplineSet
EndChar

StartChar: eight
Encoding: 56 56 27
Width: 1228
Flags: W
LayerCount: 2
Fore
SplineSet
778.402 214.24 m 0,0,1
 842 268.121 842 268.121 842 340 c 128,-1,2
 842 411.843 842 411.843 782.355 469.71 c 0,3,4
 721.372 528 721.372 528 614 528 c 0,5,6
 557.622 528 557.622 528 511.72 509.639 c 0,7,8
 466.531 492.467 466.531 492.467 441.383 466.451 c 0,9,10
 414.283 437.544 414.283 437.544 399.98 405.363 c 0,11,12
 386 373.033 386 373.033 386 340 c 0,13,14
 386 268.005 386 268.005 449.598 213.24 c 0,15,16
 515.818 157 515.818 157 614 157 c 128,-1,17
 712.074 157 712.074 157 778.402 214.24 c 0,0,1
614 736 m 0,18,19
 698.25 736 698.25 736 760.582 788.393 c 0,20,21
 820 838.199 820 838.199 820 917 c 128,-1,22
 820 995.961 820 995.961 762.643 1038.77 c 0,23,24
 698.027 1087 698.027 1087 614 1087 c 0,25,26
 557.766 1087 557.766 1087 516.251 1069.85 c 0,27,28
 476.513 1053.08 476.513 1053.08 455.287 1028.46 c 0,29,30
 431.692 1000.32 431.692 1000.32 419.166 970.796 c 0,31,32
 408 943.311 408 943.311 408 917 c 0,33,34
 408 848.162 408 848.162 465.768 792.171 c 0,35,36
 522.828 736 522.828 736 614 736 c 0,18,19
1044 921 m 0,37,38
 1044 822.311 1044 822.311 988.616 730.712 c 0,39,40
 957.494 677.717 957.494 677.717 908.339 636.495 c 1,41,42
 968.125 593.319 968.125 593.319 1005.39 532.654 c 0,43,44
 1066 435.894 1066 435.894 1066 338 c 0,45,46
 1066 270.074 1066 270.074 1037.06 202.546 c 0,47,48
 1008.38 135.62 1008.38 135.62 954.518 78.595 c 0,49,50
 898.951 18.7554 898.951 18.7554 810.005 -17.2467 c 0,51,52
 721.674 -53 721.674 -53 614 -53 c 128,-1,53
 506.326 -53 506.326 -53 418.041 -17.2652 c 0,54,55
 327.969 18.7642 327.969 18.7642 273.322 78.7675 c 0,56,57
 220.574 135.734 220.574 135.734 192.004 202.399 c 0,58,59
 162 269.907 162 269.907 162 338 c 0,60,61
 162 447.731 162 447.731 230.411 542.868 c 0,62,63
 269.268 598.617 269.268 598.617 322.656 637.177 c 1,64,65
 298.08 658.884 298.08 658.884 272.117 687.994 c 0,66,67
 234.319 730.112 234.319 730.112 209.676 791.188 c 0,68,69
 186 852.529 186 852.529 186 921 c 0,70,71
 186 1077.91 186 1077.91 312.182 1188.05 c 0,72,73
 434.961 1296 434.961 1296 614 1296 c 128,-1,74
 792.985 1296 792.985 1296 916.741 1188.12 c 0,75,76
 1044 1077.97 1044 1077.97 1044 921 c 0,37,38
EndSplineSet
EndChar

StartChar: nine
Encoding: 57 57 28
Width: 1228
Flags: W
LayerCount: 2
Fore
SplineSet
676.656 686.582 m 0,0,1
 705.524 703.723 705.524 703.723 734.148 736.042 c 0,2,3
 760.933 765.418 760.933 765.418 780.614 807.397 c 1,4,5
 776.458 859.731 776.458 859.731 763.257 899.335 c 0,6,7
 748.185 943.607 748.185 943.607 727.717 976.171 c 0,8,9
 708.838 1005.84 708.838 1005.84 684.634 1025.56 c 0,10,11
 659.796 1046.72 659.796 1046.72 635.741 1058.3 c 0,12,13
 610.258 1070.14 610.258 1070.14 585.888 1075.55 c 0,14,15
 560.451 1081 560.451 1081 541 1081 c 0,16,17
 500.867 1081 500.867 1081 466.351 1066.4 c 128,-1,18
 431.848 1051.8 431.848 1051.8 405.108 1024.17 c 0,19,20
 378.385 997.444 378.385 997.444 362.213 957.913 c 128,-1,21
 346 918.281 346 918.281 346 867 c 0,22,23
 346 821.501 346 821.501 361.868 780.699 c 0,24,25
 377.896 739.485 377.896 739.485 404.144 708.711 c 0,26,27
 429.716 679.612 429.716 679.612 464.615 661.528 c 1,28,29
 497.852 646 497.852 646 537 646 c 0,30,31
 546.74 646 546.74 646 570.472 647.874 c 1,32,33
 591.075 650.645 591.075 650.645 618.747 658.88 c 1,34,35
 646.292 668.18 646.292 668.18 676.656 686.582 c 0,0,1
135.369 165.961 m 2,36,-1
 170.511 163.953 l 2,37,38
 199.266 161.97 199.266 161.97 225.888 160.984 c 128,-1,39
 252.44 160 252.44 160 277.094 160 c 0,40,41
 399.923 159.025 399.923 159.025 489.751 183.172 c 0,42,43
 573.3 205.702 573.3 205.702 631.073 256.954 c 128,-1,44
 688.983 308.327 688.983 308.327 725.78 396.072 c 0,45,46
 742.333 437.763 742.333 437.763 755.314 490.23 c 1,47,48
 658.471 430 658.471 430 537 430 c 0,49,50
 445.618 430 445.618 430 368.692 466.326 c 0,51,52
 293.32 502.421 293.32 502.421 238.202 563.899 c 0,53,54
 183.257 624.128 183.257 624.128 152.635 702.794 c 128,-1,55
 122 781.494 122 781.494 122 868 c 0,56,57
 122 952.705 122 952.705 153.78 1030.57 c 0,58,59
 185.431 1108.12 185.431 1108.12 240.489 1167.41 c 0,60,61
 296.817 1226.93 296.817 1226.93 374.114 1261.87 c 0,62,63
 451.838 1297 451.838 1297 541 1297 c 0,64,65
 586.651 1297 586.651 1297 638.169 1285.44 c 0,66,67
 692.003 1273.83 692.003 1273.83 744.337 1245.16 c 1,68,69
 797.4 1217.39 797.4 1217.39 844.389 1173.53 c 0,70,71
 893.102 1128 893.102 1128 930.953 1060.7 c 0,72,73
 967.592 994.756 967.592 994.756 988.323 906.662 c 1,74,75
 1010 819.96 1010 819.96 1010 708 c 0,76,77
 1010 677.157 1010 677.157 1005.94 619.349 c 0,78,79
 1001.83 559.672 1001.83 559.672 986.489 487.074 c 0,80,81
 971.056 413.003 971.056 413.003 939.252 334.009 c 0,82,83
 906.053 252.046 906.053 252.046 851.118 179.492 c 0,84,85
 794.545 105.107 794.545 105.107 704.018 46.8376 c 0,86,87
 612.095 -12.7054 612.095 -12.7054 496.522 -34.5703 c 0,88,89
 386.21 -56.0194 386.21 -56.0194 265.898 -55 c 0,90,91
 218.334 -55 218.334 -55 163.562 -51.9571 c 2,92,-1
 132.455 -49.9502 l 2,93,94
 122.921 -49.3351 122.921 -49.3351 116.461 -42.0048 c 128,-1,95
 110 -34.6745 110 -34.6745 110 -26 c 2,96,-1
 110 142 l 2,97,98
 110 152.318 110 152.318 117.776 159.42 c 128,-1,99
 125.552 166.522 125.552 166.522 135.369 165.961 c 2,36,-1
EndSplineSet
EndChar

StartChar: colon
Encoding: 58 58 29
Width: 1228
Flags: W
LayerCount: 2
Fore
SplineSet
828 104 m 0,0,1
 828 14.3445 828 14.3445 757.875 -40.8346 c 0,2,3
 693.361 -92 693.361 -92 614 -92 c 0,4,5
 535.782 -92 535.782 -92 471.308 -41.9774 c 0,6,7
 400 13.2298 400 13.2298 400 104 c 0,8,9
 400 191.361 400 191.361 469.855 248.618 c 0,10,11
 533.524 300 533.524 300 614 300 c 0,12,13
 695.476 300 695.476 300 759.221 248.557 c 1,14,15
 828 191.243 828 191.243 828 104 c 0,0,1
828 659 m 0,16,17
 828 569.346 828 569.346 757.778 514.089 c 0,18,19
 693.215 464 693.215 464 614 464 c 0,20,21
 535.929 464 535.929 464 471.402 512.95 c 0,22,23
 400 568.231 400 568.231 400 659 c 0,24,25
 400 746.363 400 746.363 469.749 803.531 c 0,26,27
 533.383 856 533.383 856 614 856 c 0,28,29
 695.617 856 695.617 856 759.315 803.479 c 0,30,31
 828 746.242 828 746.242 828 659 c 0,16,17
EndSplineSet
EndChar

StartChar: semicolon
Encoding: 59 59 30
Width: 1228
Flags: W
LayerCount: 2
Fore
SplineSet
828 659 m 0,0,1
 828 569.346 828 569.346 757.778 514.089 c 0,2,3
 693.215 464 693.215 464 614 464 c 0,4,5
 535.929 464 535.929 464 471.402 512.95 c 0,6,7
 400 568.231 400 568.231 400 659 c 0,8,9
 400 746.363 400 746.363 469.749 803.531 c 0,10,11
 533.383 856 533.383 856 614 856 c 0,12,13
 695.617 856 695.617 856 759.315 803.479 c 0,14,15
 828 746.242 828 746.242 828 659 c 0,0,1
537 -278 m 2,16,-1
 327 -278 l 2,17,18
 317 -278 317 -278 310 -271 c 128,-1,19
 303 -264 303 -264 303 -254 c 0,20,21
 303 -250.298 303 -250.298 304.116 -246.767 c 2,22,-1
 481.116 313.233 l 2,23,24
 486.416 330 486.416 330 504 330 c 2,25,-1
 789 330 l 2,26,27
 799 330 799 330 806 323 c 128,-1,28
 813 316 813 316 813 306 c 0,29,30
 813 300.849 813 300.849 810.886 296.151 c 2,31,-1
 558.886 -263.849 l 2,32,33
 552.518 -278 552.518 -278 537 -278 c 2,16,-1
EndSplineSet
EndChar

StartChar: less
Encoding: 60 60 31
Width: 1228
Flags: W
LayerCount: 2
Fore
SplineSet
1082.88 117.238 m 2,0,-1
 24.88 609.238 l 2,1,2
 15.99 613.372 15.99 613.372 12.5469 622.801 c 128,-1,3
 9.10378 632.23 9.10378 632.23 13.238 641.12 c 0,4,5
 16.8847 648.962 16.8847 648.962 24.6951 652.675 c 2,6,-1
 1082.7 1155.68 l 2,7,8
 1092.6 1159.82 1092.6 1159.82 1101.92 1155.94 c 128,-1,9
 1111.24 1152.05 1111.24 1152.05 1114.93 1143.75 c 2,10,-1
 1182.93 990.747 l 2,11,12
 1186.71 981.086 1186.71 981.086 1182.94 972.053 c 128,-1,13
 1179.18 963.019 1179.18 963.019 1171.19 959.272 c 2,14,-1
 471.973 631.22 l 1,15,-1
 1171.03 309.806 l 2,16,17
 1180.07 305.648 1180.07 305.648 1183.44 295.84 c 128,-1,18
 1186.8 286.032 1186.8 286.032 1182.83 278.036 c 2,19,-1
 1114.83 129.036 l 2,20,21
 1110.58 119.723 1110.58 119.723 1100.21 116.521 c 128,-1,22
 1089.84 113.319 1089.84 113.319 1082.88 117.238 c 2,0,-1
EndSplineSet
EndChar

StartChar: equal
Encoding: 61 61 32
Width: 1228
Flags: W
LayerCount: 2
Fore
SplineSet
1130 328 m 2,0,-1
 98 328 l 2,1,2
 88 328 88 328 81 335 c 128,-1,3
 74 342 74 342 74 352 c 2,4,-1
 74 520 l 2,5,6
 74 530 74 530 81 537 c 128,-1,7
 88 544 88 544 98 544 c 2,8,-1
 1130 544 l 2,9,10
 1140 544 1140 544 1147 537 c 128,-1,11
 1154 530 1154 530 1154 520 c 2,12,-1
 1154 352 l 2,13,14
 1154 342 1154 342 1147 335 c 128,-1,15
 1140 328 1140 328 1130 328 c 2,0,-1
1130 700 m 2,16,-1
 98 700 l 2,17,18
 88 700 88 700 81 707 c 128,-1,19
 74 714 74 714 74 724 c 2,20,-1
 74 890 l 2,21,22
 74 900 74 900 81 907 c 128,-1,23
 88 914 88 914 98 914 c 2,24,-1
 1130 914 l 2,25,26
 1140 914 1140 914 1147 907 c 128,-1,27
 1154 900 1154 900 1154 890 c 2,28,-1
 1154 724 l 2,29,30
 1154 714 1154 714 1147 707 c 128,-1,31
 1140 700 1140 700 1130 700 c 2,16,-1
EndSplineSet
EndChar

StartChar: greater
Encoding: 62 62 33
Width: 1228
Flags: W
LayerCount: 2
Fore
SplineSet
1204.3 609.325 m 2,0,-1
 146.305 106.325 l 2,1,2
 136.376 102.193 136.376 102.193 127.078 106.076 c 128,-1,3
 117.779 109.959 117.779 109.959 114.092 118.199 c 2,4,-1
 46.0924 270.199 l 2,5,6
 42.2845 279.838 42.2845 279.838 46.0286 288.893 c 128,-1,7
 49.7728 297.948 49.7728 297.948 57.7823 301.716 c 2,8,-1
 757.027 630.717 l 1,9,-1
 57.9983 951.183 l 2,10,11
 48.9504 955.331 48.9504 955.331 45.5694 965.131 c 128,-1,12
 42.1884 974.93 42.1884 974.93 46.1663 982.964 c 2,13,-1
 114.166 1131.96 l 2,14,15
 118.415 1141.28 118.415 1141.28 128.789 1144.48 c 128,-1,16
 139.162 1147.68 139.162 1147.68 146.103 1143.77 c 2,17,-1
 1204.1 652.77 l 2,18,19
 1213 648.643 1213 648.643 1216.45 639.216 c 128,-1,20
 1219.9 629.79 1219.9 629.79 1215.77 620.897 c 0,21,22
 1212.12 613.043 1212.12 613.043 1204.3 609.325 c 2,0,-1
EndSplineSet
EndChar

StartChar: question
Encoding: 63 63 34
Width: 1228
Flags: W
LayerCount: 2
Fore
SplineSet
725.746 16.8413 m 0,0,1
 709.486 -16.8396 709.486 -16.8396 681.804 -41.0618 c 0,2,3
 654.616 -64.8515 654.616 -64.8515 619.664 -78.3816 c 0,4,5
 584.483 -92 584.483 -92 545 -92 c 128,-1,6
 505.517 -92 505.517 -92 470.455 -78.4275 c 0,7,8
 434.466 -64.9322 434.466 -64.9322 406.67 -40.539 c 128,-1,9
 378.684 -15.9798 378.684 -15.9798 363.308 17.7181 c 1,10,11
 346 52.9285 346 52.9285 346 92 c 0,12,13
 346 132.561 346 132.561 364.755 167.176 c 0,14,15
 381.083 199.338 381.083 199.338 408.196 223.062 c 128,-1,16
 435.481 246.937 435.481 246.937 471.455 260.428 c 0,17,18
 506.517 274 506.517 274 545 274 c 0,19,20
 585.483 274 585.483 274 620.664 260.382 c 0,21,22
 655.617 246.851 655.617 246.851 682.804 223.062 c 0,23,24
 710.754 198.605 710.754 198.605 725.825 164.986 c 0,25,26
 742 130.326 742 130.326 742 92 c 0,27,28
 742 52.8343 742 52.8343 725.746 16.8413 c 0,0,1
632 308 m 2,29,-1
 468 308 l 2,30,31
 458 308 458 308 451 315 c 128,-1,32
 444 322 444 322 444 332 c 2,33,-1
 444 589 l 2,34,35
 444 597.303 444 597.303 449.419 603.913 c 128,-1,36
 454.838 610.523 454.838 610.523 462.399 612.337 c 2,37,-1
 487.368 618.33 l 2,38,39
 520.098 626.264 520.098 626.264 553.597 634.763 c 0,40,41
 586.637 643.145 586.637 643.145 620.32 653.052 c 0,42,43
 667.137 666.428 667.137 666.428 703.933 685.296 c 0,44,45
 738.604 703.546 738.604 703.546 762.194 727.135 c 0,46,47
 784.809 748.88 784.809 748.88 796.387 776.329 c 128,-1,48
 808 803.858 808 803.858 808 842 c 0,49,50
 808 865.315 808 865.315 798.068 896.918 c 0,51,52
 789.58 924.932 789.58 924.932 766.646 950.462 c 128,-1,53
 743.681 976.025 743.681 976.025 699.623 994.907 c 0,54,55
 654.161 1014 654.161 1014 580 1014 c 0,56,57
 496.745 1014 496.745 1014 404 982.96 c 1,58,-1
 404 858 l 2,59,60
 404 848 404 848 397 841 c 128,-1,61
 390 834 390 834 380 834 c 2,62,-1
 214 834 l 2,63,64
 204 834 204 834 197 841 c 128,-1,65
 190 848 190 848 190 858 c 2,66,-1
 190 1123 l 2,67,68
 190 1139.81 190 1139.81 205.798 1145.56 c 2,69,-1
 228.047 1153.65 l 1,70,71
 290.487 1174.79 290.487 1174.79 334.723 1188.87 c 0,72,73
 379.517 1203.12 379.517 1203.12 417.69 1212.41 c 1,74,75
 456.969 1220.68 456.969 1220.68 494.679 1223.89 c 0,76,77
 532.243 1228 532.243 1228 578 1228 c 0,78,79
 680.463 1228 680.463 1228 762.444 1196.47 c 1,80,81
 845.553 1165.96 845.553 1165.96 903.984 1113.9 c 0,82,83
 963.838 1060.46 963.838 1060.46 995.931 988.247 c 128,-1,84
 1028 916.091 1028 916.091 1028 835.6 c 1,85,86
 1024.8 739.564 1024.8 739.564 988.19 671.731 c 0,87,88
 952.872 604.304 952.872 604.304 892.976 557.245 c 1,89,90
 837.364 512.124 837.364 512.124 762.795 481.667 c 1,91,92
 711.951 462.383 711.951 462.383 656 445.176 c 1,93,-1
 656 332 l 2,94,95
 656 322 656 322 649 315 c 128,-1,96
 642 308 642 308 632 308 c 2,29,-1
EndSplineSet
EndChar

StartChar: at
Encoding: 64 64 35
Width: 1228
Flags: W
LayerCount: 2
Fore
SplineSet
518 364 m 1,0,1
 542.823 364 542.823 364 572.872 399.733 c 1,2,3
 613.082 444.62 613.082 444.62 636.494 507.836 c 0,4,5
 660 571.306 660 571.306 660 623 c 0,6,7
 660 649.504 660 649.504 648.346 663.899 c 0,8,9
 648.003 664.323 648.003 664.323 647.679 664.763 c 0,10,11
 640.873 674 640.873 674 637 674 c 0,12,13
 616.411 674 616.411 674 588.509 639.721 c 0,14,15
 550.159 593.89 550.159 593.89 527.098 529.417 c 128,-1,16
 504 464.841 504 464.841 504 412 c 0,17,18
 504 389.05 504 389.05 515.131 368.378 c 0,19,20
 515.439 367.807 515.439 367.807 515.716 367.219 c 0,21,22
 516.737 365.049 516.737 365.049 518 364 c 1,0,1
1069.62 240.761 m 1,23,24
 1086.77 243.119 1086.77 243.119 1094.47 227.733 c 2,25,-1
 1150.47 115.733 l 2,26,27
 1154.54 107.269 1154.54 107.269 1151.89 98.2914 c 128,-1,28
 1149.24 89.3139 1149.24 89.3139 1141.66 84.6086 c 2,29,-1
 1112.66 66.6086 l 2,30,31
 1111.12 65.6535 1111.12 65.6535 1109.45 64.9405 c 0,32,33
 1104.48 62.8085 1104.48 62.8085 1100.02 59.8345 c 0,34,35
 1017.01 7.95727 1017.01 7.95727 858.883 -39.992 c 1,36,37
 723.466 -80 723.466 -80 590 -80 c 0,38,39
 448.907 -80 448.907 -80 336.084 -29.8564 c 1,40,41
 222.774 22.6018 222.774 22.6018 152.171 111.118 c 0,42,43
 84.5213 197.502 84.5213 197.502 49.1984 304.511 c 0,44,45
 14 412.177 14 412.177 14 532 c 0,46,47
 14 664.19 14 664.19 55.4213 779.136 c 0,48,49
 96.9685 894.432 96.9685 894.432 174.096 981.984 c 1,50,51
 253.75 1070.02 253.75 1070.02 371.617 1120.09 c 0,52,53
 489.108 1170 489.108 1170 633 1170 c 0,54,55
 795.62 1170 795.62 1170 925.744 1105.46 c 0,56,57
 1056.95 1039.33 1056.95 1039.33 1135.58 909.342 c 1,58,59
 1212 780.589 1212 780.589 1212 608 c 0,60,61
 1212 417.988 1212 417.988 1119.12 294.499 c 0,62,63
 1095.85 264.044 1095.85 264.044 1069.62 240.761 c 1,23,24
949.317 834.638 m 1,64,-1
 853.216 484.909 l 1,65,66
 834 408.05 834 408.05 834 395 c 0,67,68
 834 388.563 834 388.563 845.407 376.523 c 0,69,70
 857.303 364 857.303 364 877 364 c 0,71,72
 923.442 364 923.442 364 963.485 430.455 c 0,73,74
 1012 509.759 1012 509.759 1012 621 c 0,75,76
 1012 751.716 1012 751.716 949.317 834.638 c 1,64,-1
919.389 868 m 1,77,78
 913.606 873.489 913.606 873.489 907.495 878.681 c 0,79,80
 799.233 970 799.233 970 629 970 c 0,81,82
 543.149 970 543.149 970 474.052 945.391 c 0,83,84
 405.502 920.977 405.502 920.977 361.117 881.216 c 0,85,86
 316.129 839.977 316.129 839.977 284.956 783.301 c 0,87,88
 252.621 726.24 252.621 726.24 238.413 663.723 c 0,89,90
 224 599.348 224 599.348 224 530 c 0,91,92
 224 467.83 224 467.83 235.497 408.895 c 1,93,94
 247.961 352.956 247.961 352.956 277.203 298.244 c 0,95,96
 305.412 244.649 305.412 244.649 346.466 205.461 c 0,97,98
 386.939 167.747 386.939 167.747 450.426 143.473 c 0,99,100
 514.272 120 514.272 120 596 120 c 0,101,102
 777.707 120 777.707 120 892.537 162.459 c 0,103,104
 898.855 164.885 898.855 164.885 905.951 167.642 c 1,105,106
 884.415 165.392 884.415 165.392 862.36 166.009 c 0,107,108
 778.686 168.127 778.686 168.127 719.324 211.036 c 0,109,110
 715.127 212.932 715.127 212.932 712.029 216.029 c 128,-1,111
 709.053 219.006 709.053 219.006 701.496 225.987 c 128,-1,112
 693.939 232.968 693.939 232.968 690.484 236.605 c 1,113,114
 679.306 226.735 679.306 226.735 663.929 214.206 c 0,115,116
 629.548 187.588 629.548 187.588 590.491 174.197 c 1,117,118
 551.682 162 551.682 162 508 162 c 0,119,120
 476.739 162 476.739 162 442.614 174.513 c 0,121,122
 409.957 186.9 409.957 186.9 376.936 213.317 c 0,123,124
 340.032 243.301 340.032 243.301 317.747 299.011 c 0,125,126
 296 352.29 296 352.29 296 420 c 0,127,128
 296 522.928 296 522.928 339.923 625.413 c 0,129,130
 384.001 729.309 384.001 729.309 463.92 800.817 c 0,131,132
 548.71 878 548.71 878 649 878 c 0,133,134
 694.589 878 694.589 878 732.298 855.61 c 0,135,136
 735.974 853.404 735.974 853.404 739.989 850.833 c 1,137,138
 745.434 868 745.434 868 763 868 c 2,139,-1
 919.389 868 l 1,77,78
EndSplineSet
EndChar

StartChar: A
Encoding: 65 65 36
Width: 1228
Flags: W
LayerCount: 2
Fore
SplineSet
468.807 528 m 1,0,-1
 762.119 528 l 1,1,-1
 615.061 883.992 l 1,2,-1
 468.807 528 l 1,0,-1
1265 161 m 2,3,-1
 1265 0 l 2,4,5
 1265 -10 1265 -10 1258 -17 c 128,-1,6
 1251 -24 1251 -24 1241 -24 c 2,7,-1
 757 -24 l 2,8,9
 747 -24 747 -24 740 -17 c 128,-1,10
 733 -10 733 -10 733 0 c 2,11,-1
 733 161 l 2,12,13
 733 171 733 171 740 178 c 128,-1,14
 747 185 747 185 757 185 c 2,15,-1
 911.814 185 l 1,16,-1
 844.916 324 l 1,17,-1
 384.157 324 l 1,18,-1
 318.002 185 l 1,19,-1
 473 185 l 2,20,21
 483 185 483 185 490 178 c 128,-1,22
 497 171 497 171 497 161 c 2,23,-1
 497 0 l 2,24,25
 497 -10 497 -10 490 -17 c 128,-1,26
 483 -24 483 -24 473 -24 c 2,27,-1
 -11 -24 l 2,28,29
 -21 -24 -21 -24 -28 -17 c 128,-1,30
 -35 -10 -35 -10 -35 0 c 2,31,-1
 -35 161 l 2,32,33
 -35 171 -35 171 -28 178 c 128,-1,34
 -21 185 -21 185 -11 185 c 2,35,-1
 92.3973 185 l 1,36,-1
 440.083 968 l 1,37,-1
 199 968 l 2,38,39
 189 968 189 968 182 975 c 128,-1,40
 175 982 175 982 175 992 c 2,41,-1
 175 1153 l 2,42,43
 175 1163 175 1163 182 1170 c 128,-1,44
 189 1177 189 1177 199 1177 c 2,45,-1
 695 1177 l 2,46,47
 710.725 1177 710.725 1177 717.004 1162.58 c 2,48,-1
 1142.73 185 l 1,49,-1
 1241 185 l 2,50,51
 1251 185 1251 185 1258 178 c 128,-1,52
 1265 171 1265 171 1265 161 c 2,3,-1
EndSplineSet
EndChar

StartChar: B
Encoding: 66 66 37
Width: 1228
Flags: W
LayerCount: 2
Fore
SplineSet
422 185 m 1,0,-1
 695.476 185 l 2,1,2
 717.998 185.994 717.998 185.994 762.074 188.925 c 1,3,4
 801.818 192.761 801.818 192.761 825.083 198.261 c 0,5,6
 849.655 204.955 849.655 204.955 880.727 218.136 c 0,7,8
 904.977 228.171 904.977 228.171 917.777 240.719 c 0,9,10
 930.799 254.79 930.799 254.79 941.147 278.937 c 1,11,12
 952 301.476 952 301.476 952 332 c 0,13,14
 952 410.092 952 410.092 876.272 447.531 c 0,15,16
 784.284 494 784.284 494 621 494 c 2,17,-1
 422 494 l 1,18,-1
 422 185 l 1,0,-1
422 704 m 1,19,-1
 637 704 l 2,20,21
 705.617 704 705.617 704 757.026 716.247 c 1,22,23
 804.038 729.271 804.038 729.271 825.92 744.288 c 0,24,25
 847.297 758.959 847.297 758.959 859.835 779.019 c 0,26,27
 873.458 799.453 873.458 799.453 876.65 811.558 c 0,28,29
 880 827.072 880 827.072 880 843 c 0,30,31
 880 867.334 880 867.334 870.352 886.63 c 0,32,33
 861.326 906.324 861.326 906.324 849.164 916.966 c 0,34,35
 835.052 929.418 835.052 929.418 812.269 939.058 c 0,36,37
 786.198 951.161 786.198 951.161 766.788 955.572 c 0,38,39
 745.273 960.249 745.273 960.249 716.224 964.158 c 0,40,41
 687.965 966.98 687.965 966.98 675.992 968 c 1,42,-1
 422 968 l 1,43,-1
 422 704 l 1,19,-1
60 185 m 2,44,-1
 206 185 l 1,45,-1
 206 968 l 1,46,-1
 60 968 l 2,47,48
 50 968 50 968 43 975 c 128,-1,49
 36 982 36 982 36 992 c 2,50,-1
 36 1153 l 2,51,52
 36 1163 36 1163 43 1170 c 128,-1,53
 50 1177 50 1177 60 1177 c 2,54,-1
 651 1177 l 2,55,56
 772.195 1177 772.195 1177 849.16 1151.91 c 1,57,58
 928.06 1128.24 928.06 1128.24 983.569 1081.27 c 0,59,60
 1098 983.026 1098 983.026 1098 840 c 0,61,62
 1098 780.656 1098 780.656 1078.4 728.372 c 1,63,64
 1057.63 675.909 1057.63 675.909 1023.52 639.596 c 0,65,66
 1010.32 625.453 1010.32 625.453 997.064 613.221 c 1,67,68
 1055.08 581.608 1055.08 581.608 1095.02 535.849 c 0,69,70
 1170 451.092 1170 451.092 1170 329 c 0,71,72
 1170 235.399 1170 235.399 1122.63 155.734 c 0,73,74
 1074.95 75.5589 1074.95 75.5589 994.616 36.4753 c 0,75,76
 921.532 -0.0674491 921.532 -0.0674491 846.917 -12.6784 c 0,77,78
 776.928 -24 776.928 -24 633 -24 c 2,79,-1
 60 -24 l 2,80,81
 50 -24 50 -24 43 -17 c 128,-1,82
 36 -10 36 -10 36 0 c 2,83,-1
 36 161 l 2,84,85
 36 171 36 171 43 178 c 128,-1,86
 50 185 50 185 60 185 c 2,44,-1
EndSplineSet
EndChar

StartChar: C
Encoding: 67 67 38
Width: 1228
Flags: W
LayerCount: 2
Fore
SplineSet
1279.22 216.308 m 2,0,-1
 1255.4 194.476 l 1,1,2
 1186.99 129.134 1186.99 129.134 1112.19 79.9467 c 128,-1,3
 1037.43 30.7898 1037.43 30.7898 977.43 4.92997 c 0,4,5
 916.633 -20.8306 916.633 -20.8306 854.867 -36.2719 c 0,6,7
 794.595 -51.5952 794.595 -51.5952 755.338 -54.8892 c 1,8,9
 718.856 -59 718.856 -59 684 -59 c 0,10,11
 541.109 -59 541.109 -59 423.005 -2.82357 c 1,12,13
 303.834 49.691 303.834 49.691 227.512 141.697 c 0,14,15
 153.709 231.092 153.709 231.092 114.325 346.135 c 0,16,17
 74 460.904 74 460.904 74 589 c 0,18,19
 74 723.677 74 723.677 120.71 838.897 c 1,20,21
 166.509 955.472 166.509 955.472 248.084 1036.53 c 0,22,23
 329.097 1117.02 329.097 1117.02 440.608 1163.09 c 1,24,25
 552.508 1212 552.508 1212 680 1212 c 0,26,27
 841.022 1212 841.022 1212 951.412 1131.91 c 1,28,29
 952 1138.69 952 1138.69 952 1144 c 2,30,-1
 952 1176 l 2,31,32
 952 1186 952 1186 959 1193 c 128,-1,33
 966 1200 966 1200 976 1200 c 2,34,-1
 1117 1200 l 2,35,36
 1127.32 1200 1127.32 1200 1134.43 1192.22 c 128,-1,37
 1141.54 1184.45 1141.54 1184.45 1140.96 1174.59 c 2,38,-1
 1138.98 1140.95 l 1,39,40
 1134.1 966.56 1134.1 966.56 1159.81 759.004 c 1,41,-1
 1163.8 728.071 l 2,42,43
 1165.03 718.531 1165.03 718.531 1159.07 710.707 c 128,-1,44
 1153.11 702.882 1153.11 702.882 1144.02 701.339 c 2,45,-1
 985.018 674.339 l 2,46,47
 974.916 672.623 974.916 672.623 966.78 679.115 c 128,-1,48
 958.645 685.607 958.645 685.607 957.288 694.295 c 2,49,-1
 952.319 726.096 l 1,50,51
 932.217 841.908 932.217 841.908 893.086 900.604 c 0,52,53
 828.288 996 828.288 996 676 996 c 0,54,55
 590.058 996 590.058 996 518.68 964.539 c 0,56,57
 447.539 933.182 447.539 933.182 401.023 880.152 c 0,58,59
 352.985 825.52 352.985 825.52 325.531 750.729 c 0,60,61
 298 675.736 298 675.736 298 591 c 0,62,63
 298 533.38 298 533.38 309.558 475.589 c 0,64,65
 320.017 420.443 320.017 420.443 348.7 359.252 c 0,66,67
 376.853 300.132 376.853 300.132 418.343 255.591 c 1,68,69
 459.231 214.064 459.231 214.064 527.252 185.645 c 0,70,71
 595.814 157 595.814 157 684 157 c 0,72,73
 800.477 157 800.477 157 900.472 205.568 c 0,74,75
 1005.49 257.106 1005.49 257.106 1111.12 350.998 c 1,76,-1
 1135.2 372.062 l 2,77,78
 1142.6 378.4 1142.6 378.4 1152.36 377.822 c 128,-1,79
 1162.13 377.245 1162.13 377.245 1168.55 370.376 c 2,80,-1
 1280.55 250.376 l 2,81,82
 1287.45 241.997 1287.45 241.997 1286.54 232.09 c 128,-1,83
 1285.63 222.183 1285.63 222.183 1279.22 216.308 c 2,0,-1
EndSplineSet
EndChar

StartChar: D
Encoding: 68 68 39
Width: 1228
Flags: W
LayerCount: 2
Fore
SplineSet
390 185 m 1,0,-1
 573 185 l 2,1,2
 609.111 185 609.111 185 635.197 186.932 c 0,3,4
 660.263 188.86 660.263 188.86 705.498 195.743 c 0,5,6
 744.009 201.245 744.009 201.245 778.834 217.741 c 0,7,8
 814.44 234.174 814.44 234.174 841.66 259.578 c 0,9,10
 892.719 306.924 892.719 306.924 926.759 392.019 c 0,11,12
 962 477.738 962 477.738 962 591 c 0,13,14
 962 758.661 962 758.661 877.126 866.175 c 0,15,16
 827.702 929.323 827.702 929.323 770.728 947.128 c 0,17,18
 706.212 968 706.212 968 584 968 c 2,19,-1
 390 968 l 1,20,-1
 390 185 l 1,0,-1
38 185 m 2,21,-1
 174 185 l 1,22,-1
 174 968 l 1,23,-1
 38 968 l 2,24,25
 28 968 28 968 21 975 c 128,-1,26
 14 982 14 982 14 992 c 2,27,-1
 14 1153 l 2,28,29
 14 1163 14 1163 21 1170 c 128,-1,30
 28 1177 28 1177 38 1177 c 2,31,-1
 582 1177 l 2,32,33
 743.567 1177 743.567 1177 845.96 1145.97 c 0,34,35
 955.658 1112.95 955.658 1112.95 1044.21 1009.64 c 0,36,37
 1184 846.903 1184 846.903 1184 596 c 0,38,39
 1184 427.175 1184 427.175 1132.14 303.731 c 0,40,41
 1080.03 178.691 1080.03 178.691 996.067 104.171 c 1,42,43
 946.36 58.694 946.36 58.694 882.919 30.1456 c 0,44,45
 820.976 1.79859 820.976 1.79859 753.795 -8.69819 c 0,46,47
 691.804 -18.8608 691.804 -18.8608 655.71 -21.439 c 0,48,49
 619.857 -24 619.857 -24 573 -24 c 2,50,-1
 38 -24 l 2,51,52
 28 -24 28 -24 21 -17 c 128,-1,53
 14 -10 14 -10 14 0 c 2,54,-1
 14 161 l 2,55,56
 14 171 14 171 21 178 c 128,-1,57
 28 185 28 185 38 185 c 2,21,-1
EndSplineSet
EndChar

StartChar: E
Encoding: 69 69 40
Width: 1228
Flags: W
LayerCount: 2
Fore
SplineSet
1164 442 m 2,0,-1
 1164 0 l 2,1,2
 1164 -10 1164 -10 1157 -17 c 128,-1,3
 1150 -24 1150 -24 1140 -24 c 2,4,-1
 84 -24 l 2,5,6
 74 -24 74 -24 67 -17 c 128,-1,7
 60 -10 60 -10 60 0 c 2,8,-1
 60 161 l 2,9,10
 60 171 60 171 67 178 c 128,-1,11
 74 185 74 185 84 185 c 2,12,-1
 234 185 l 1,13,-1
 234 968 l 1,14,-1
 84 968 l 2,15,16
 74 968 74 968 67 975 c 128,-1,17
 60 982 60 982 60 992 c 2,18,-1
 60 1153 l 2,19,20
 60 1163 60 1163 67 1170 c 128,-1,21
 74 1177 74 1177 84 1177 c 2,22,-1
 1122 1177 l 2,23,24
 1131.92 1177 1131.92 1177 1138.87 1169.66 c 128,-1,25
 1145.82 1162.31 1145.82 1162.31 1145.99 1153.49 c 2,26,-1
 1154.99 711.489 l 2,27,28
 1155.2 701.231 1155.2 701.231 1147.58 694.116 c 128,-1,29
 1139.96 687 1139.96 687 1131 687 c 2,30,-1
 974 687 l 2,31,32
 964.702 687 964.702 687 957.731 693.472 c 128,-1,33
 950.759 699.945 950.759 699.945 950.067 709.211 c 2,34,-1
 930.727 968 l 1,35,-1
 450 968 l 1,36,-1
 450 714 l 1,37,-1
 668 714 l 1,38,-1
 668 840 l 2,39,40
 668 850 668 850 675 857 c 128,-1,41
 682 864 682 864 692 864 c 2,42,-1
 852 864 l 2,43,44
 862 864 862 864 869 857 c 128,-1,45
 876 850 876 850 876 840 c 2,46,-1
 876 382 l 2,47,48
 876 372 876 372 869 365 c 128,-1,49
 862 358 862 358 852 358 c 2,50,-1
 692 358 l 2,51,52
 682 358 682 358 675 365 c 128,-1,53
 668 372 668 372 668 382 c 2,54,-1
 668 504 l 1,55,-1
 450 504 l 1,56,-1
 450 185 l 1,57,-1
 949.839 185 l 1,58,-1
 959.015 442.854 l 2,59,60
 959.358 452.477 959.358 452.477 966.52 459.238 c 128,-1,61
 973.682 466 973.682 466 983 466 c 2,62,-1
 1140 466 l 2,63,64
 1150 466 1150 466 1157 459 c 128,-1,65
 1164 452 1164 452 1164 442 c 2,0,-1
EndSplineSet
EndChar

StartChar: F
Encoding: 70 70 41
Width: 1228
Flags: W
LayerCount: 2
Fore
SplineSet
738 161 m 2,0,-1
 738 0 l 2,1,2
 738 -10 738 -10 731 -17 c 128,-1,3
 724 -24 724 -24 714 -24 c 2,4,-1
 114 -24 l 2,5,6
 104 -24 104 -24 97 -17 c 128,-1,7
 90 -10 90 -10 90 0 c 2,8,-1
 90 161 l 2,9,10
 90 171 90 171 97 178 c 128,-1,11
 104 185 104 185 114 185 c 2,12,-1
 256 185 l 1,13,-1
 256 968 l 1,14,-1
 114 968 l 2,15,16
 104 968 104 968 97 975 c 128,-1,17
 90 982 90 982 90 992 c 2,18,-1
 90 1153 l 2,19,20
 90 1163 90 1163 97 1170 c 128,-1,21
 104 1177 104 1177 114 1177 c 2,22,-1
 1140 1177 l 2,23,24
 1149.65 1177 1149.65 1177 1156.7 1170.08 c 128,-1,25
 1163.75 1163.16 1163.75 1163.16 1163.99 1153.61 c 2,26,-1
 1174.99 719.608 l 2,27,28
 1175.25 709.344 1175.25 709.344 1167.67 702.172 c 128,-1,29
 1160.08 695 1160.08 695 1151 695 c 2,30,-1
 996 695 l 2,31,32
 986.754 695 986.754 695 979.834 701.458 c 128,-1,33
 972.915 707.915 972.915 707.915 972.1 716.811 c 2,34,-1
 949.097 968 l 1,35,-1
 472 968 l 1,36,-1
 472 714 l 1,37,-1
 692 714 l 1,38,-1
 692 840 l 2,39,40
 692 850 692 850 699 857 c 128,-1,41
 706 864 706 864 716 864 c 2,42,-1
 874 864 l 2,43,44
 884 864 884 864 891 857 c 128,-1,45
 898 850 898 850 898 840 c 2,46,-1
 898 382 l 2,47,48
 898 372 898 372 891 365 c 128,-1,49
 884 358 884 358 874 358 c 2,50,-1
 716 358 l 2,51,52
 706 358 706 358 699 365 c 128,-1,53
 692 372 692 372 692 382 c 2,54,-1
 692 504 l 1,55,-1
 472 504 l 1,56,-1
 472 185 l 1,57,-1
 714 185 l 2,58,59
 724 185 724 185 731 178 c 128,-1,60
 738 171 738 171 738 161 c 2,0,-1
EndSplineSet
EndChar

StartChar: G
Encoding: 71 71 42
Width: 1228
Flags: W
LayerCount: 2
Fore
SplineSet
1126.91 46.7166 m 2,0,-1
 1106.85 38.69 l 1,1,2
 858.557 -59 858.557 -59 666 -59 c 0,3,4
 535.1 -59 535.1 -59 426.706 -17.5244 c 1,5,6
 317.078 21.3035 317.078 21.3035 245.91 86.1922 c 0,7,8
 176.065 148.74 176.065 148.74 128.162 233.093 c 0,9,10
 80.4388 316.09 80.4388 316.09 60.6021 400.656 c 1,11,12
 42 484.366 42 484.366 42 571 c 0,13,14
 42 692.029 42 692.029 81.3273 805.871 c 0,15,16
 120.751 918.954 120.751 918.954 194.511 1008.3 c 0,17,18
 269.915 1099.41 269.915 1099.41 386.536 1154.6 c 1,19,20
 502.382 1212 502.382 1212 643 1212 c 0,21,22
 794.302 1212 794.302 1212 912.508 1127.82 c 1,23,24
 913.829 1138.59 913.829 1138.59 915.146 1149.65 c 2,25,-1
 918.127 1178.47 l 2,26,27
 919.075 1187.63 919.075 1187.63 926.195 1193.81 c 128,-1,28
 933.315 1200 933.315 1200 942 1200 c 2,29,-1
 1106 1200 l 2,30,31
 1116.88 1200 1116.88 1200 1124.05 1191.52 c 128,-1,32
 1131.21 1183.03 1131.21 1183.03 1129.77 1172.7 c 2,33,-1
 1124.79 1136.86 l 2,34,35
 1119.91 1097.82 1119.91 1097.82 1116.96 1048.59 c 0,36,37
 1114 998.307 1114 998.307 1114 947 c 128,-1,38
 1114 895.545 1114 895.545 1115.97 846.215 c 1,39,40
 1118.89 798.504 1118.89 798.504 1124.71 759.694 c 2,41,-1
 1129.69 728.822 l 2,42,43
 1131.27 719.023 1131.27 719.023 1125.13 710.977 c 128,-1,44
 1118.99 702.931 1118.99 702.931 1110.2 701.37 c 2,45,-1
 958.197 674.37 l 2,46,47
 948.087 672.574 948.087 672.574 939.859 679 c 128,-1,48
 931.631 685.426 931.631 685.426 930.271 694.405 c 2,49,-1
 925.275 727.374 l 2,50,51
 921.381 752.687 921.381 752.687 917.41 771.554 c 0,52,53
 914.618 788.304 914.618 788.304 904.233 820.404 c 0,54,55
 893.985 850.215 893.985 850.215 881.999 871.883 c 0,56,57
 870.185 893.24 870.185 893.24 847.899 919.24 c 0,58,59
 827.562 942.229 827.562 942.229 801.863 957.295 c 0,60,61
 775.565 972.712 775.565 972.712 733.577 984.376 c 128,-1,62
 691.729 996 691.729 996 639 996 c 0,63,64
 481.538 996 481.538 996 374.662 879.751 c 0,65,66
 266 761.645 266 761.645 266 573 c 0,67,68
 266 481.802 266 481.802 290.769 405.59 c 1,69,70
 316.198 331.184 316.198 331.184 365.224 274.617 c 0,71,72
 411.469 220.047 411.469 220.047 488.077 189.218 c 0,73,74
 565.779 157 565.779 157 668 157 c 0,75,76
 769.886 157 769.886 157 924 200.117 c 1,77,-1
 924 354 l 1,78,-1
 646 354 l 2,79,80
 636 354 636 354 629 361 c 128,-1,81
 622 368 622 368 622 378 c 2,82,-1
 622 538 l 2,83,84
 622 548 622 548 629 555 c 128,-1,85
 636 562 636 562 646 562 c 2,86,-1
 1216 562 l 2,87,88
 1226 562 1226 562 1233 555 c 128,-1,89
 1240 548 1240 548 1240 538 c 2,90,-1
 1240 378 l 2,91,92
 1240 368 1240 368 1233 361 c 128,-1,93
 1226 354 1226 354 1216 354 c 2,94,-1
 1142 354 l 1,95,-1
 1142 69 l 2,96,97
 1142 52.7512 1142 52.7512 1126.91 46.7166 c 2,0,-1
EndSplineSet
EndChar

StartChar: H
Encoding: 72 72 43
Width: 1228
Flags: W
LayerCount: 2
Fore
SplineSet
1208 161 m 2,0,-1
 1208 0 l 2,1,2
 1208 -10 1208 -10 1201 -17 c 128,-1,3
 1194 -24 1194 -24 1184 -24 c 2,4,-1
 706 -24 l 2,5,6
 696 -24 696 -24 689 -17 c 128,-1,7
 682 -10 682 -10 682 0 c 2,8,-1
 682 161 l 2,9,10
 682 171 682 171 689 178 c 128,-1,11
 696 185 696 185 706 185 c 2,12,-1
 836 185 l 1,13,-1
 836 490 l 1,14,-1
 392 490 l 1,15,-1
 392 185 l 1,16,-1
 522 185 l 2,17,18
 532 185 532 185 539 178 c 128,-1,19
 546 171 546 171 546 161 c 2,20,-1
 546 0 l 2,21,22
 546 -10 546 -10 539 -17 c 128,-1,23
 532 -24 532 -24 522 -24 c 2,24,-1
 48 -24 l 2,25,26
 38 -24 38 -24 31 -17 c 128,-1,27
 24 -10 24 -10 24 0 c 2,28,-1
 24 161 l 2,29,30
 24 171 24 171 31 178 c 128,-1,31
 38 185 38 185 48 185 c 2,32,-1
 176 185 l 1,33,-1
 176 968 l 1,34,-1
 48 968 l 2,35,36
 38 968 38 968 31 975 c 128,-1,37
 24 982 24 982 24 992 c 2,38,-1
 24 1153 l 2,39,40
 24 1163 24 1163 31 1170 c 128,-1,41
 38 1177 38 1177 48 1177 c 2,42,-1
 522 1177 l 2,43,44
 532 1177 532 1177 539 1170 c 128,-1,45
 546 1163 546 1163 546 1153 c 2,46,-1
 546 992 l 2,47,48
 546 982 546 982 539 975 c 128,-1,49
 532 968 532 968 522 968 c 2,50,-1
 392 968 l 1,51,-1
 392 700 l 1,52,-1
 836 700 l 1,53,-1
 836 968 l 1,54,-1
 706 968 l 2,55,56
 696 968 696 968 689 975 c 128,-1,57
 682 982 682 982 682 992 c 2,58,-1
 682 1153 l 2,59,60
 682 1163 682 1163 689 1170 c 128,-1,61
 696 1177 696 1177 706 1177 c 2,62,-1
 1184 1177 l 2,63,64
 1194 1177 1194 1177 1201 1170 c 128,-1,65
 1208 1163 1208 1163 1208 1153 c 2,66,-1
 1208 992 l 2,67,68
 1208 982 1208 982 1201 975 c 128,-1,69
 1194 968 1194 968 1184 968 c 2,70,-1
 1052 968 l 1,71,-1
 1052 185 l 1,72,-1
 1184 185 l 2,73,74
 1194 185 1194 185 1201 178 c 128,-1,75
 1208 171 1208 171 1208 161 c 2,0,-1
EndSplineSet
EndChar

StartChar: I
Encoding: 73 73 44
Width: 1228
Flags: W
LayerCount: 2
Fore
SplineSet
1080 161 m 2,0,-1
 1080 0 l 2,1,2
 1080 -10 1080 -10 1073 -17 c 128,-1,3
 1066 -24 1066 -24 1056 -24 c 2,4,-1
 172 -24 l 2,5,6
 162 -24 162 -24 155 -17 c 128,-1,7
 148 -10 148 -10 148 0 c 2,8,-1
 148 161 l 2,9,10
 148 171 148 171 155 178 c 128,-1,11
 162 185 162 185 172 185 c 2,12,-1
 506 185 l 1,13,-1
 506 968 l 1,14,-1
 172 968 l 2,15,16
 162 968 162 968 155 975 c 128,-1,17
 148 982 148 982 148 992 c 2,18,-1
 148 1153 l 2,19,20
 148 1163 148 1163 155 1170 c 128,-1,21
 162 1177 162 1177 172 1177 c 2,22,-1
 1056 1177 l 2,23,24
 1066 1177 1066 1177 1073 1170 c 128,-1,25
 1080 1163 1080 1163 1080 1153 c 2,26,-1
 1080 992 l 2,27,28
 1080 982 1080 982 1073 975 c 128,-1,29
 1066 968 1066 968 1056 968 c 2,30,-1
 722 968 l 1,31,-1
 722 185 l 1,32,-1
 1056 185 l 2,33,34
 1066 185 1066 185 1073 178 c 128,-1,35
 1080 171 1080 171 1080 161 c 2,0,-1
EndSplineSet
EndChar

StartChar: J
Encoding: 74 74 45
Width: 1228
Flags: W
LayerCount: 2
Fore
SplineSet
982 968 m 1,0,-1
 982 423 l 2,1,2
 982 318.269 982 318.269 970.726 240.378 c 1,3,4
 956.832 153.796 956.832 153.796 912.445 89.9249 c 1,5,6
 856.415 15.5801 856.415 15.5801 764.187 -21.1759 c 1,7,8
 676.473 -59 676.473 -59 590 -59 c 0,9,10
 508.143 -59 508.143 -59 418.177 -37.2837 c 1,11,12
 331.632 -14.884 331.632 -14.884 281.045 4.73134 c 1,13,14
 232.646 24.8978 232.646 24.8978 155.486 60.9547 c 1,15,-1
 98.153 83.6901 l 2,16,17
 83.6456 89.4431 83.6456 89.4431 83.0193 105.037 c 2,18,-1
 63.0193 603.037 l 2,19,20
 62.6063 613.321 62.6063 613.321 70.0882 620.66 c 128,-1,21
 77.5701 628 77.5701 628 87 628 c 2,22,-1
 252 628 l 2,23,24
 261.621 628 261.621 628 268.621 621.084 c 128,-1,25
 275.621 614.169 275.621 614.169 275.982 604.938 c 2,26,-1
 284.977 375.053 l 2,27,28
 288.774 297.237 288.774 297.237 302.264 263.962 c 0,29,30
 313.251 236.495 313.251 236.495 355.414 211.541 c 0,31,32
 443.895 156.948 443.895 156.948 568.091 156 c 0,33,34
 682.416 156 682.416 156 733.236 219.963 c 0,35,36
 745.986 235.901 745.986 235.901 758.741 286.92 c 0,37,38
 765.046 311.237 765.046 311.237 766 377.175 c 2,39,-1
 766 968 l 1,40,-1
 388 968 l 2,41,42
 378 968 378 968 371 975 c 128,-1,43
 364 982 364 982 364 992 c 2,44,-1
 364 1153 l 2,45,46
 364 1163 364 1163 371 1170 c 128,-1,47
 378 1177 378 1177 388 1177 c 2,48,-1
 1218 1177 l 2,49,50
 1228 1177 1228 1177 1235 1170 c 128,-1,51
 1242 1163 1242 1163 1242 1153 c 2,52,-1
 1242 992 l 2,53,54
 1242 982 1242 982 1235 975 c 128,-1,55
 1228 968 1228 968 1218 968 c 2,56,-1
 982 968 l 1,0,-1
EndSplineSet
EndChar

StartChar: K
Encoding: 75 75 46
Width: 1228
Flags: W
LayerCount: 2
Fore
SplineSet
1260 161 m 2,0,-1
 1260 0 l 2,1,2
 1260 -10 1260 -10 1253 -17 c 128,-1,3
 1246 -24 1246 -24 1236 -24 c 2,4,-1
 919 -24 l 2,5,6
 902.461 -24 902.461 -24 896.572 -8.54389 c 2,7,-1
 888.508 12.6257 l 1,8,9
 853.194 109.741 853.194 109.741 760.13 280.142 c 1,10,11
 699.396 382.825 699.396 382.825 643.503 442.573 c 0,12,13
 602.813 485.754 602.813 485.754 548.538 518.286 c 1,14,-1
 454 428.68 l 1,15,-1
 454 185 l 1,16,-1
 604 185 l 2,17,18
 614 185 614 185 621 178 c 128,-1,19
 628 171 628 171 628 161 c 2,20,-1
 628 0 l 2,21,22
 628 -10 628 -10 621 -17 c 128,-1,23
 614 -24 614 -24 604 -24 c 2,24,-1
 90 -24 l 2,25,26
 80 -24 80 -24 73 -17 c 128,-1,27
 66 -10 66 -10 66 0 c 2,28,-1
 66 161 l 2,29,30
 66 171 66 171 73 178 c 128,-1,31
 80 185 80 185 90 185 c 2,32,-1
 238 185 l 1,33,-1
 238 968 l 1,34,-1
 90 968 l 2,35,36
 80 968 80 968 73 975 c 128,-1,37
 66 982 66 982 66 992 c 2,38,-1
 66 1153 l 2,39,40
 66 1163 66 1163 73 1170 c 128,-1,41
 80 1177 80 1177 90 1177 c 2,42,-1
 604 1177 l 2,43,44
 614 1177 614 1177 621 1170 c 128,-1,45
 628 1163 628 1163 628 1153 c 2,46,-1
 628 992 l 2,47,48
 628 982 628 982 621 975 c 128,-1,49
 614 968 614 968 604 968 c 2,50,-1
 454 968 l 1,51,-1
 454 655.927 l 1,52,-1
 774.014 968 l 1,53,-1
 712 968 l 2,54,55
 702 968 702 968 695 975 c 128,-1,56
 688 982 688 982 688 992 c 2,57,-1
 688 1153 l 2,58,59
 688 1163 688 1163 695 1170 c 128,-1,60
 702 1177 702 1177 712 1177 c 2,61,-1
 1178 1177 l 2,62,63
 1188 1177 1188 1177 1195 1170 c 128,-1,64
 1202 1163 1202 1163 1202 1153 c 2,65,-1
 1202 992 l 2,66,67
 1202 982 1202 982 1195 975 c 128,-1,68
 1188 968 1188 968 1178 968 c 2,69,-1
 1075.22 968 l 1,70,-1
 702.556 632.236 l 1,71,72
 716.296 623.64 716.296 623.64 729.035 614.468 c 0,73,74
 773.602 582.339 773.602 582.339 829.971 525.971 c 0,75,76
 887.826 468.116 887.826 468.116 949.255 371.874 c 0,77,78
 1000.62 291.024 1000.62 291.024 1052.08 185 c 1,79,-1
 1236 185 l 2,80,81
 1246 185 1246 185 1253 178 c 128,-1,82
 1260 171 1260 171 1260 161 c 2,0,-1
EndSplineSet
EndChar

StartChar: L
Encoding: 76 76 47
Width: 1228
Flags: W
LayerCount: 2
Fore
SplineSet
1190.98 573.916 m 2,0,-1
 1164.98 -1.08411 l 2,1,2
 1164.54 -10.6796 1164.54 -10.6796 1157.32 -17.3398 c 128,-1,3
 1150.1 -24 1150.1 -24 1141 -24 c 2,4,-1
 88 -24 l 2,5,6
 78 -24 78 -24 71 -17 c 128,-1,7
 64 -10 64 -10 64 0 c 2,8,-1
 64 161 l 2,9,10
 64 171 64 171 71 178 c 128,-1,11
 78 185 78 185 88 185 c 2,12,-1
 270 185 l 1,13,-1
 270 968 l 1,14,-1
 88 968 l 2,15,16
 78 968 78 968 71 975 c 128,-1,17
 64 982 64 982 64 992 c 2,18,-1
 64 1153 l 2,19,20
 64 1163 64 1163 71 1170 c 128,-1,21
 78 1177 78 1177 88 1177 c 2,22,-1
 712 1177 l 2,23,24
 722 1177 722 1177 729 1170 c 128,-1,25
 736 1163 736 1163 736 1153 c 2,26,-1
 736 992 l 2,27,28
 736 982 736 982 729 975 c 128,-1,29
 722 968 722 968 712 968 c 2,30,-1
 484 968 l 1,31,-1
 484 185 l 1,32,-1
 955.568 185 l 1,33,-1
 982.055 576.62 l 2,34,35
 982.699 586.142 982.699 586.142 990.046 592.571 c 128,-1,36
 997.393 599 997.393 599 1006 599 c 2,37,-1
 1167 599 l 2,38,39
 1177.3 599 1177.3 599 1184.35 591.228 c 128,-1,40
 1191.41 583.456 1191.41 583.456 1190.98 573.916 c 2,0,-1
EndSplineSet
EndChar

StartChar: M
Encoding: 77 77 48
Width: 1228
Flags: W
LayerCount: 2
Fore
SplineSet
1285 161 m 2,0,-1
 1285 0 l 2,1,2
 1285 -10 1285 -10 1278 -17 c 128,-1,3
 1271 -24 1271 -24 1261 -24 c 2,4,-1
 761 -24 l 2,5,6
 751 -24 751 -24 744 -17 c 128,-1,7
 737 -10 737 -10 737 0 c 2,8,-1
 737 161 l 2,9,10
 737 171 737 171 744 178 c 128,-1,11
 751 185 751 185 761 185 c 2,12,-1
 954.23 185 l 1,13,-1
 931.824 894.525 l 1,14,-1
 702.455 286.529 l 2,15,16
 696.597 271 696.597 271 680 271 c 2,17,-1
 529 271 l 2,18,19
 511.959 271 511.959 271 506.341 287.089 c 2,20,-1
 298.89 881.23 l 1,21,-1
 276.774 185 l 1,22,-1
 469 185 l 2,23,24
 479 185 479 185 486 178 c 128,-1,25
 493 171 493 171 493 161 c 2,26,-1
 493 0 l 2,27,28
 493 -10 493 -10 486 -17 c 128,-1,29
 479 -24 479 -24 469 -24 c 2,30,-1
 -29 -24 l 2,31,32
 -39 -24 -39 -24 -46 -17 c 128,-1,33
 -53 -10 -53 -10 -53 0 c 2,34,-1
 -53 161 l 2,35,36
 -53 171 -53 171 -46 178 c 128,-1,37
 -39 185 -39 185 -29 185 c 2,38,-1
 73.9064 185 l 1,39,-1
 104.058 968 l 1,40,-1
 -15 968 l 2,41,42
 -25 968 -25 968 -32 975 c 128,-1,43
 -39 982 -39 982 -39 992 c 2,44,-1
 -39 1153 l 2,45,46
 -39 1163 -39 1163 -32 1170 c 128,-1,47
 -25 1177 -25 1177 -15 1177 c 2,48,-1
 382 1177 l 2,49,50
 399.226 1177 399.226 1177 404.738 1160.68 c 2,51,-1
 612.898 544.345 l 1,52,-1
 838.459 1161.24 l 2,53,54
 844.221 1177 844.221 1177 861 1177 c 2,55,-1
 1245 1177 l 2,56,57
 1255 1177 1255 1177 1262 1170 c 128,-1,58
 1269 1163 1269 1163 1269 1153 c 2,59,-1
 1269 992 l 2,60,61
 1269 982 1269 982 1262 975 c 128,-1,62
 1255 968 1255 968 1245 968 c 2,63,-1
 1126.94 968 l 1,64,-1
 1157.09 185 l 1,65,-1
 1261 185 l 2,66,67
 1271 185 1271 185 1278 178 c 128,-1,68
 1285 171 1285 171 1285 161 c 2,0,-1
EndSplineSet
EndChar

StartChar: N
Encoding: 78 78 49
Width: 1228
Flags: W
LayerCount: 2
Fore
SplineSet
1134 968 m 1,0,-1
 1134 -27 l 2,1,2
 1134 -37 1134 -37 1127 -44 c 128,-1,3
 1120 -51 1120 -51 1110 -51 c 2,4,-1
 875 -51 l 2,5,6
 860.243 -51 860.243 -51 853.583 -37.8309 c 2,7,-1
 368 922.361 l 1,8,-1
 368 185 l 1,9,-1
 576 185 l 2,10,11
 586 185 586 185 593 178 c 128,-1,12
 600 171 600 171 600 161 c 2,13,-1
 600 0 l 2,14,15
 600 -10 600 -10 593 -17 c 128,-1,16
 586 -24 586 -24 576 -24 c 2,17,-1
 24 -24 l 2,18,19
 14 -24 14 -24 7 -17 c 128,-1,20
 -0 -10 -0 -10 0 0 c 2,21,-1
 0 161 l 2,22,23
 0 171 0 171 7 178 c 128,-1,24
 14 185 14 185 24 185 c 2,25,-1
 160 185 l 1,26,-1
 160 968 l 1,27,-1
 24 968 l 2,28,29
 14 968 14 968 7 975 c 128,-1,30
 -0 982 -0 982 0 992 c 2,31,-1
 0 1153 l 2,32,33
 0 1163 0 1163 7 1170 c 128,-1,34
 14 1177 14 1177 24 1177 c 2,35,-1
 428 1177 l 2,36,37
 442.782 1177 442.782 1177 449.433 1163.8 c 2,38,-1
 926 217.969 l 1,39,-1
 926 968 l 1,40,-1
 722 968 l 2,41,42
 712 968 712 968 705 975 c 128,-1,43
 698 982 698 982 698 992 c 2,44,-1
 698 1153 l 2,45,46
 698 1163 698 1163 705 1170 c 128,-1,47
 712 1177 712 1177 722 1177 c 2,48,-1
 1242 1177 l 2,49,50
 1252 1177 1252 1177 1259 1170 c 128,-1,51
 1266 1163 1266 1163 1266 1153 c 2,52,-1
 1266 992 l 2,53,54
 1266 982 1266 982 1259 975 c 128,-1,55
 1252 968 1252 968 1242 968 c 2,56,-1
 1134 968 l 1,0,-1
EndSplineSet
EndChar

StartChar: O
Encoding: 79 79 50
Width: 1228
Flags: W
LayerCount: 2
Fore
SplineSet
614 157 m 128,-1,1
 682.449 157 682.449 157 739.275 179.358 c 0,2,3
 796.886 201.659 796.886 201.659 837.52 240.448 c 0,4,5
 880.955 281.049 880.955 281.049 911.651 334.888 c 0,6,7
 942.516 389.022 942.516 389.022 957.736 449.899 c 0,8,9
 974 513.037 974 513.037 974 578 c 0,10,11
 974 689.743 974 689.743 930.132 785.11 c 1,12,13
 888.709 878.314 888.709 878.314 805.082 938.447 c 0,14,15
 723.389 996 723.389 996 614 996 c 0,16,17
 525.935 996 525.935 996 457.076 959.708 c 0,18,19
 388.146 924.313 388.146 924.313 346.563 866.098 c 0,20,21
 302.769 804.213 302.769 804.213 279.397 729.808 c 128,-1,22
 256 655.323 256 655.323 256 578 c 0,23,24
 256 514.777 256 514.777 270.326 453.649 c 0,25,26
 285.522 392.862 285.522 392.862 315.894 337.811 c 1,27,28
 346.95 284.17 346.95 284.17 388.776 242.165 c 1,29,30
 429.672 203.38 429.672 203.38 487.413 180.283 c 0,31,0
 545.622 157 545.622 157 614 157 c 128,-1,1
1157.61 335.952 m 0,32,33
 1117.14 221.799 1117.14 221.799 1043.34 135.514 c 1,34,35
 970.02 47.5291 970.02 47.5291 858.285 -4.68497 c 1,36,37
 745.477 -59 745.477 -59 614 -59 c 0,38,39
 439.877 -59 439.877 -59 304.958 28.8529 c 0,40,41
 170.32 115.479 170.32 115.479 100.378 260.584 c 0,42,43
 32 402.521 32 402.521 32 575 c 128,-1,44
 32 747.44 32 747.44 100.351 890.36 c 0,45,46
 170.262 1036.44 170.262 1036.44 304.904 1124.11 c 0,47,48
 439.882 1212 439.882 1212 614 1212 c 0,49,50
 719.824 1212 719.824 1212 814.151 1176.58 c 1,51,52
 908.604 1143.84 908.604 1143.84 978.687 1083.16 c 0,53,54
 1047.4 1023.82 1047.4 1023.82 1097.33 944.256 c 128,-1,55
 1147.21 864.761 1147.21 864.761 1173.18 770.237 c 0,56,57
 1198 676.109 1198 676.109 1198 576 c 0,58,59
 1198 448.827 1198 448.827 1157.61 335.952 c 0,32,33
EndSplineSet
EndChar

StartChar: P
Encoding: 80 80 51
Width: 1228
Flags: W
LayerCount: 2
Fore
SplineSet
470 606 m 1,0,-1
 651 606 l 2,1,2
 682.961 606 682.961 606 740.085 610.924 c 0,3,4
 791.36 614.721 791.36 614.721 819.656 623.849 c 0,5,6
 843.998 631.674 843.998 631.674 862.964 645.468 c 0,7,8
 886.69 662.415 886.69 662.415 906.96 698.548 c 0,9,10
 926 734.031 926 734.031 926 783 c 0,11,12
 926 839.061 926 839.061 899.433 878.099 c 1,13,14
 869.641 918.414 869.641 918.414 834.164 936.585 c 0,15,16
 801.415 952.96 801.415 952.96 759.012 960.333 c 0,17,18
 712.054 968 712.054 968 614 968 c 2,19,-1
 470 968 l 1,20,-1
 470 606 l 1,0,-1
772 161 m 2,21,-1
 772 0 l 2,22,23
 772 -10 772 -10 765 -17 c 128,-1,24
 758 -24 758 -24 748 -24 c 2,25,-1
 112 -24 l 2,26,27
 102 -24 102 -24 95 -17 c 128,-1,28
 88 -10 88 -10 88 0 c 2,29,-1
 88 161 l 2,30,31
 88 171 88 171 95 178 c 128,-1,32
 102 185 102 185 112 185 c 2,33,-1
 254 185 l 1,34,-1
 254 968 l 1,35,-1
 112 968 l 2,36,37
 102 968 102 968 95 975 c 128,-1,38
 88 982 88 982 88 992 c 2,39,-1
 88 1153 l 2,40,41
 88 1163 88 1163 95 1170 c 128,-1,42
 102 1177 102 1177 112 1177 c 2,43,-1
 614 1177 l 2,44,45
 731.003 1177 731.003 1177 803.898 1164.68 c 0,46,47
 882.663 1152.08 882.663 1152.08 945.157 1119.25 c 0,48,49
 1037.15 1071.11 1037.15 1071.11 1093.59 976.338 c 0,50,51
 1150 882.659 1150 882.659 1150 779 c 0,52,53
 1150 683.9 1150 683.9 1102.02 595.42 c 1,54,55
 1051.54 505.202 1051.54 505.202 971.452 461.908 c 0,56,57
 890.617 417.815 890.617 417.815 805.158 406.209 c 0,58,59
 726.547 396 726.547 396 528 396 c 2,60,-1
 470 396 l 1,61,-1
 470 185 l 1,62,-1
 748 185 l 2,63,64
 758 185 758 185 765 178 c 128,-1,65
 772 171 772 171 772 161 c 2,21,-1
EndSplineSet
EndChar

StartChar: Q
Encoding: 81 81 52
Width: 1228
Flags: W
LayerCount: 2
Fore
SplineSet
614 157 m 128,-1,1
 682.449 157 682.449 157 739.275 179.358 c 0,2,3
 796.886 201.659 796.886 201.659 837.52 240.448 c 0,4,5
 880.955 281.049 880.955 281.049 911.651 334.888 c 0,6,7
 942.516 389.022 942.516 389.022 957.736 449.899 c 0,8,9
 974 513.037 974 513.037 974 578 c 0,10,11
 974 689.743 974 689.743 930.132 785.11 c 1,12,13
 888.709 878.314 888.709 878.314 805.082 938.447 c 0,14,15
 723.389 996 723.389 996 614 996 c 0,16,17
 525.935 996 525.935 996 457.076 959.708 c 0,18,19
 388.146 924.313 388.146 924.313 346.563 866.098 c 0,20,21
 302.769 804.213 302.769 804.213 279.397 729.808 c 128,-1,22
 256 655.323 256 655.323 256 578 c 0,23,24
 256 514.777 256 514.777 270.326 453.649 c 0,25,26
 285.522 392.862 285.522 392.862 315.894 337.811 c 1,27,28
 346.95 284.17 346.95 284.17 388.776 242.165 c 1,29,30
 429.672 203.38 429.672 203.38 487.413 180.283 c 0,31,0
 545.622 157 545.622 157 614 157 c 128,-1,1
1182.08 -172.439 m 2,32,-1
 1153.1 -193.423 l 2,33,34
 1115.65 -220.754 1115.65 -220.754 1093.21 -233.668 c 0,35,36
 1067.75 -248.993 1067.75 -248.993 1019.22 -266.548 c 0,37,38
 966.269 -286 966.269 -286 913 -286 c 0,39,40
 861.388 -286 861.388 -286 818.963 -272.945 c 0,41,42
 781.502 -261.499 781.502 -261.499 716.244 -231.928 c 0,43,44
 633.989 -196 633.989 -196 580 -196 c 0,45,46
 544.271 -196 544.271 -196 511.548 -205.09 c 0,47,48
 475.775 -215.445 475.775 -215.445 451.422 -227.622 c 0,49,50
 423.928 -240.387 423.928 -240.387 365.689 -272.961 c 2,51,-1
 338.655 -287.98 l 2,52,53
 329.915 -292.539 329.915 -292.539 320.65 -289.93 c 128,-1,54
 311.385 -287.322 311.385 -287.322 306.63 -279.692 c 2,55,-1
 225.63 -149.692 l 2,56,57
 220.456 -140.169 220.456 -140.169 223.258 -130.599 c 128,-1,58
 226.061 -121.029 226.061 -121.029 233.545 -116.485 c 2,59,-1
 261.345 -99.6063 l 2,60,61
 300.035 -75.0709 300.035 -75.0709 338.363 -37.7013 c 0,62,63
 356.966 -20.0522 356.966 -20.0522 371.184 -5.63409 c 1,64,65
 232.745 58.9838 232.745 58.9838 143.131 191.538 c 0,66,67
 30.9649 356.668 30.9649 356.668 32 575.057 c 0,68,69
 32 719.398 32 719.398 77.6111 839.646 c 1,70,71
 125.524 961.512 125.524 961.512 207.141 1042.08 c 0,72,73
 287.434 1121.34 287.434 1121.34 391.469 1165.03 c 1,74,75
 496.896 1212 496.896 1212 612 1212 c 0,76,77
 774.634 1212 774.634 1212 908.312 1132.1 c 128,-1,78
 1042.11 1052.13 1042.11 1052.13 1120.24 903.169 c 0,79,80
 1198 755.957 1198 755.957 1198 568 c 0,81,82
 1198 480.37 1198 480.37 1179.44 396.868 c 0,83,84
 1160.72 310.501 1160.72 310.501 1115.01 227.396 c 0,85,86
 1068.12 142.987 1068.12 142.987 1000.22 80.309 c 0,87,88
 929.486 15.9102 929.486 15.9102 819.874 -21.6717 c 0,89,90
 803.68 -27.3697 803.68 -27.3697 786.574 -32.3977 c 1,91,92
 857.388 -61.4806 857.388 -61.4806 875.199 -67.1052 c 0,93,94
 887.662 -71 887.662 -71 905 -71 c 0,95,96
 959.352 -71 959.352 -71 1025.39 -27.2293 c 1,97,-1
 1049.13 -10.4154 l 2,98,99
 1056.86 -5.09393 1056.86 -5.09393 1066.15 -6.35056 c 128,-1,100
 1075.44 -7.60718 1075.44 -7.60718 1081.25 -14.4177 c 2,101,-1
 1186.25 -137.418 l 2,102,103
 1193.11 -146.613 1193.11 -146.613 1191.25 -156.874 c 128,-1,104
 1189.4 -167.135 1189.4 -167.135 1182.08 -172.439 c 2,32,-1
EndSplineSet
EndChar

StartChar: R
Encoding: 82 82 53
Width: 1228
Flags: W
LayerCount: 2
Fore
SplineSet
418 968 m 1,0,-1
 418 682 l 1,1,-1
 594 682 l 2,2,3
 736.892 682 736.892 682 797.931 721.63 c 0,4,5
 854 758.032 854 758.032 854 833 c 0,6,7
 854 891.2 854 891.2 829.188 920.486 c 128,-1,8
 804.291 949.873 804.291 949.873 744.442 960.433 c 1,9,10
 708.497 968 708.497 968 614 968 c 2,11,-1
 418 968 l 1,0,-1
1238 161 m 2,12,-1
 1238 0 l 2,13,14
 1238 -10 1238 -10 1231 -17 c 128,-1,15
 1224 -24 1224 -24 1214 -24 c 2,16,-1
 905 -24 l 2,17,18
 889.812 -24 889.812 -24 883.31 -10.2741 c 2,19,-1
 874.376 8.58762 l 1,20,21
 805.224 149.864 805.224 149.864 682.289 329.307 c 0,22,23
 651.551 372.936 651.551 372.936 637.599 391.872 c 0,24,25
 599.845 444.359 599.845 444.359 581.758 453.795 c 0,26,27
 547.948 472 547.948 472 510 472 c 2,28,-1
 418 472 l 1,29,-1
 418 185 l 1,30,-1
 578 185 l 2,31,32
 588 185 588 185 595 178 c 128,-1,33
 602 171 602 171 602 161 c 2,34,-1
 602 0 l 2,35,36
 602 -10 602 -10 595 -17 c 128,-1,37
 588 -24 588 -24 578 -24 c 2,38,-1
 60 -24 l 2,39,40
 50 -24 50 -24 43 -17 c 128,-1,41
 36 -10 36 -10 36 0 c 2,42,-1
 36 161 l 2,43,44
 36 171 36 171 43 178 c 128,-1,45
 50 185 50 185 60 185 c 2,46,-1
 204 185 l 1,47,-1
 204 968 l 1,48,-1
 60 968 l 2,49,50
 50 968 50 968 43 975 c 128,-1,51
 36 982 36 982 36 992 c 2,52,-1
 36 1153 l 2,53,54
 36 1163 36 1163 43 1170 c 128,-1,55
 50 1177 50 1177 60 1177 c 2,56,-1
 618 1177 l 2,57,58
 732.109 1177 732.109 1177 796.071 1165.65 c 0,59,60
 866.579 1153.9 866.579 1153.9 927.751 1116.33 c 1,61,62
 1078 1020.14 1078 1020.14 1078 837 c 0,63,64
 1078 715.583 1078 715.583 1000.83 619.123 c 0,65,66
 958.451 564.788 958.451 564.788 882.452 528.395 c 0,67,68
 851.042 513.039 851.042 513.039 814.203 502.049 c 1,69,70
 893.098 401.31 893.098 401.31 1032.12 185 c 1,71,-1
 1214 185 l 2,72,73
 1224 185 1224 185 1231 178 c 128,-1,74
 1238 171 1238 171 1238 161 c 2,12,-1
EndSplineSet
EndChar

StartChar: S
Encoding: 83 83 54
Width: 1228
Flags: W
LayerCount: 2
Fore
SplineSet
139.49 -36.1773 m 2,0,-1
 147.478 2.76542 l 2,1,2
 164 85.3744 164 85.3744 164 174 c 0,3,4
 164 216.791 164 216.791 147.133 384.473 c 1,5,-1
 143.147 420.35 l 2,6,7
 141.948 431.141 141.948 431.141 149.586 439.071 c 128,-1,8
 157.224 447 157.224 447 167 447 c 2,9,-1
 322 447 l 2,10,11
 330.677 447 330.677 447 337.387 441.091 c 128,-1,12
 344.097 435.183 344.097 435.183 345.568 427.532 c 2,13,-1
 350.565 401.548 l 2,14,15
 371.496 293.086 371.496 293.086 410.09 242.545 c 0,16,17
 438.894 204.741 438.894 204.741 485.249 180.2 c 0,18,19
 528.973 157 528.973 157 616 157 c 0,20,21
 681.1 157 681.1 157 731.234 169.297 c 0,22,23
 779.465 181.355 779.465 181.355 807.221 198.815 c 0,24,25
 834.718 216.112 834.718 216.112 852.654 238.86 c 0,26,27
 870.265 261.197 870.265 261.197 875.96 280.72 c 0,28,29
 876.168 281.433 876.168 281.433 876.419 282.129 c 0,30,31
 884 303.187 884 303.187 884 326 c 0,32,33
 884 384.445 884 384.445 833.814 419.285 c 0,34,35
 778.462 457.711 778.462 457.711 649.743 470.106 c 0,36,37
 326.773 499.939 326.773 499.939 208.946 637.183 c 1,38,39
 146 708.491 146 708.491 146 826 c 0,40,41
 146 984.201 146 984.201 283.572 1099.38 c 0,42,43
 417.242 1212 417.242 1212 610 1212 c 0,44,45
 768.431 1212 768.431 1212 886.053 1125.62 c 1,46,47
 886.306 1128.81 886.306 1128.81 887.232 1131.59 c 0,48,49
 890 1139.9 890 1139.9 890 1144 c 2,50,-1
 890 1176 l 2,51,52
 890 1186 890 1186 897 1193 c 128,-1,53
 904 1200 904 1200 914 1200 c 2,54,-1
 1079 1200 l 2,55,56
 1090.46 1200 1090.46 1200 1097.65 1190.78 c 128,-1,57
 1104.85 1181.56 1104.85 1181.56 1102.41 1170.73 c 2,58,-1
 1093.37 1130.53 l 1,59,60
 1076 1059.11 1076 1059.11 1076 996 c 0,61,62
 1076 904.458 1076 904.458 1093.81 758.03 c 1,63,-1
 1097.79 728.172 l 2,64,65
 1099.06 718.635 1099.06 718.635 1093.13 710.782 c 128,-1,66
 1087.2 702.928 1087.2 702.928 1078.09 701.352 c 2,67,-1
 922.093 674.352 l 2,68,69
 911.936 672.594 911.936 672.594 903.637 679.047 c 128,-1,70
 895.339 685.5 895.339 685.5 894.174 695.112 c 2,71,-1
 890.203 727.873 l 1,72,73
 875.029 835.036 875.029 835.036 835.855 897.95 c 1,74,75
 769.687 996 769.687 996 623 996 c 0,76,77
 556.153 996 556.153 996 503.954 977.356 c 0,78,79
 453.664 959.982 453.664 959.982 426.55 934.618 c 0,80,81
 397.986 906.946 397.986 906.946 382.596 876.527 c 1,82,83
 370 849.256 370 849.256 370 823.842 c 0,84,85
 369.171 760.786 369.171 760.786 424.743 724.015 c 0,86,87
 486.014 683.474 486.014 683.474 629.818 672.931 c 0,88,89
 745.518 663.8 745.518 663.8 824.039 646.465 c 0,90,91
 894.935 631.652 894.935 631.652 954.604 595.424 c 0,92,93
 1108 499.286 1108 499.286 1108 326 c 0,94,95
 1108 249.799 1108 249.799 1078.35 184.569 c 0,96,97
 1048.87 119.713 1048.87 119.713 1000.27 74.3553 c 0,98,99
 952.902 31.1987 952.902 31.1987 890.658 1.49235 c 1,100,101
 829.743 -29.8649 829.743 -29.8649 764.244 -44.4201 c 0,102,103
 699.674 -59 699.674 -59 631 -59 c 0,104,105
 471.926 -59 471.926 -59 356.169 16.8063 c 1,106,107
 353.505 1.64614 353.505 1.64614 350.743 -16.5039 c 2,108,-1
 346.759 -44.3941 l 2,109,110
 345.504 -53.1759 345.504 -53.1759 338.615 -59.0879 c 128,-1,111
 331.725 -65 331.725 -65 323 -65 c 2,112,-1
 163 -65 l 2,113,114
 151.548 -65 151.548 -65 144.45 -55.799 c 128,-1,115
 137.352 -46.598 137.352 -46.598 139.49 -36.1773 c 2,0,-1
EndSplineSet
EndChar

StartChar: T
Encoding: 84 84 55
Width: 1228
Flags: W
LayerCount: 2
Fore
SplineSet
970 161 m 2,0,-1
 970 0 l 2,1,2
 970 -10 970 -10 963 -17 c 128,-1,3
 956 -24 956 -24 946 -24 c 2,4,-1
 282 -24 l 2,5,6
 272 -24 272 -24 265 -17 c 128,-1,7
 258 -10 258 -10 258 0 c 2,8,-1
 258 161 l 2,9,10
 258 171 258 171 265 178 c 128,-1,11
 272 185 272 185 282 185 c 2,12,-1
 506 185 l 1,13,-1
 506 968 l 1,14,-1
 277.379 968 l 1,15,-1
 250.941 590.324 l 2,16,17
 250.275 580.81 250.275 580.81 242.916 574.405 c 128,-1,18
 235.556 568 235.556 568 227 568 c 2,19,-1
 67 568 l 2,20,21
 56.7011 568 56.7011 568 49.6502 575.772 c 128,-1,22
 42.5993 583.544 42.5993 583.544 43.0238 593.068 c 2,23,-1
 68.0238 1154.07 l 2,24,25
 68.4515 1163.67 68.4515 1163.67 75.6682 1170.33 c 128,-1,26
 82.8849 1177 82.8849 1177 92 1177 c 2,27,-1
 1137 1177 l 2,28,29
 1146.61 1177 1146.61 1177 1153.59 1170.09 c 128,-1,30
 1160.57 1163.17 1160.57 1163.17 1160.98 1154.07 c 2,31,-1
 1185.98 593.068 l 2,32,33
 1186.44 582.78 1186.44 582.78 1178.98 575.39 c 128,-1,34
 1171.53 568 1171.53 568 1162 568 c 2,35,-1
 1001 568 l 2,36,37
 991.455 568 991.455 568 984.545 574.897 c 128,-1,38
 977.634 581.794 977.634 581.794 977.055 590.384 c 2,39,-1
 951.565 968 l 1,40,-1
 722 968 l 1,41,-1
 722 185 l 1,42,-1
 946 185 l 2,43,44
 956 185 956 185 963 178 c 128,-1,45
 970 171 970 171 970 161 c 2,0,-1
EndSplineSet
EndChar

StartChar: U
Encoding: 85 85 56
Width: 1228
Flags: W
LayerCount: 2
Fore
SplineSet
1090 968 m 1,0,-1
 1090 462 l 2,1,2
 1090 320.979 1090 320.979 1070.23 243.979 c 0,3,4
 1049.01 162.244 1049.01 162.244 1006.04 106.383 c 0,5,6
 959.676 46.0062 959.676 46.0062 854.69 -6.48769 c 0,7,8
 748.617 -59 748.617 -59 613.905 -59 c 1,9,10
 482.345 -57.9561 482.345 -57.9561 377.53 -6.59612 c 0,11,12
 274.539 42.7972 274.539 42.7972 225.025 106.305 c 0,13,14
 182 162.238 182 162.238 160.724 244.147 c 1,15,16
 142 321.12 142 321.12 142 462 c 2,17,-1
 142 968 l 1,18,-1
 16 968 l 2,19,20
 6 968 6 968 -1 975 c 128,-1,21
 -8 982 -8 982 -8 992 c 2,22,-1
 -8 1153 l 2,23,24
 -8 1163 -8 1163 -1 1170 c 128,-1,25
 6 1177 6 1177 16 1177 c 2,26,-1
 540 1177 l 2,27,28
 550 1177 550 1177 557 1170 c 128,-1,29
 564 1163 564 1163 564 1153 c 2,30,-1
 564 992 l 2,31,32
 564 982 564 982 557 975 c 128,-1,33
 550 968 550 968 540 968 c 2,34,-1
 356 968 l 1,35,-1
 356 480 l 2,36,37
 356 419.347 356 419.347 356.988 386.751 c 0,38,39
 357.918 357.912 357.918 357.912 367.494 312.904 c 0,40,41
 375.816 272.22 375.816 272.22 390.264 245.13 c 0,42,43
 440.695 146.925 440.695 146.925 619.933 146.001 c 1,44,45
 791.208 147.843 791.208 147.843 840.855 245.366 c 1,46,47
 856.248 272.529 856.248 272.529 864.457 312.664 c 0,48,49
 873.074 357.669 873.074 357.669 874.023 387.112 c 0,50,51
 876 419.731 876 419.731 876 480 c 2,52,-1
 876 968 l 1,53,-1
 690 968 l 2,54,55
 680 968 680 968 673 975 c 128,-1,56
 666 982 666 982 666 992 c 2,57,-1
 666 1153 l 2,58,59
 666 1163 666 1163 673 1170 c 128,-1,60
 680 1177 680 1177 690 1177 c 2,61,-1
 1214 1177 l 2,62,63
 1224 1177 1224 1177 1231 1170 c 128,-1,64
 1238 1163 1238 1163 1238 1153 c 2,65,-1
 1238 992 l 2,66,67
 1238 982 1238 982 1231 975 c 128,-1,68
 1224 968 1224 968 1214 968 c 2,69,-1
 1090 968 l 1,0,-1
EndSplineSet
EndChar

StartChar: V
Encoding: 86 86 57
Width: 1228
Flags: W
LayerCount: 2
Fore
SplineSet
1126.12 968 m 1,0,-1
 727.22 -9.07149 l 2,1,2
 721.125 -24 721.125 -24 705 -24 c 2,3,-1
 534 -24 l 2,4,5
 517.815 -24 517.815 -24 511.749 -8.99453 c 2,6,-1
 116.815 968 l 1,7,-1
 -19 968 l 2,8,9
 -29 968 -29 968 -36 975 c 128,-1,10
 -43 982 -43 982 -43 992 c 2,11,-1
 -43 1153 l 2,12,13
 -43 1163 -43 1163 -36 1170 c 128,-1,14
 -29 1177 -29 1177 -19 1177 c 2,15,-1
 485 1177 l 2,16,17
 495 1177 495 1177 502 1170 c 128,-1,18
 509 1163 509 1163 509 1153 c 2,19,-1
 509 992 l 2,20,21
 509 982 509 982 502 975 c 128,-1,22
 495 968 495 968 485 968 c 2,23,-1
 340.969 968 l 1,24,-1
 622.141 238.378 l 1,25,-1
 906.871 968 l 1,26,-1
 749 968 l 2,27,28
 739 968 739 968 732 975 c 128,-1,29
 725 982 725 982 725 992 c 2,30,-1
 725 1153 l 2,31,32
 725 1163 725 1163 732 1170 c 128,-1,33
 739 1177 739 1177 749 1177 c 2,34,-1
 1251 1177 l 2,35,36
 1261 1177 1261 1177 1268 1170 c 128,-1,37
 1275 1163 1275 1163 1275 1153 c 2,38,-1
 1275 992 l 2,39,40
 1275 982 1275 982 1268 975 c 128,-1,41
 1261 968 1261 968 1251 968 c 2,42,-1
 1126.12 968 l 1,0,-1
EndSplineSet
EndChar

StartChar: W
Encoding: 87 87 58
Width: 1228
Flags: W
LayerCount: 2
Fore
SplineSet
1179.58 968 m 1,0,-1
 1029.72 -3.65836 l 2,1,2
 1028.37 -12.3836 1028.37 -12.3836 1021.44 -18.1918 c 128,-1,3
 1014.5 -24 1014.5 -24 1006 -24 c 2,4,-1
 852 -24 l 2,5,6
 834.954 -24 834.954 -24 829.34 -7.9063 c 2,7,-1
 612.812 612.685 l 1,8,-1
 392.619 -8.02394 l 2,9,10
 386.952 -24 386.952 -24 370 -24 c 2,11,-1
 217 -24 l 2,12,13
 208.138 -24 208.138 -24 201.317 -18.0188 c 128,-1,14
 194.496 -12.0375 194.496 -12.0375 193.249 -3.44774 c 2,15,-1
 52.2323 968 l 1,16,-1
 -27 968 l 2,17,18
 -37 968 -37 968 -44 975 c 128,-1,19
 -51 982 -51 982 -51 992 c 2,20,-1
 -51 1153 l 2,21,22
 -51 1163 -51 1163 -44 1170 c 128,-1,23
 -37 1177 -37 1177 -27 1177 c 2,24,-1
 441 1177 l 2,25,26
 451 1177 451 1177 458 1170 c 128,-1,27
 465 1163 465 1163 465 1153 c 2,28,-1
 465 992 l 2,29,30
 465 982 465 982 458 975 c 128,-1,31
 451 968 451 968 441 968 c 2,32,-1
 266.41 968 l 1,33,-1
 342.653 395.765 l 1,34,-1
 539.382 950.028 l 2,35,36
 545.051 966 545.051 966 562 966 c 2,37,-1
 677 966 l 2,38,39
 694.089 966 694.089 966 699.679 949.852 c 2,40,-1
 890.998 397.247 l 1,41,-1
 970.429 968 l 1,42,-1
 793 968 l 2,43,44
 783 968 783 968 776 975 c 128,-1,45
 769 982 769 982 769 992 c 2,46,-1
 769 1153 l 2,47,48
 769 1163 769 1163 776 1170 c 128,-1,49
 783 1177 783 1177 793 1177 c 2,50,-1
 1259 1177 l 2,51,52
 1269 1177 1269 1177 1276 1170 c 128,-1,53
 1283 1163 1283 1163 1283 1153 c 2,54,-1
 1283 992 l 2,55,56
 1283 982 1283 982 1276 975 c 128,-1,57
 1269 968 1269 968 1259 968 c 2,58,-1
 1179.58 968 l 1,0,-1
EndSplineSet
EndChar

StartChar: X
Encoding: 88 88 59
Width: 1228
Flags: W
LayerCount: 2
Fore
SplineSet
1218 161 m 2,0,-1
 1218 0 l 2,1,2
 1218 -10 1218 -10 1211 -17 c 128,-1,3
 1204 -24 1204 -24 1194 -24 c 2,4,-1
 716 -24 l 2,5,6
 706 -24 706 -24 699 -17 c 128,-1,7
 692 -10 692 -10 692 0 c 2,8,-1
 692 161 l 2,9,10
 692 171 692 171 699 178 c 128,-1,11
 706 185 706 185 716 185 c 2,12,-1
 820.8 185 l 1,13,-1
 614.627 467.775 l 1,14,-1
 400.305 185 l 1,15,-1
 536 185 l 2,16,17
 546 185 546 185 553 178 c 128,-1,18
 560 171 560 171 560 161 c 2,19,-1
 560 0 l 2,20,21
 560 -10 560 -10 553 -17 c 128,-1,22
 546 -24 546 -24 536 -24 c 2,23,-1
 36 -24 l 2,24,25
 26 -24 26 -24 19 -17 c 128,-1,26
 12 -10 12 -10 12 0 c 2,27,-1
 12 161 l 2,28,29
 12 171 12 171 19 178 c 128,-1,30
 26 185 26 185 36 185 c 2,31,-1
 144.618 185 l 1,32,-1
 486.968 603.954 l 1,33,-1
 187.662 968 l 1,34,-1
 74 968 l 2,35,36
 64 968 64 968 57 975 c 128,-1,37
 50 982 50 982 50 992 c 2,38,-1
 50 1153 l 2,39,40
 50 1163 50 1163 57 1170 c 128,-1,41
 64 1177 64 1177 74 1177 c 2,42,-1
 536 1177 l 2,43,44
 546 1177 546 1177 553 1170 c 128,-1,45
 560 1163 560 1163 560 1153 c 2,46,-1
 560 992 l 2,47,48
 560 982 560 982 553 975 c 128,-1,49
 546 968 546 968 536 968 c 2,50,-1
 448.768 968 l 1,51,-1
 616.264 742.854 l 1,52,-1
 788.434 968 l 1,53,-1
 716 968 l 2,54,55
 706 968 706 968 699 975 c 128,-1,56
 692 982 692 982 692 992 c 2,57,-1
 692 1153 l 2,58,59
 692 1163 692 1163 699 1170 c 128,-1,60
 706 1177 706 1177 716 1177 c 2,61,-1
 1154 1177 l 2,62,63
 1164 1177 1164 1177 1171 1170 c 128,-1,64
 1178 1163 1178 1163 1178 1153 c 2,65,-1
 1178 992 l 2,66,67
 1178 982 1178 982 1171 975 c 128,-1,68
 1164 968 1164 968 1154 968 c 2,69,-1
 1045.34 968 l 1,70,-1
 745.928 603.827 l 1,71,-1
 1082.5 185 l 1,72,-1
 1194 185 l 2,73,74
 1204 185 1204 185 1211 178 c 128,-1,75
 1218 171 1218 171 1218 161 c 2,0,-1
EndSplineSet
EndChar

StartChar: Y
Encoding: 89 89 60
Width: 1228
Flags: W
LayerCount: 2
Fore
SplineSet
966 161 m 2,0,-1
 966 0 l 2,1,2
 966 -10 966 -10 959 -17 c 128,-1,3
 952 -24 952 -24 942 -24 c 2,4,-1
 290 -24 l 2,5,6
 280 -24 280 -24 273 -17 c 128,-1,7
 266 -10 266 -10 266 0 c 2,8,-1
 266 161 l 2,9,10
 266 171 266 171 273 178 c 128,-1,11
 280 185 280 185 290 185 c 2,12,-1
 508 185 l 1,13,-1
 508 439.873 l 1,14,-1
 163.991 968 l 1,15,-1
 34 968 l 2,16,17
 24 968 24 968 17 975 c 128,-1,18
 10 982 10 982 10 992 c 2,19,-1
 10 1153 l 2,20,21
 10 1163 10 1163 17 1170 c 128,-1,22
 24 1177 24 1177 34 1177 c 2,23,-1
 500 1177 l 2,24,25
 510 1177 510 1177 517 1170 c 128,-1,26
 524 1163 524 1163 524 1153 c 2,27,-1
 524 992 l 2,28,29
 524 982 524 982 517 975 c 128,-1,30
 510 968 510 968 500 968 c 2,31,-1
 411.759 968 l 1,32,-1
 620.836 625.346 l 1,33,-1
 826.594 968 l 1,34,-1
 734 968 l 2,35,36
 724 968 724 968 717 975 c 128,-1,37
 710 982 710 982 710 992 c 2,38,-1
 710 1153 l 2,39,40
 710 1163 710 1163 717 1170 c 128,-1,41
 724 1177 724 1177 734 1177 c 2,42,-1
 1196 1177 l 2,43,44
 1206 1177 1206 1177 1213 1170 c 128,-1,45
 1220 1163 1220 1163 1220 1153 c 2,46,-1
 1220 992 l 2,47,48
 1220 982 1220 982 1213 975 c 128,-1,49
 1206 968 1206 968 1196 968 c 2,50,-1
 1065.07 968 l 1,51,-1
 724 439.923 l 1,52,-1
 724 185 l 1,53,-1
 942 185 l 2,54,55
 952 185 952 185 959 178 c 128,-1,56
 966 171 966 171 966 161 c 2,0,-1
EndSplineSet
EndChar

StartChar: Z
Encoding: 90 90 61
Width: 1228
Flags: W
LayerCount: 2
Fore
SplineSet
1114 493 m 2,0,-1
 1114 0 l 2,1,2
 1114 -10 1114 -10 1107 -17 c 128,-1,3
 1100 -24 1100 -24 1090 -24 c 2,4,-1
 140 -24 l 2,5,6
 130 -24 130 -24 123 -17 c 128,-1,7
 116 -10 116 -10 116 0 c 2,8,-1
 116 131 l 2,9,10
 116 139.286 116 139.286 121.112 145.807 c 2,11,-1
 765.688 968 l 1,12,-1
 340 968 l 1,13,-1
 340 693 l 2,14,15
 340 683 340 683 333 676 c 128,-1,16
 326 669 326 669 316 669 c 2,17,-1
 154 669 l 2,18,19
 144 669 144 669 137 676 c 128,-1,20
 130 683 130 683 130 693 c 2,21,-1
 130 1153 l 2,22,23
 130 1163 130 1163 137 1170 c 128,-1,24
 144 1177 144 1177 154 1177 c 2,25,-1
 1042 1177 l 2,26,27
 1052 1177 1052 1177 1059 1170 c 128,-1,28
 1066 1163 1066 1163 1066 1153 c 2,29,-1
 1066 1034 l 2,30,31
 1066 1025.73 1066 1025.73 1060.9 1019.21 c 2,32,-1
 408.249 185 l 1,33,-1
 904 185 l 1,34,-1
 904 493 l 2,35,36
 904 503 904 503 911 510 c 128,-1,37
 918 517 918 517 928 517 c 2,38,-1
 1090 517 l 2,39,40
 1100 517 1100 517 1107 510 c 128,-1,41
 1114 503 1114 503 1114 493 c 2,0,-1
EndSplineSet
EndChar

StartChar: bracketleft
Encoding: 91 91 62
Width: 1228
Flags: W
LayerCount: 2
Fore
SplineSet
1026 -250 m 2,0,-1
 600 -250 l 2,1,2
 590 -250 590 -250 583 -243 c 128,-1,3
 576 -236 576 -236 576 -226 c 2,4,-1
 576 1372 l 2,5,6
 576 1382 576 1382 583 1389 c 128,-1,7
 590 1396 590 1396 600 1396 c 2,8,-1
 1026 1396 l 2,9,10
 1036 1396 1036 1396 1043 1389 c 128,-1,11
 1050 1382 1050 1382 1050 1372 c 2,12,-1
 1050 1204 l 2,13,14
 1050 1194 1050 1194 1043 1187 c 128,-1,15
 1036 1180 1036 1180 1026 1180 c 2,16,-1
 792 1180 l 1,17,-1
 792 -34 l 1,18,-1
 1026 -34 l 2,19,20
 1036 -34 1036 -34 1043 -41 c 128,-1,21
 1050 -48 1050 -48 1050 -58 c 2,22,-1
 1050 -226 l 2,23,24
 1050 -236 1050 -236 1043 -243 c 128,-1,25
 1036 -250 1036 -250 1026 -250 c 2,0,-1
EndSplineSet
EndChar

StartChar: backslash
Encoding: 92 92 63
Width: 1228
Flags: W
LayerCount: 2
Fore
SplineSet
1100.02 -281.808 m 2,0,-1
 952.02 -349.808 l 2,1,2
 942.724 -354.08 942.724 -354.08 933.212 -349.911 c 128,-1,3
 923.7 -345.742 923.7 -345.742 920.149 -337.927 c 2,4,-1
 125.149 1412.07 l 2,5,6
 120.911 1421.4 120.911 1421.4 125.111 1430.92 c 128,-1,7
 129.312 1440.44 129.312 1440.44 137.349 1443.97 c 2,8,-1
 285.349 1508.97 l 2,9,10
 294.442 1512.97 294.442 1512.97 303.782 1509.04 c 128,-1,11
 313.122 1505.12 313.122 1505.12 316.845 1496.94 c 2,12,-1
 1111.84 -250.059 l 2,13,14
 1115.8 -259.52 1115.8 -259.52 1112.1 -268.741 c 128,-1,15
 1108.39 -277.962 1108.39 -277.962 1100.02 -281.808 c 2,0,-1
EndSplineSet
EndChar

StartChar: bracketright
Encoding: 93 93 64
Width: 1228
Flags: W
LayerCount: 2
Fore
SplineSet
628 -250 m 2,0,-1
 204 -250 l 2,1,2
 194 -250 194 -250 187 -243 c 128,-1,3
 180 -236 180 -236 180 -226 c 2,4,-1
 180 -58 l 2,5,6
 180 -48 180 -48 187 -41 c 128,-1,7
 194 -34 194 -34 204 -34 c 2,8,-1
 438 -34 l 1,9,-1
 438 1180 l 1,10,-1
 204 1180 l 2,11,12
 194 1180 194 1180 187 1187 c 128,-1,13
 180 1194 180 1194 180 1204 c 2,14,-1
 180 1372 l 2,15,16
 180 1382 180 1382 187 1389 c 128,-1,17
 194 1396 194 1396 204 1396 c 2,18,-1
 628 1396 l 2,19,20
 638 1396 638 1396 645 1389 c 128,-1,21
 652 1382 652 1382 652 1372 c 2,22,-1
 652 -226 l 2,23,24
 652 -236 652 -236 645 -243 c 128,-1,25
 638 -250 638 -250 628 -250 c 2,0,-1
EndSplineSet
EndChar

StartChar: asciicircum
Encoding: 94 94 65
Width: 1228
Flags: W
LayerCount: 2
Fore
SplineSet
1130 258 m 2,0,-1
 927 258 l 2,1,2
 911.712 258 911.712 258 905.25 271.854 c 2,3,-1
 614.035 896.153 l 1,4,-1
 323.762 271.881 l 2,5,6
 317.308 258 317.308 258 302 258 c 2,7,-1
 99 258 l 2,8,9
 89 258 89 258 82 265 c 128,-1,10
 75 272 75 272 75 282 c 0,11,12
 75 287.292 75 287.292 77.2252 292.093 c 2,13,-1
 496.225 1196.09 l 2,14,15
 502.672 1210 502.672 1210 518 1210 c 2,16,-1
 711 1210 l 2,17,18
 726.328 1210 726.328 1210 732.775 1196.09 c 2,19,-1
 1151.77 292.093 l 2,20,21
 1155.9 283.197 1155.9 283.197 1152.44 273.773 c 128,-1,22
 1148.99 264.348 1148.99 264.348 1140.09 260.225 c 0,23,24
 1135.29 258 1135.29 258 1130 258 c 2,0,-1
EndSplineSet
EndChar

StartChar: underscore
Encoding: 95 95 66
Width: 1228
Flags: W
LayerCount: 2
Fore
SplineSet
1361 -312 m 2,0,-1
 -129 -312 l 2,1,2
 -139 -312 -139 -312 -146 -305 c 128,-1,3
 -153 -298 -153 -298 -153 -288 c 2,4,-1
 -153 -122 l 2,5,6
 -153 -112 -153 -112 -146 -105 c 128,-1,7
 -139 -98 -139 -98 -129 -98 c 2,8,-1
 1361 -98 l 2,9,10
 1371 -98 1371 -98 1378 -105 c 128,-1,11
 1385 -112 1385 -112 1385 -122 c 2,12,-1
 1385 -288 l 2,13,14
 1385 -298 1385 -298 1378 -305 c 128,-1,15
 1371 -312 1371 -312 1361 -312 c 2,0,-1
EndSplineSet
EndChar

StartChar: grave
Encoding: 96 96 67
Width: 1228
Flags: W
LayerCount: 2
Fore
SplineSet
827 974 m 2,0,-1
 647 974 l 2,1,2
 638.024 974 638.024 974 631.252 979.889 c 2,3,-1
 286.252 1279.89 l 2,4,5
 278.853 1286.32 278.853 1286.32 278.155 1296.34 c 128,-1,6
 277.456 1306.35 277.456 1306.35 283.89 1313.75 c 0,7,8
 291.065 1322 291.065 1322 302 1322 c 2,9,-1
 625 1322 l 2,10,11
 637.773 1322 637.773 1322 644.908 1311.4 c 2,12,-1
 846.908 1011.4 l 2,13,14
 852.384 1003.27 852.384 1003.27 850.46 993.42 c 128,-1,15
 848.537 983.568 848.537 983.568 840.405 978.092 c 0,16,17
 834.327 974 834.327 974 827 974 c 2,0,-1
EndSplineSet
EndChar

StartChar: a
Encoding: 97 97 68
Width: 1228
Flags: W
LayerCount: 2
Fore
SplineSet
786 321.134 m 1,0,-1
 786 401.816 l 1,1,2
 683.266 414 683.266 414 575 414 c 0,3,4
 511.023 414 511.023 414 460.052 405.344 c 0,5,6
 410.775 396.816 410.775 396.816 382.281 384.867 c 0,7,8
 354.218 373.099 354.218 373.099 334.235 357.556 c 0,9,10
 314.495 342.202 314.495 342.202 306.53 331.05 c 128,-1,11
 298.503 319.813 298.503 319.813 293.632 306.012 c 0,12,13
 289.482 294.255 289.482 294.255 288 288.491 c 1,14,-1
 288 275 l 2,15,16
 288 231.911 288 231.911 332.671 197.994 c 0,17,18
 382.3 159 382.3 159 449 159 c 0,19,20
 532.634 159 532.634 159 617.052 199.399 c 128,-1,21
 701.47 239.798 701.47 239.798 786 321.134 c 1,0,-1
1182 161 m 2,22,-1
 1182 0 l 2,23,24
 1182 -10 1182 -10 1175 -17 c 128,-1,25
 1168 -24 1168 -24 1158 -24 c 2,26,-1
 810 -24 l 2,27,28
 800 -24 800 -24 793 -17 c 128,-1,29
 786 -10 786 -10 786 0 c 2,30,-1
 786 61.239 l 1,31,32
 622.469 -53 622.469 -53 451 -53 c 0,33,34
 283.701 -53 283.701 -53 174.874 46.2249 c 0,35,36
 64 146.334 64 146.334 64 277 c 0,37,38
 64 319.984 64 319.984 79.2591 364.672 c 0,39,40
 94.4769 410.324 94.4769 410.324 131.031 458.706 c 1,41,42
 168.455 505.753 168.455 505.753 222.508 542.849 c 0,43,44
 277.95 580.164 277.95 580.164 364.851 603.199 c 0,45,46
 450.868 626 450.868 626 555 626 c 0,47,48
 677.718 626 677.718 626 786.055 610.087 c 1,49,50
 786.275 654.2 786.275 654.2 774.258 679.837 c 0,51,52
 763.237 703.453 763.237 703.453 741.864 716.91 c 0,53,54
 717.487 733.452 717.487 733.452 683.344 740.455 c 0,55,56
 643.51 748.043 643.51 748.043 593.77 749 c 0,57,58
 451.017 749 451.017 749 266.205 675.832 c 1,59,-1
 236.543 662.979 l 2,60,61
 227.597 659.18 227.597 659.18 218.436 662.714 c 128,-1,62
 209.275 666.247 209.275 666.247 205.26 674.834 c 2,63,-1
 140.26 813.834 l 2,64,65
 135.672 823.643 135.672 823.643 140.392 833.507 c 128,-1,66
 145.112 843.37 145.112 843.37 153.738 846.533 c 2,67,-1
 183.573 857.473 l 1,68,69
 414.574 946 414.574 946 596 946 c 0,70,71
 674.902 946 674.902 946 738.733 930.306 c 0,72,73
 802.316 914.671 802.316 914.671 844.361 891.146 c 1,74,75
 889.349 867.878 889.349 867.878 921.89 830.999 c 0,76,77
 952.672 797.034 952.672 797.034 967.467 766.739 c 0,78,79
 983.018 736.367 983.018 736.367 990.547 697.642 c 0,80,81
 997.868 661.032 997.868 661.032 998.962 641.353 c 0,82,83
 1000 623.703 1000 623.703 1000 598 c 2,84,-1
 1000 185 l 1,85,-1
 1158 185 l 2,86,87
 1168 185 1168 185 1175 178 c 128,-1,88
 1182 171 1182 171 1182 161 c 2,22,-1
EndSplineSet
EndChar

StartChar: b
Encoding: 98 98 69
Width: 1228
Flags: W
LayerCount: 2
Fore
SplineSet
663 171 m 0,0,1
 787.302 171 787.302 171 867.374 248.309 c 0,2,3
 949 326.269 949 326.269 949 434 c 128,-1,4
 949 541.573 949 541.573 865.577 619.499 c 0,5,6
 783.466 697 783.466 697 660 697 c 0,7,8
 534.242 697 534.242 697 447.097 618.199 c 0,9,10
 361 540.345 361 540.345 361 436 c 0,11,12
 361 328.611 361 328.611 447.149 250.254 c 0,13,14
 534.284 171 534.284 171 663 171 c 0,0,1
359 55.6075 m 1,15,-1
 359 0 l 2,16,17
 359 -10 359 -10 352 -17 c 128,-1,18
 345 -24 345 -24 335 -24 c 2,19,-1
 3 -24 l 2,20,21
 -7 -24 -7 -24 -14 -17 c 128,-1,22
 -21 -10 -21 -10 -21 0 c 2,23,-1
 -21 161 l 2,24,25
 -21 171 -21 171 -14 178 c 128,-1,26
 -7 185 -7 185 3 185 c 2,27,-1
 143 185 l 1,28,-1
 143 1091.69 l 1,29,-1
 -19.7252 1083.03 l 2,30,31
 -30.0226 1082.49 -30.0226 1082.49 -37.5113 1089.87 c 128,-1,32
 -45 1097.26 -45 1097.26 -45 1107 c 2,33,-1
 -45 1268 l 2,34,35
 -45 1277.56 -45 1277.56 -38.0987 1284.49 c 128,-1,36
 -31.1974 1291.42 -31.1974 1291.42 -22.4803 1291.95 c 2,37,-1
 333.52 1313.95 l 2,38,39
 343.824 1314.59 343.824 1314.59 351.412 1307.27 c 128,-1,40
 359 1299.94 359 1299.94 359 1290 c 2,41,-1
 359 811.589 l 1,42,43
 486.19 913 486.19 913 656 913 c 0,44,45
 795.07 913 795.07 913 913.401 849.119 c 0,46,47
 1031.95 785.122 1031.95 785.122 1101.32 674.772 c 0,48,49
 1171 563.93 1171 563.93 1171 432 c 0,50,51
 1171 311.532 1171 311.532 1107.74 202.92 c 0,52,53
 1044.6 94.5144 1044.6 94.5144 927.146 25.3003 c 0,54,55
 808.492 -44 808.492 -44 665 -44 c 0,56,57
 595.856 -44 595.856 -44 532.905 -27.2132 c 0,58,59
 472.662 -11.6331 472.662 -11.6331 433.613 7.36359 c 0,60,61
 397.16 24.6309 397.16 24.6309 359 55.6075 c 1,15,-1
EndSplineSet
EndChar

StartChar: c
Encoding: 99 99 70
Width: 1228
Flags: W
LayerCount: 2
Fore
SplineSet
1182.4 175.8 m 2,0,-1
 1158.53 157.895 l 2,1,2
 1109.83 120.357 1109.83 120.357 1068.47 93.8036 c 128,-1,3
 1027.16 67.2891 1027.16 67.2891 957.325 29.8401 c 0,4,5
 883.766 -9.52983 883.766 -9.52983 798.954 -31.2497 c 128,-1,6
 714.023 -53 714.023 -53 627 -53 c 0,7,8
 471.994 -53 471.994 -53 348.666 12.8446 c 0,9,10
 223.802 79.9985 223.802 79.9985 156.471 192.567 c 1,11,12
 88 304.228 88 304.228 88 440 c 0,13,14
 88 529.702 88 529.702 122.793 615.101 c 0,15,16
 157.35 698.877 157.35 698.877 221.146 771.04 c 1,17,18
 287.634 843.858 287.634 843.858 396.664 888.113 c 1,19,20
 503.505 935 503.505 935 635 935 c 0,21,22
 719.359 935 719.359 935 799.783 912.022 c 1,23,24
 862.86 892.862 862.86 892.862 914.279 860.146 c 1,25,26
 916.156 870.928 916.156 870.928 918.316 883.884 c 2,27,-1
 923.306 914.822 l 2,28,29
 924.834 924.296 924.834 924.296 932.766 930.075 c 128,-1,30
 940.698 935.854 940.698 935.854 949.667 934.851 c 2,31,-1
 1110.67 916.851 l 2,32,33
 1120.89 915.708 1120.89 915.708 1127.02 907.205 c 128,-1,34
 1133.14 898.702 1133.14 898.702 1131.73 889.405 c 2,35,-1
 1126.75 856.539 l 1,36,37
 1110 737.346 1110 737.346 1110 676 c 0,38,39
 1110 622.22 1110 622.22 1114.92 544.962 c 1,40,-1
 1117.88 515.388 l 2,41,42
 1118.84 505.842 1118.84 505.842 1112.65 498.223 c 128,-1,43
 1106.47 490.605 1106.47 490.605 1097.57 489.267 c 2,44,-1
 944.568 466.267 l 2,45,46
 935.486 464.902 935.486 464.902 927.74 470.247 c 128,-1,47
 919.995 475.592 919.995 475.592 917.804 483.839 c 2,48,-1
 900.678 548.314 l 1,49,-1
 894.724 575.106 l 1,50,51
 877.605 634.609 877.605 634.609 837.596 668.096 c 0,52,53
 796.733 702.298 796.733 702.298 725.056 713.324 c 0,54,55
 687.858 720 687.858 720 645 720 c 0,56,57
 561.405 720 561.405 720 494.49 694.552 c 0,58,59
 430.587 670.473 430.587 670.473 393.267 631.331 c 0,60,61
 353.336 590.47 353.336 590.47 333.028 542.47 c 0,62,63
 312 494.929 312 494.929 312 444 c 0,64,65
 312 393.62 312 393.62 331.283 345.413 c 0,66,67
 350.777 296.682 350.777 296.682 388.036 253.834 c 0,68,69
 423.126 214.244 423.126 214.244 486.832 189.316 c 0,70,71
 552.623 163 552.623 163 637 163 c 0,72,73
 802.505 163 802.505 163 1038.24 326.667 c 1,74,-1
 1065.19 345.627 l 2,75,76
 1074.35 351.347 1074.35 351.347 1084.11 349.086 c 128,-1,77
 1093.87 346.824 1093.87 346.824 1098.85 339.487 c 2,78,-1
 1187.85 208.487 l 2,79,80
 1193.19 200.224 1193.19 200.224 1191.42 190.731 c 128,-1,81
 1189.65 181.239 1189.65 181.239 1182.4 175.8 c 2,0,-1
EndSplineSet
EndChar

StartChar: d
Encoding: 100 100 71
Width: 1228
Flags: W
LayerCount: 2
Fore
SplineSet
563 171 m 0,0,1
 682.941 171 682.941 171 768.089 245.968 c 0,2,3
 852 320.758 852 320.758 852 430 c 0,4,5
 852 476.466 852 476.466 833.73 523.051 c 0,6,7
 814.347 570.126 814.347 570.126 779.11 610.001 c 0,8,9
 744.66 648.077 744.66 648.077 688.871 672.516 c 128,-1,10
 632.98 697 632.98 697 563 697 c 0,11,12
 444.974 697 444.974 697 359.691 622.84 c 0,13,14
 276 550.972 276 550.972 276 436 c 0,15,16
 276 321.718 276 321.718 359.517 246.873 c 0,17,18
 444.182 171 444.182 171 563 171 c 0,0,1
1246 161 m 2,19,-1
 1246 0 l 2,20,21
 1246 -10 1246 -10 1239 -17 c 128,-1,22
 1232 -24 1232 -24 1222 -24 c 2,23,-1
 880 -24 l 2,24,25
 870 -24 870 -24 863 -17 c 128,-1,26
 856 -10 856 -10 856 0 c 2,27,-1
 856 49.7946 l 1,28,29
 732.75 -44 732.75 -44 563 -44 c 0,30,31
 349.415 -44 349.415 -44 201.497 96.5748 c 0,32,33
 52 237.65 52 237.65 52 434 c 0,34,35
 52 573.324 52 573.324 128.116 686.44 c 0,36,37
 203.67 797.67 203.67 797.67 319.222 855.444 c 0,38,39
 433.286 913 433.286 913 559 913 c 0,40,41
 669.425 913 669.425 913 779.252 860.7 c 0,42,43
 820.641 841.299 820.641 841.299 856 815.402 c 1,44,-1
 856 1081.4 l 1,45,-1
 555.543 1062.05 l 2,46,47
 545.341 1061.39 545.341 1061.39 537.967 1068.69 c 128,-1,48
 530.592 1075.99 530.592 1075.99 530.049 1084.46 c 2,49,-1
 520.049 1240.46 l 2,50,51
 519.432 1250.1 519.432 1250.1 525.888 1257.58 c 128,-1,52
 532.344 1265.05 532.344 1265.05 541.866 1265.9 c 2,53,-1
 1045.87 1310.9 l 2,54,55
 1056.66 1311.87 1056.66 1311.87 1064.33 1304.06 c 128,-1,56
 1072 1296.26 1072 1296.26 1072 1287 c 2,57,-1
 1072 185 l 1,58,-1
 1222 185 l 2,59,60
 1232 185 1232 185 1239 178 c 128,-1,61
 1246 171 1246 171 1246 161 c 2,19,-1
EndSplineSet
EndChar

StartChar: e
Encoding: 101 101 72
Width: 1228
Flags: W
LayerCount: 2
Fore
SplineSet
338.641 564 m 1,0,-1
 924.041 564 l 1,1,2
 920.693 572.948 920.693 572.948 916.426 581.483 c 0,3,4
 899.168 617.812 899.168 617.812 865.27 650.792 c 0,5,6
 833.08 682.089 833.08 682.089 774.984 702.378 c 0,7,8
 714.816 724 714.816 724 637 724 c 0,9,10
 569.579 724 569.579 724 514.055 707.06 c 0,11,12
 460.082 690.311 460.082 690.311 427.276 665.707 c 0,13,14
 392.911 640.63 392.911 640.63 367.901 608.208 c 0,15,16
 348.967 584.367 348.967 584.367 338.641 564 c 1,0,-1
1200.24 116.353 m 2,17,-1
 1172.92 100.167 l 1,18,19
 1065.72 40.9525 1065.72 40.9525 927.639 -5.75193 c 0,20,21
 785.897 -53 785.897 -53 649 -53 c 0,22,23
 517.956 -53 517.956 -53 410.447 -10.4272 c 1,24,25
 301.266 29.6905 301.266 29.6905 232.706 100.359 c 0,26,27
 166.501 169.717 166.501 169.717 131.283 255.923 c 128,-1,28
 96 342.288 96 342.288 96 440 c 0,29,30
 96 573.417 96 573.417 160.216 685.001 c 0,31,32
 225.582 797.809 225.582 797.809 351.473 867.051 c 0,33,34
 475.874 935 475.874 935 637 935 c 0,35,36
 758.648 935 758.648 935 859.816 894.323 c 1,37,38
 962.297 854.587 962.297 854.587 1026.9 791.037 c 0,39,40
 1090.12 727.827 1090.12 727.827 1123.93 651.747 c 0,41,42
 1158 575.091 1158 575.091 1158 496 c 2,43,-1
 1158 380 l 2,44,45
 1158 370 1158 370 1151 363 c 128,-1,46
 1144 356 1144 356 1134 356 c 2,47,-1
 328.645 356 l 1,48,49
 329.115 354.495 329.115 354.495 329.283 353.821 c 0,50,51
 336.309 325.716 336.309 325.716 360.239 288.901 c 0,52,53
 383.229 252.118 383.229 252.118 417.215 224.561 c 0,54,55
 448.763 198.421 448.763 198.421 509.378 178.838 c 0,56,57
 570.78 159 570.78 159 651 159 c 0,58,59
 810.3 159 810.3 159 1072.4 290.533 c 1,60,-1
 1101.57 304.613 l 2,61,62
 1110.37 308.766 1110.37 308.766 1119.65 305.611 c 128,-1,63
 1128.93 302.455 1128.93 302.455 1133.29 294.082 c 2,64,-1
 1209.29 148.082 l 2,65,66
 1213.58 139.177 1213.58 139.177 1210.73 130.029 c 128,-1,67
 1207.88 120.881 1207.88 120.881 1200.24 116.353 c 2,17,-1
EndSplineSet
EndChar

StartChar: f
Encoding: 102 102 73
Width: 1228
Flags: W
LayerCount: 2
Fore
SplineSet
1006 161 m 2,0,-1
 1006 0 l 2,1,2
 1006 -10 1006 -10 999 -17 c 128,-1,3
 992 -24 992 -24 982 -24 c 2,4,-1
 166 -24 l 2,5,6
 156 -24 156 -24 149 -17 c 128,-1,7
 142 -10 142 -10 142 0 c 2,8,-1
 142 161 l 2,9,10
 142 171 142 171 149 178 c 128,-1,11
 156 185 156 185 166 185 c 2,12,-1
 356 185 l 1,13,-1
 356 671 l 1,14,-1
 166 671 l 2,15,16
 156 671 156 671 149 678 c 128,-1,17
 142 685 142 685 142 695 c 2,18,-1
 142 856 l 2,19,20
 142 866 142 866 149 873 c 128,-1,21
 156 880 156 880 166 880 c 2,22,-1
 356 880 l 1,23,-1
 356 938 l 2,24,25
 356 1000.46 356 1000.46 361.173 1042.88 c 0,26,27
 376.446 1169.44 376.446 1169.44 469.128 1235.08 c 0,28,29
 559.362 1299 559.362 1299 708 1299 c 0,30,31
 887.192 1299 887.192 1299 1046.24 1269.62 c 1,32,-1
 1086.14 1262.64 l 2,33,34
 1097.42 1260.67 1097.42 1260.67 1102.96 1250.33 c 128,-1,35
 1108.49 1240 1108.49 1240 1104.09 1229.63 c 2,36,-1
 1034.09 1064.63 l 2,37,38
 1030.64 1056.48 1030.64 1056.48 1022.48 1052.54 c 128,-1,39
 1014.31 1048.61 1014.31 1048.61 1005.98 1050.77 c 2,40,-1
 979.178 1057.72 l 1,41,42
 845.067 1090.01 845.067 1090.01 716.715 1091 c 0,43,44
 602.72 1092.76 602.72 1092.76 581.998 1044.4 c 0,45,46
 571.928 1021.74 571.928 1021.74 570 978.506 c 1,47,-1
 570 880 l 1,48,-1
 982 880 l 2,49,50
 992 880 992 880 999 873 c 128,-1,51
 1006 866 1006 866 1006 856 c 2,52,-1
 1006 695 l 2,53,54
 1006 685 1006 685 999 678 c 128,-1,55
 992 671 992 671 982 671 c 2,56,-1
 570 671 l 1,57,-1
 570 185 l 1,58,-1
 982 185 l 2,59,60
 992 185 992 185 999 178 c 128,-1,61
 1006 171 1006 171 1006 161 c 2,0,-1
EndSplineSet
EndChar

StartChar: g
Encoding: 103 103 74
Width: 1228
Flags: W
LayerCount: 2
Fore
SplineSet
539 212 m 0,0,1
 656.409 212 656.409 212 731.507 283.435 c 0,2,3
 808 355.374 808 355.374 808 451 c 0,4,5
 808 559.999 808 559.999 729.277 627.867 c 0,6,7
 650.008 697 650.008 697 539 697 c 0,8,9
 428.705 697 428.705 697 344.371 626.568 c 0,10,11
 264 559.741 264 559.741 264 457 c 0,12,13
 264 355.711 264 355.711 343.527 284.364 c 0,14,15
 424.189 212 424.189 212 539 212 c 0,0,1
1024 695 m 1,16,-1
 1024 80 l 2,17,18
 1024 -19.1118 1024 -19.1118 998.701 -90.7909 c 1,19,20
 971.906 -171.177 971.906 -171.177 909.675 -231.261 c 0,21,22
 846.144 -292.639 846.144 -292.639 740.048 -320.225 c 0,23,24
 641.076 -346 641.076 -346 498 -346 c 2,25,-1
 336 -346 l 2,26,27
 326 -346 326 -346 319 -339 c 128,-1,28
 312 -332 312 -332 312 -322 c 2,29,-1
 312 -160 l 2,30,31
 312 -150 312 -150 319 -143 c 128,-1,32
 326 -136 326 -136 336 -136 c 2,33,-1
 369 -136 l 2,34,35
 473.105 -136 473.105 -136 525.306 -135.009 c 1,36,37
 575.633 -132.99 575.633 -132.99 640.044 -125.183 c 0,38,39
 697.765 -117.853 697.765 -117.853 719.045 -106.187 c 0,40,41
 743.72 -91.426 743.72 -91.426 770.178 -65.8807 c 0,42,43
 790.113 -45.9449 790.113 -45.9449 797.634 -12.5136 c 0,44,45
 807.07 26.0924 807.07 26.0924 807.93 83.5734 c 1,46,47
 798.409 76.7616 798.409 76.7616 788.417 70.1002 c 0,48,49
 741.592 38.1741 741.592 38.1741 674.71 17.1086 c 128,-1,50
 607.691 -4 607.691 -4 535 -4 c 0,51,52
 397.742 -4 397.742 -4 283.352 60.0158 c 0,53,54
 168.859 123.04 168.859 123.04 104.539 227.956 c 0,55,56
 40 333.229 40 333.229 40 455 c 0,57,58
 40 584.237 40 584.237 111 691.267 c 0,59,60
 181.49 797.526 181.49 797.526 295.109 855.386 c 0,61,62
 408.244 913 408.244 913 535 913 c 0,63,64
 548.853 913 548.853 913 563.71 911.939 c 128,-1,65
 578.4 910.89 578.4 910.89 609.936 906.82 c 0,66,67
 646.139 902.562 646.139 902.562 682.709 890.731 c 0,68,69
 715.283 879.172 715.283 879.172 753.282 860.688 c 0,70,71
 780.884 847.948 780.884 847.948 808 828.353 c 1,72,-1
 808 881 l 2,73,74
 808 891 808 891 815 898 c 128,-1,75
 822 905 822 905 832 905 c 2,76,-1
 1166 905 l 2,77,78
 1176 905 1176 905 1183 898 c 128,-1,79
 1190 891 1190 891 1190 881 c 2,80,-1
 1190 719 l 2,81,82
 1190 709 1190 709 1183 702 c 128,-1,83
 1176 695 1176 695 1166 695 c 2,84,-1
 1024 695 l 1,16,-1
EndSplineSet
EndChar

StartChar: h
Encoding: 104 104 75
Width: 1228
Flags: W
LayerCount: 2
Fore
SplineSet
1234 161 m 2,0,-1
 1234 0 l 2,1,2
 1234 -10 1234 -10 1227 -17 c 128,-1,3
 1220 -24 1220 -24 1210 -24 c 2,4,-1
 696 -24 l 2,5,6
 686 -24 686 -24 679 -17 c 128,-1,7
 672 -10 672 -10 672 0 c 2,8,-1
 672 161 l 2,9,10
 672 171 672 171 679 178 c 128,-1,11
 686 185 686 185 696 185 c 2,12,-1
 846 185 l 1,13,-1
 846 554 l 2,14,15
 846 633.562 846 633.562 806.991 679.136 c 1,16,17
 769.848 720 769.848 720 707 720 c 0,18,19
 580.745 720 580.745 720 408 599.567 c 1,20,-1
 408 185 l 1,21,-1
 546 185 l 2,22,23
 556 185 556 185 563 178 c 128,-1,24
 570 171 570 171 570 161 c 2,25,-1
 570 0 l 2,26,27
 570 -10 570 -10 563 -17 c 128,-1,28
 556 -24 556 -24 546 -24 c 2,29,-1
 46 -24 l 2,30,31
 36 -24 36 -24 29 -17 c 128,-1,32
 22 -10 22 -10 22 0 c 2,33,-1
 22 161 l 2,34,35
 22 171 22 171 29 178 c 128,-1,36
 36 185 36 185 46 185 c 2,37,-1
 194 185 l 1,38,-1
 194 1089.74 l 1,39,-1
 31.1501 1075.1 l 2,40,41
 20.9507 1074.18 20.9507 1074.18 13.3621 1081.29 c 128,-1,42
 5.77355 1088.4 5.77355 1088.4 5.0769 1097.08 c 2,43,-1
 -7.9231 1259.08 l 2,44,45
 -8.71939 1269 -8.71939 1269 -1.9539 1276.59 c 128,-1,46
 4.81159 1284.17 4.81159 1284.17 14.0604 1284.92 c 2,47,-1
 347.06 1311.92 l 2,48,49
 348.028 1312 348.028 1312 349 1312 c 0,50,51
 353.996 1312 353.996 1312 365.007 1312.92 c 128,-1,52
 376.024 1313.83 376.024 1313.83 381.054 1314.67 c 0,53,54
 392.332 1316.55 392.332 1316.55 400.676 1308.65 c 128,-1,55
 409.02 1300.74 409.02 1300.74 409 1290.95 c 2,56,-1
 408.091 841.184 l 1,57,58
 415.493 846.034 415.493 846.034 422.221 850.315 c 0,59,60
 469.511 879.741 469.511 879.741 544.912 906.596 c 0,61,62
 623.803 935 623.803 935 702 935 c 0,63,64
 865.243 935 865.243 935 964.332 831.602 c 0,65,66
 1062 729.633 1062 729.633 1062 570 c 2,67,-1
 1062 185 l 1,68,-1
 1210 185 l 2,69,70
 1220 185 1220 185 1227 178 c 128,-1,71
 1234 171 1234 171 1234 161 c 2,0,-1
EndSplineSet
EndChar

StartChar: i
Encoding: 105 105 76
Width: 1228
Flags: W
LayerCount: 2
Fore
SplineSet
726 1343 m 2,0,-1
 726 1035 l 2,1,2
 726 1025 726 1025 719 1018 c 128,-1,3
 712 1011 712 1011 702 1011 c 2,4,-1
 490 1011 l 2,5,6
 480 1011 480 1011 473 1018 c 128,-1,7
 466 1025 466 1025 466 1035 c 2,8,-1
 466 1343 l 2,9,10
 466 1353 466 1353 473 1360 c 128,-1,11
 480 1367 480 1367 490 1367 c 2,12,-1
 702 1367 l 2,13,14
 712 1367 712 1367 719 1360 c 128,-1,15
 726 1353 726 1353 726 1343 c 2,0,-1
1080 161 m 2,16,-1
 1080 0 l 2,17,18
 1080 -10 1080 -10 1073 -17 c 128,-1,19
 1066 -24 1066 -24 1056 -24 c 2,20,-1
 174 -24 l 2,21,22
 164 -24 164 -24 157 -17 c 128,-1,23
 150 -10 150 -10 150 0 c 2,24,-1
 150 161 l 2,25,26
 150 171 150 171 157 178 c 128,-1,27
 164 185 164 185 174 185 c 2,28,-1
 510 185 l 1,29,-1
 510 695 l 1,30,-1
 234 695 l 2,31,32
 224 695 224 695 217 702 c 128,-1,33
 210 709 210 709 210 719 c 2,34,-1
 210 881 l 2,35,36
 210 891 210 891 217 898 c 128,-1,37
 224 905 224 905 234 905 c 2,38,-1
 702 905 l 2,39,40
 712 905 712 905 719 898 c 128,-1,41
 726 891 726 891 726 881 c 2,42,-1
 726 185 l 1,43,-1
 1056 185 l 2,44,45
 1066 185 1066 185 1073 178 c 128,-1,46
 1080 171 1080 171 1080 161 c 2,16,-1
EndSplineSet
EndChar

StartChar: j
Encoding: 106 106 77
Width: 1228
Flags: W
LayerCount: 2
Fore
SplineSet
814 1343 m 2,0,-1
 814 1035 l 2,1,2
 814 1025 814 1025 807 1018 c 128,-1,3
 800 1011 800 1011 790 1011 c 2,4,-1
 578 1011 l 2,5,6
 568 1011 568 1011 561 1018 c 128,-1,7
 554 1025 554 1025 554 1035 c 2,8,-1
 554 1343 l 2,9,10
 554 1353 554 1353 561 1360 c 128,-1,11
 568 1367 568 1367 578 1367 c 2,12,-1
 790 1367 l 2,13,14
 800 1367 800 1367 807 1360 c 128,-1,15
 814 1353 814 1353 814 1343 c 2,0,-1
856 881 m 2,16,-1
 856 104 l 2,17,18
 856 75.0677 856 75.0677 852.932 36.1875 c 0,19,20
 849.76 -7.14654 849.76 -7.14654 837.188 -52.1943 c 1,21,22
 824.539 -101.738 824.539 -101.738 799.09 -149.456 c 0,23,24
 771.042 -200.157 771.042 -200.157 721.641 -241.21 c 1,25,26
 670.365 -286.686 670.365 -286.686 593.808 -309.014 c 0,27,28
 520.759 -330.93 520.759 -330.93 416.238 -333 c 1,29,30
 306.56 -333 306.56 -333 128.449 -296.566 c 1,31,-1
 95.7067 -290.613 l 2,32,33
 85.565 -288.769 85.565 -288.769 79.9946 -279.855 c 128,-1,34
 74.4242 -270.941 74.4242 -270.941 76.6342 -261.519 c 2,35,-1
 114.634 -99.5191 l 2,36,37
 116.904 -89.8413 116.904 -89.8413 125.656 -84.7129 c 128,-1,38
 134.407 -79.5845 134.407 -79.5845 143.286 -81.5894 c 2,39,-1
 174.228 -88.5763 l 2,40,41
 241.023 -103.311 241.023 -103.311 302.359 -110.671 c 0,42,43
 363.434 -118 363.434 -118 422 -118 c 0,44,45
 482.902 -118 482.902 -118 522.66 -106.146 c 1,46,47
 559.533 -93.4106 559.533 -93.4106 581.965 -75.2932 c 0,48,49
 602.891 -58.5524 602.891 -58.5524 613.612 -37.1098 c 0,50,51
 626.132 -12.9653 626.132 -12.9653 631.559 14.1707 c 1,52,53
 638.106 41.2984 638.106 41.2984 639.016 65.878 c 0,54,55
 640 94.3944 640 94.3944 640 118 c 2,56,-1
 640 695 l 1,57,-1
 142 695 l 2,58,59
 132 695 132 695 125 702 c 128,-1,60
 118 709 118 709 118 719 c 2,61,-1
 118 881 l 2,62,63
 118 891 118 891 125 898 c 128,-1,64
 132 905 132 905 142 905 c 2,65,-1
 832 905 l 2,66,67
 842 905 842 905 849 898 c 128,-1,68
 856 891 856 891 856 881 c 2,16,-1
EndSplineSet
EndChar

StartChar: k
Encoding: 107 107 78
Width: 1228
Flags: W
LayerCount: 2
Fore
SplineSet
1210 161 m 2,0,-1
 1210 0 l 2,1,2
 1210 -10 1210 -10 1203 -17 c 128,-1,3
 1196 -24 1196 -24 1186 -24 c 2,4,-1
 694 -24 l 2,5,6
 684 -24 684 -24 677 -17 c 128,-1,7
 670 -10 670 -10 670 0 c 2,8,-1
 670 161 l 2,9,10
 670 171 670 171 677 178 c 128,-1,11
 684 185 684 185 694 185 c 2,12,-1
 731.109 185 l 1,13,14
 638.668 283.037 638.668 283.037 501.574 411.486 c 1,15,-1
 436.969 361.237 l 1,16,-1
 436 -0.0643429 l 2,17,18
 435.973 -10.0159 435.973 -10.0159 428.604 -17.0079 c 128,-1,19
 421.235 -24 421.235 -24 412 -24 c 2,20,-1
 74 -24 l 2,21,22
 64 -24 64 -24 57 -17 c 128,-1,23
 50 -10 50 -10 50 0 c 2,24,-1
 50 161 l 2,25,26
 50 171 50 171 57 178 c 128,-1,27
 64 185 64 185 74 185 c 2,28,-1
 220 185 l 1,29,-1
 220 1087.78 l 1,30,-1
 54.1167 1073.09 l 2,31,32
 43.9187 1072.19 43.9187 1072.19 36.3448 1079.31 c 128,-1,33
 28.7709 1086.43 28.7709 1086.43 28.0769 1095.08 c 2,34,-1
 15.0769 1257.08 l 2,35,36
 14.3442 1266.21 14.3442 1266.21 20.2049 1273.55 c 128,-1,37
 26.0656 1280.89 26.0656 1280.89 34.2932 1282.53 c 0,38,39
 41.0817 1283.89 41.0817 1283.89 53.9102 1284.48 c 0,40,41
 63.0873 1284.89 63.0873 1284.89 66.2932 1285.53 c 0,42,43
 67.6176 1285.8 67.6176 1285.8 68.9663 1285.91 c 2,44,-1
 409.966 1314.91 l 2,45,46
 420.755 1315.83 420.755 1315.83 428.378 1308 c 128,-1,47
 436 1300.16 436 1300.16 436 1291 c 2,48,-1
 436 539.532 l 1,49,-1
 632.881 695 l 1,50,-1
 614 695 l 2,51,52
 604 695 604 695 597 702 c 128,-1,53
 590 709 590 709 590 719 c 2,54,-1
 590 881 l 2,55,56
 590 891 590 891 597 898 c 128,-1,57
 604 905 604 905 614 905 c 2,58,-1
 1108 905 l 2,59,60
 1118 905 1118 905 1125 898 c 128,-1,61
 1132 891 1132 891 1132 881 c 2,62,-1
 1132 719 l 2,63,64
 1132 709 1132 709 1125 702 c 128,-1,65
 1118 695 1118 695 1108 695 c 2,66,-1
 876.438 695 l 1,67,-1
 652.882 515.625 l 1,68,69
 753.286 431.216 753.286 431.216 845.377 344.545 c 1,70,71
 947.584 249.908 947.584 249.908 1007.56 185 c 1,72,-1
 1186 185 l 2,73,74
 1196 185 1196 185 1203 178 c 128,-1,75
 1210 171 1210 171 1210 161 c 2,0,-1
EndSplineSet
EndChar

StartChar: l
Encoding: 108 108 79
Width: 1228
Flags: W
LayerCount: 2
Fore
SplineSet
1078 161 m 2,0,-1
 1078 0 l 2,1,2
 1078 -10 1078 -10 1071 -17 c 128,-1,3
 1064 -24 1064 -24 1054 -24 c 2,4,-1
 174 -24 l 2,5,6
 164 -24 164 -24 157 -17 c 128,-1,7
 150 -10 150 -10 150 0 c 2,8,-1
 150 161 l 2,9,10
 150 171 150 171 157 178 c 128,-1,11
 164 185 164 185 174 185 c 2,12,-1
 506 185 l 1,13,-1
 506 1059.19 l 1,14,-1
 201.741 1037.06 l 2,15,16
 192.131 1036.36 192.131 1036.36 184.628 1042.76 c 128,-1,17
 177.124 1049.15 177.124 1049.15 176.134 1058.46 c 2,18,-1
 159.134 1218.46 l 2,19,20
 158.046 1228.7 158.046 1228.7 165.03 1236.53 c 128,-1,21
 172.013 1244.36 172.013 1244.36 181.512 1244.95 c 2,22,-1
 696.512 1276.95 l 2,23,24
 706.816 1277.59 706.816 1277.59 714.408 1270.27 c 128,-1,25
 722 1262.95 722 1262.95 722 1253 c 2,26,-1
 722 185 l 1,27,-1
 1054 185 l 2,28,29
 1064 185 1064 185 1071 178 c 128,-1,30
 1078 171 1078 171 1078 161 c 2,0,-1
EndSplineSet
EndChar

StartChar: m
Encoding: 109 109 80
Width: 1228
Flags: W
LayerCount: 2
Fore
SplineSet
1285 161 m 2,0,-1
 1285 0 l 2,1,2
 1285 -10 1285 -10 1278 -17 c 128,-1,3
 1271 -24 1271 -24 1261 -24 c 2,4,-1
 977 -24 l 2,5,6
 967 -24 967 -24 960 -17 c 128,-1,7
 953 -10 953 -10 953 0 c 2,8,-1
 953 584 l 2,9,10
 953 616.956 953 616.956 950.592 644.403 c 0,11,12
 948.439 668.942 948.439 668.942 940.548 686.8 c 0,13,14
 934.027 701.556 934.027 701.556 920.28 710.148 c 0,15,16
 905.792 719.204 905.792 719.204 876.627 720.982 c 1,17,18
 805.172 718.494 805.172 718.494 733 623.999 c 1,19,-1
 733 185 l 1,20,-1
 837 185 l 2,21,22
 847 185 847 185 854 178 c 128,-1,23
 861 171 861 171 861 161 c 2,24,-1
 861 0 l 2,25,26
 861 -10 861 -10 854 -17 c 128,-1,27
 847 -24 847 -24 837 -24 c 2,28,-1
 541 -24 l 2,29,30
 531 -24 531 -24 524 -17 c 128,-1,31
 517 -10 517 -10 517 0 c 2,32,-1
 517 542 l 2,33,34
 517 593.27 517 593.27 515.043 626.07 c 0,35,36
 513.242 656.24 513.242 656.24 506.839 674.595 c 0,37,38
 501.302 690.467 501.302 690.467 491.669 699.413 c 0,39,40
 480.761 709.542 480.761 709.542 460.701 718.86 c 0,41,42
 452.268 722 452.268 722 448 722 c 2,43,-1
 437.739 722 l 2,44,45
 423.468 721.063 423.468 721.063 406.364 716.359 c 0,46,47
 388.738 711.512 388.738 711.512 369.431 701.634 c 128,-1,48
 350.184 691.786 350.184 691.786 330.651 675.887 c 0,49,50
 314.348 662.617 314.348 662.617 299 643.726 c 1,51,-1
 299 185 l 1,52,-1
 415 185 l 2,53,54
 425 185 425 185 432 178 c 128,-1,55
 439 171 439 171 439 161 c 2,56,-1
 439 0 l 2,57,58
 439 -10 439 -10 432 -17 c 128,-1,59
 425 -24 425 -24 415 -24 c 2,60,-1
 -31 -24 l 2,61,62
 -41 -24 -41 -24 -48 -17 c 128,-1,63
 -55 -10 -55 -10 -55 0 c 2,64,-1
 -55 161 l 2,65,66
 -55 171 -55 171 -48 178 c 128,-1,67
 -41 185 -41 185 -31 185 c 2,68,-1
 83 185 l 1,69,-1
 83 695 l 1,70,-1
 -31 695 l 2,71,72
 -41 695 -41 695 -48 702 c 128,-1,73
 -55 709 -55 709 -55 719 c 2,74,-1
 -55 881 l 2,75,76
 -55 891 -55 891 -48 898 c 128,-1,77
 -41 905 -41 905 -31 905 c 2,78,-1
 267 905 l 2,79,80
 284.437 905 284.437 905 290.121 887.507 c 1,81,82
 311.745 899.614 311.745 899.614 335.224 908.838 c 0,83,84
 381.454 927 381.454 927 429 927 c 0,85,86
 498.226 927 498.226 927 560.974 898.329 c 0,87,88
 612.41 874.827 612.41 874.827 650.448 831.456 c 1,89,90
 756.527 927 756.527 927 875 927 c 0,91,92
 921.419 927 921.419 927 967.544 909.428 c 0,93,94
 1012.67 892.235 1012.67 892.235 1050.86 863.732 c 0,95,96
 1089.26 835.066 1089.26 835.066 1116.9 797.133 c 0,97,98
 1145.28 758.173 1145.28 758.173 1155.46 714.052 c 0,99,100
 1160.81 687.331 1160.81 687.331 1163.93 647.889 c 0,101,102
 1167 608.962 1167 608.962 1167 554 c 2,103,-1
 1167 185 l 1,104,-1
 1261 185 l 2,105,106
 1271 185 1271 185 1278 178 c 128,-1,107
 1285 171 1285 171 1285 161 c 2,0,-1
EndSplineSet
EndChar

StartChar: n
Encoding: 110 110 81
Width: 1228
Flags: W
LayerCount: 2
Fore
SplineSet
1218 161 m 2,0,-1
 1218 0 l 2,1,2
 1218 -10 1218 -10 1211 -17 c 128,-1,3
 1204 -24 1204 -24 1194 -24 c 2,4,-1
 686 -24 l 2,5,6
 676 -24 676 -24 669 -17 c 128,-1,7
 662 -10 662 -10 662 0 c 2,8,-1
 662 161 l 2,9,10
 662 171 662 171 669 178 c 128,-1,11
 676 185 676 185 686 185 c 2,12,-1
 838 185 l 1,13,-1
 838 554 l 2,14,15
 838 634.627 838 634.627 797.352 678.735 c 0,16,17
 759.455 720 759.455 720 694 720 c 0,18,19
 574.989 720 574.989 720 396 598.362 c 1,20,-1
 396 185 l 1,21,-1
 544 185 l 2,22,23
 554 185 554 185 561 178 c 128,-1,24
 568 171 568 171 568 161 c 2,25,-1
 568 0 l 2,26,27
 568 -10 568 -10 561 -17 c 128,-1,28
 554 -24 554 -24 544 -24 c 2,29,-1
 38 -24 l 2,30,31
 28 -24 28 -24 21 -17 c 128,-1,32
 14 -10 14 -10 14 0 c 2,33,-1
 14 161 l 2,34,35
 14 171 14 171 21 178 c 128,-1,36
 28 185 28 185 38 185 c 2,37,-1
 182 185 l 1,38,-1
 182 695 l 1,39,-1
 38 695 l 2,40,41
 28 695 28 695 21 702 c 128,-1,42
 14 709 14 709 14 719 c 2,43,-1
 14 881 l 2,44,45
 14 891 14 891 21 898 c 128,-1,46
 28 905 28 905 38 905 c 2,47,-1
 372 905 l 2,48,49
 382 905 382 905 389 898 c 128,-1,50
 396 891 396 891 396 881 c 2,51,-1
 396 839.135 l 1,52,53
 421.93 855.06 421.93 855.06 463.712 877.18 c 0,54,55
 520.321 907.582 520.321 907.582 576.283 921.309 c 128,-1,56
 632.099 935 632.099 935 692 935 c 0,57,58
 855.167 935 855.167 935 955.241 831.696 c 0,59,60
 1054 729.714 1054 729.714 1054 570 c 2,61,-1
 1054 185 l 1,62,-1
 1194 185 l 2,63,64
 1204 185 1204 185 1211 178 c 128,-1,65
 1218 171 1218 171 1218 161 c 2,0,-1
EndSplineSet
EndChar

StartChar: o
Encoding: 111 111 82
Width: 1228
Flags: W
LayerCount: 2
Fore
SplineSet
614 163 m 0,0,1
 698.745 163 698.745 163 765.697 187.518 c 0,2,3
 830.866 211.724 830.866 211.724 871.226 251.164 c 0,4,5
 911.873 290.887 911.873 290.887 934.003 341.599 c 0,6,7
 956 392.006 956 392.006 956 446.5 c 128,-1,8
 956 500.993 956 500.993 934.003 551.401 c 0,9,10
 911.874 602.114 911.874 602.114 871.226 641.836 c 0,11,12
 830.866 681.275 830.866 681.275 765.688 705.485 c 0,13,14
 698.744 730 698.744 730 614 730 c 0,15,16
 531.152 730 531.152 730 465.216 706.45 c 0,17,18
 399.991 682.222 399.991 682.222 359.675 643.738 c 0,19,20
 318.123 603.111 318.123 603.111 295.997 552.401 c 0,21,22
 274 501.989 274 501.989 274 446 c 0,23,24
 274 391.009 274 391.009 295.997 340.599 c 0,25,26
 318.123 289.892 318.123 289.892 358.774 250.164 c 0,27,28
 399.018 210.835 399.018 210.835 464.214 187.551 c 0,29,30
 530.313 163 530.313 163 614 163 c 0,0,1
1156.97 300.035 m 0,31,32
 1134.73 228.037 1134.73 228.037 1087.39 163.858 c 0,33,34
 1041.17 99.7691 1041.17 99.7691 974.98 52.4921 c 0,35,36
 908.031 4.37218 908.031 4.37218 814.047 -22.9459 c 1,37,38
 721.26 -53 721.26 -53 614 -53 c 0,39,40
 482.933 -53 482.933 -53 373.369 -9.39693 c 1,41,42
 263.392 31.6673 263.392 31.6673 192.966 102.093 c 0,43,44
 123.636 172.473 123.636 172.473 86.8462 260.769 c 128,-1,45
 50 349.199 50 349.199 50 446 c 0,46,47
 50 543.798 50 543.798 86.8462 632.231 c 128,-1,48
 123.634 720.525 123.634 720.525 192.969 790.91 c 0,49,50
 263.395 861.335 263.395 861.335 373.369 902.397 c 1,51,52
 482.939 946 482.939 946 614 946 c 0,53,54
 748.72 946 748.72 946 857.878 901.299 c 1,55,56
 968.652 858.457 968.652 858.457 1038.29 785.649 c 0,57,58
 1106.46 715.38 1106.46 715.38 1142.21 628.098 c 128,-1,59
 1178 540.718 1178 540.718 1178 446 c 0,60,61
 1178 370.5 1178 370.5 1156.97 300.035 c 0,31,32
EndSplineSet
EndChar

StartChar: p
Encoding: 112 112 83
Width: 1228
Flags: W
LayerCount: 2
Fore
SplineSet
666 177 m 0,0,1
 783.683 177 783.683 177 869.8 255.707 c 128,-1,2
 956 334.573 956 334.573 956 451 c 0,3,4
 956 499.36 956 499.36 937.232 546.049 c 0,5,6
 918.274 593.208 918.274 593.208 883.1 633.013 c 0,7,8
 849.792 669.919 849.792 669.919 794.769 692.846 c 0,9,10
 739.203 716 739.203 716 668 716 c 0,11,12
 533.087 716 533.087 716 444.898 638.02 c 0,13,14
 358 561.183 358 561.183 358 454 c 0,15,16
 358 400.62 358 400.62 376.253 354.989 c 0,17,18
 394.46 310.383 394.46 310.383 425.215 278.723 c 0,19,20
 456.829 246.178 456.829 246.178 497.856 222.867 c 0,21,22
 539.11 199.427 539.11 199.427 582.058 188.223 c 128,-1,23
 625.077 177 625.077 177 666 177 c 0,0,1
670 -160 m 2,24,-1
 670 -322 l 2,25,26
 670 -332 670 -332 663 -339 c 128,-1,27
 656 -346 656 -346 646 -346 c 2,28,-1
 6 -346 l 2,29,30
 -4 -346 -4 -346 -11 -339 c 128,-1,31
 -18 -332 -18 -332 -18 -322 c 2,32,-1
 -18 -160 l 2,33,34
 -18 -150 -18 -150 -11 -143 c 128,-1,35
 -4 -136 -4 -136 6 -136 c 2,36,-1
 150 -136 l 1,37,-1
 150 695 l 1,38,-1
 6 695 l 2,39,40
 -4 695 -4 695 -11 702 c 128,-1,41
 -18 709 -18 709 -18 719 c 2,42,-1
 -18 881 l 2,43,44
 -18 891 -18 891 -11 898 c 128,-1,45
 -4 905 -4 905 6 905 c 2,46,-1
 342 905 l 2,47,48
 352 905 352 905 359 898 c 128,-1,49
 366 891 366 891 366 881 c 2,50,-1
 366 836.171 l 1,51,52
 490.588 931 490.588 931 666 931 c 0,53,54
 815.482 931 815.482 931 936.065 860.747 c 0,55,56
 1055.69 791.492 1055.69 791.492 1116.91 682.776 c 0,57,58
 1178 574.307 1178 574.307 1178 450 c 0,59,60
 1178 345.523 1178 345.523 1133.63 253.607 c 0,61,62
 1089.5 161.158 1089.5 161.158 1016.73 97.8723 c 0,63,64
 946.024 36.5253 946.024 36.5253 856.113 0.794862 c 1,65,66
 764.375 -38 764.375 -38 670 -38 c 0,67,68
 649.368 -38 649.368 -38 629.769 -36.9684 c 0,69,70
 607.83 -35.8715 607.83 -35.8715 559.952 -25.4631 c 0,71,72
 510.602 -14.963 510.602 -14.963 467.449 3.98205 c 0,73,74
 423.044 23.0126 423.044 23.0126 368.646 62.7643 c 0,75,76
 367.63 63.5379 367.63 63.5379 366 64.7882 c 1,77,-1
 366 -136 l 1,78,-1
 646 -136 l 2,79,80
 656 -136 656 -136 663 -143 c 128,-1,81
 670 -150 670 -150 670 -160 c 2,24,-1
EndSplineSet
EndChar

StartChar: q
Encoding: 113 113 84
Width: 1228
Flags: W
LayerCount: 2
Fore
SplineSet
730.147 221.869 m 0,0,1
 772.11 246.115 772.11 246.115 803.785 278.723 c 0,2,3
 834.542 310.385 834.542 310.385 852.826 355.182 c 0,4,5
 872 400.839 872 400.839 872 454 c 0,6,7
 872 561.108 872 561.108 784.146 637.982 c 0,8,9
 695.913 716 695.913 716 561 716 c 0,10,11
 489.795 716 489.795 716 434.231 692.846 c 0,12,13
 379.204 669.916 379.204 669.916 345.9 633.013 c 0,14,15
 310.794 593.287 310.794 593.287 292.343 546.238 c 0,16,17
 274 499.462 274 499.462 274 451 c 0,18,19
 274 334.495 274 334.495 359.243 255.669 c 0,20,21
 445.313 177 445.313 177 563 177 c 0,22,23
 603.923 177 603.923 177 646.942 188.223 c 128,-1,24
 689.982 199.451 689.982 199.451 730.147 221.869 c 0,0,1
1246 -160 m 2,25,-1
 1246 -322 l 2,26,27
 1246 -332 1246 -332 1239 -339 c 128,-1,28
 1232 -346 1232 -346 1222 -346 c 2,29,-1
 582 -346 l 2,30,31
 572 -346 572 -346 565 -339 c 128,-1,32
 558 -332 558 -332 558 -322 c 2,33,-1
 558 -160 l 2,34,35
 558 -150 558 -150 565 -143 c 128,-1,36
 572 -136 572 -136 582 -136 c 2,37,-1
 864 -136 l 1,38,-1
 864 66.1853 l 1,39,40
 861.213 64.1154 861.213 64.1154 859.132 62.6022 c 0,41,42
 805.048 23.0783 805.048 23.0783 761.648 4.02454 c 128,-1,43
 718.398 -14.963 718.398 -14.963 669.048 -25.4631 c 0,44,45
 621.17 -35.8715 621.17 -35.8715 599.231 -36.9684 c 0,46,47
 579.632 -38 579.632 -38 559 -38 c 0,48,49
 433.129 -38 433.129 -38 317.421 22.21 c 0,50,51
 201.452 82.5558 201.452 82.5558 126.031 195.687 c 0,52,53
 50 309.732 50 309.732 50 449 c 0,54,55
 50 573.294 50 573.294 111.106 681.808 c 0,56,57
 173.334 791.504 173.334 791.504 292.935 860.747 c 0,58,59
 413.514 931 413.514 931 563 931 c 0,60,61
 738.5 931 738.5 931 864 835.235 c 1,62,-1
 864 881 l 2,63,64
 864 891 864 891 871 898 c 128,-1,65
 878 905 878 905 888 905 c 2,66,-1
 1222 905 l 2,67,68
 1232 905 1232 905 1239 898 c 128,-1,69
 1246 891 1246 891 1246 881 c 2,70,-1
 1246 719 l 2,71,72
 1246 709 1246 709 1239 702 c 128,-1,73
 1232 695 1232 695 1222 695 c 2,74,-1
 1078 695 l 1,75,-1
 1078 -136 l 1,76,-1
 1222 -136 l 2,77,78
 1232 -136 1232 -136 1239 -143 c 128,-1,79
 1246 -150 1246 -150 1246 -160 c 2,25,-1
EndSplineSet
EndChar

StartChar: r
Encoding: 114 114 85
Width: 1228
Flags: W
LayerCount: 2
Fore
SplineSet
956 161 m 2,0,-1
 956 0 l 2,1,2
 956 -10 956 -10 949 -17 c 128,-1,3
 942 -24 942 -24 932 -24 c 2,4,-1
 122 -24 l 2,5,6
 112 -24 112 -24 105 -17 c 128,-1,7
 98 -10 98 -10 98 0 c 2,8,-1
 98 161 l 2,9,10
 98 171 98 171 105 178 c 128,-1,11
 112 185 112 185 122 185 c 2,12,-1
 352 185 l 1,13,-1
 352 695 l 1,14,-1
 138 695 l 2,15,16
 128 695 128 695 121 702 c 128,-1,17
 114 709 114 709 114 719 c 2,18,-1
 114 881 l 2,19,20
 114 891 114 891 121 898 c 128,-1,21
 128 905 128 905 138 905 c 2,22,-1
 542 905 l 2,23,24
 552 905 552 905 559 898 c 128,-1,25
 566 891 566 891 566 881 c 2,26,-1
 566 773.651 l 1,27,28
 581.56 787.729 581.56 787.729 606.1 806.816 c 0,29,30
 637.994 832.535 637.994 832.535 672.171 854.283 c 0,31,32
 708.882 877.359 708.882 877.359 748.547 894.061 c 0,33,34
 789.358 911.851 789.358 911.851 833.562 922.376 c 0,35,36
 880.309 933 880.309 933 934 933 c 0,37,38
 986.11 933 986.11 933 1027.11 922.21 c 0,39,40
 1067.7 911.526 1067.7 911.526 1101.53 892.055 c 1,41,42
 1135 874.639 1135 874.639 1160.77 852.093 c 0,43,44
 1184.59 831.382 1184.59 831.382 1205.54 809.385 c 2,45,-1
 1227.69 785.217 l 2,46,47
 1235.03 777.013 1235.03 777.013 1233.64 766.072 c 128,-1,48
 1232.25 755.13 1232.25 755.13 1223.54 749.181 c 2,49,-1
 1059.54 637.181 l 2,50,51
 1050.14 631.649 1050.14 631.649 1040.54 634.048 c 128,-1,52
 1030.94 636.447 1030.94 636.447 1026.14 643.524 c 2,53,-1
 1006.99 671.74 l 2,54,55
 996.45 688.036 996.45 688.036 985.961 701.385 c 0,56,57
 979.267 710.311 979.267 710.311 970.687 716.031 c 0,58,59
 961.761 721.982 961.761 721.982 949.809 725.452 c 128,-1,60
 937.925 728.902 937.925 728.902 918.295 729.001 c 0,61,62
 877.638 727.946 877.638 727.946 841.499 716.201 c 0,63,64
 801.553 702.886 801.553 702.886 764.378 682.869 c 128,-1,65
 727.066 662.777 727.066 662.777 694.62 637.967 c 0,66,67
 660.784 611.867 660.784 611.867 632.346 586.421 c 1,68,69
 604.545 559.604 604.545 559.604 583.971 539.029 c 2,70,-1
 566 521.059 l 1,71,-1
 566 185 l 1,72,-1
 932 185 l 2,73,74
 942 185 942 185 949 178 c 128,-1,75
 956 171 956 171 956 161 c 2,0,-1
EndSplineSet
EndChar

StartChar: s
Encoding: 115 115 86
Width: 1228
Flags: W
LayerCount: 2
Fore
SplineSet
338.19 385.195 m 1,0,-1
 344.393 360.384 l 2,1,2
 348.569 340.549 348.569 340.549 352.677 316.928 c 0,3,4
 355.177 301.097 355.177 301.097 364.737 280.675 c 0,5,6
 374.552 259.706 374.552 259.706 391.858 237.845 c 0,7,8
 407.275 218.145 407.275 218.145 434.067 200.132 c 1,9,10
 461.13 183.184 461.13 183.184 503.822 172.283 c 0,11,12
 549.895 161 549.895 161 618 161 c 0,13,14
 640.842 161 640.842 161 671.071 163.925 c 0,15,16
 701.007 165.857 701.007 165.857 731.435 171.562 c 0,17,18
 759.266 177.129 759.266 177.129 788.63 188.496 c 0,19,20
 812.797 197.127 812.797 197.127 829.728 211.517 c 0,21,22
 846.773 225.153 846.773 225.153 857.506 242.491 c 0,23,24
 866 256.649 866 256.649 866 278 c 0,25,26
 866 293.286 866 293.286 858.78 300.309 c 0,27,28
 843.173 314.068 843.173 314.068 821.779 322.448 c 1,29,30
 795.429 331.417 795.429 331.417 766.555 334.124 c 0,31,32
 731.674 338 731.674 338 709.733 338 c 0,33,34
 664.252 339.011 664.252 339.011 608.158 341.015 c 0,35,36
 549.942 343.057 549.942 343.057 490.947 351.194 c 1,37,38
 430.397 358.378 430.397 358.378 373.699 373.842 c 0,39,40
 355.762 378.706 355.762 378.706 338.19 385.195 c 1,0,-1
294.202 404.91 m 1,41,42
 277.178 414.045 277.178 414.045 262.583 424.099 c 0,43,44
 211.358 457.886 211.358 457.886 179.611 509.339 c 0,45,46
 146 563.117 146 563.117 146 638 c 0,47,48
 146 707.021 146 707.021 181.844 763.029 c 0,49,50
 216.829 816.601 216.829 816.601 276.207 853.307 c 1,51,52
 331.739 888.932 331.739 888.932 405.411 909.08 c 1,53,54
 479.037 931 479.037 931 565 931 c 0,55,56
 648.168 931 648.168 931 718.062 912.223 c 0,57,58
 780.404 896.406 780.404 896.406 831.178 866.968 c 1,59,60
 835.378 882.088 835.378 882.088 839.581 902.263 c 2,61,-1
 846.67 931.631 l 2,62,63
 848.85 940.663 848.85 940.663 856.774 945.914 c 128,-1,64
 864.698 951.165 864.698 951.165 873.822 949.694 c 2,65,-1
 1028.82 924.694 l 2,66,67
 1038.96 923.059 1038.96 923.059 1044.61 914.281 c 128,-1,68
 1050.26 905.503 1050.26 905.503 1048.59 896.577 c 2,69,-1
 1042.61 864.672 l 2,70,71
 1026 771.867 1026 771.867 1026 698 c 0,72,73
 1026 680.798 1026 680.798 1027.93 651.885 c 0,74,75
 1030.93 618.866 1030.93 618.866 1034.9 574.22 c 2,76,-1
 1037.89 543.312 l 2,77,78
 1038.84 533.434 1038.84 533.434 1032.2 525.795 c 128,-1,79
 1025.56 518.157 1025.56 518.157 1016.7 517.153 c 2,80,-1
 891.365 502.948 l 1,81,82
 904.927 498.665 904.927 498.665 918.431 493.471 c 0,83,84
 962.889 477.207 962.889 477.207 999.925 447.795 c 0,85,86
 1037.7 417.792 1037.7 417.792 1061.98 373.653 c 0,87,88
 1088 327.273 1088 327.273 1088 263 c 0,89,90
 1088 176.415 1088 176.415 1043.47 112.962 c 1,91,92
 1000.34 54.7327 1000.34 54.7327 933.87 16.1398 c 1,93,94
 869.67 -19.6441 869.67 -19.6441 791.373 -37.3908 c 0,95,96
 715.757 -55 715.757 -55 641 -55 c 0,97,98
 478.728 -55 478.728 -55 350.165 15.5193 c 1,99,100
 346.632 3.81923 346.632 3.81923 343.243 -8.98181 c 2,101,-1
 337.283 -32.8209 l 2,102,103
 335.281 -40.8325 335.281 -40.8325 328.444 -45.9162 c 128,-1,104
 321.607 -51 321.607 -51 314 -51 c 2,105,-1
 160 -51 l 2,106,107
 148.557 -51 148.557 -51 141.558 -41.8158 c 128,-1,108
 134.559 -32.6315 134.559 -32.6315 136.397 -22.6521 c 2,109,-1
 143.355 15.1184 l 1,110,111
 154 79.9602 154 79.9602 154 134 c 0,112,113
 154 194.048 154 194.048 143.091 332.904 c 1,114,-1
 140.112 363.688 l 2,115,116
 139.156 373.566 139.156 373.566 145.797 381.205 c 128,-1,117
 152.439 388.843 152.439 388.843 161.297 389.847 c 2,118,-1
 294.202 404.91 l 1,41,42
841.656 515.211 m 1,119,120
 841.008 517.015 841.008 517.015 840.717 518.179 c 2,121,-1
 833.608 546.614 l 2,122,123
 829.423 566.494 829.423 566.494 825.323 590.072 c 0,124,125
 822.837 605.821 822.837 605.821 814.22 623.915 c 0,126,127
 806.783 640.444 806.783 640.444 791.316 656.77 c 0,128,129
 778.248 671.471 778.248 671.471 753.691 683.326 c 0,130,131
 724.315 697.097 724.315 697.097 680.005 706.525 c 0,132,133
 635.481 716 635.481 716 567 716 c 0,134,135
 515.027 716 515.027 716 474.755 705.699 c 0,136,137
 436.233 696.527 436.233 696.527 409.901 682.156 c 1,138,139
 387.607 668.77 387.607 668.77 377.889 654.566 c 0,140,141
 370 642.733 370 642.733 370 630 c 0,142,143
 370 606.068 370 606.068 379.337 594.483 c 0,144,145
 393.974 577.718 393.974 577.718 421.295 566.127 c 0,146,147
 454.564 552.264 454.564 552.264 502.65 544.721 c 0,148,149
 554.542 536.889 554.542 536.889 619.248 532.968 c 0,150,151
 665.364 530.962 665.364 530.962 694.651 528.943 c 128,-1,152
 723.816 526.932 723.816 526.932 736.08 525.91 c 0,153,154
 746.548 524.958 746.548 524.958 773.269 523.969 c 0,155,156
 803.909 521.857 803.909 521.857 839.06 515.654 c 0,157,158
 839.924 515.51 839.924 515.51 841.656 515.211 c 1,119,120
EndSplineSet
EndChar

StartChar: t
Encoding: 116 116 87
Width: 1228
Flags: W
LayerCount: 2
Fore
SplineSet
1153.82 82.0998 m 2,0,-1
 1124.84 69.109 l 2,1,2
 854.172 -53 854.172 -53 680 -53 c 0,3,4
 495.7 -53 495.7 -53 386.886 46.2143 c 0,5,6
 354.113 75.7097 354.113 75.7097 334.863 112.622 c 1,7,8
 314.839 148.674 314.839 148.674 307.251 198.535 c 0,9,10
 301.111 242.544 301.111 242.544 299.026 273.815 c 1,11,12
 298 305.627 298 305.627 298 366 c 2,13,-1
 298 667 l 1,14,-1
 182 667 l 2,15,16
 172 667 172 667 165 674 c 128,-1,17
 158 681 158 681 158 691 c 2,18,-1
 158 852 l 2,19,20
 158 862 158 862 165 869 c 128,-1,21
 172 876 172 876 182 876 c 2,22,-1
 298 876 l 1,23,-1
 298 1153 l 2,24,25
 298 1163 298 1163 305 1170 c 128,-1,26
 312 1177 312 1177 322 1177 c 2,27,-1
 490 1177 l 2,28,29
 500 1177 500 1177 507 1170 c 128,-1,30
 514 1163 514 1163 514 1153 c 2,31,-1
 514 876 l 1,32,-1
 984 876 l 2,33,34
 994 876 994 876 1001 869 c 128,-1,35
 1008 862 1008 862 1008 852 c 2,36,-1
 1008 691 l 2,37,38
 1008 681 1008 681 1001 674 c 128,-1,39
 994 667 994 667 984 667 c 2,40,-1
 514 667 l 1,41,-1
 514 327.401 l 1,42,43
 515.923 271.873 515.923 271.873 519.42 253.288 c 1,44,45
 528.918 216.667 528.918 216.667 537.587 207.331 c 0,46,47
 538.189 206.683 538.189 206.683 538.741 205.993 c 0,48,49
 545.372 197.704 545.372 197.704 558.59 186.247 c 0,50,51
 572.366 174.647 572.366 174.647 616.163 167.639 c 0,52,53
 640.287 163 640.287 163 670 163 c 0,54,55
 744.565 163 744.565 163 854.23 195.025 c 0,56,57
 933.923 218.638 933.923 218.638 1042.72 264.133 c 2,58,-1
 1073.72 277.133 l 2,59,60
 1083.17 281.095 1083.17 281.095 1092.56 276.618 c 128,-1,61
 1101.96 272.142 1101.96 272.142 1105.25 263.99 c 2,62,-1
 1166.25 112.99 l 2,63,64
 1169.86 104.065 1169.86 104.065 1166.07 94.9794 c 128,-1,65
 1162.28 85.8935 1162.28 85.8935 1153.82 82.0998 c 2,0,-1
EndSplineSet
EndChar

StartChar: u
Encoding: 117 117 88
Width: 1228
Flags: W
LayerCount: 2
Fore
SplineSet
1196 161 m 2,0,-1
 1196 0 l 2,1,2
 1196 -10 1196 -10 1189 -17 c 128,-1,3
 1182 -24 1182 -24 1172 -24 c 2,4,-1
 838 -24 l 2,5,6
 828 -24 828 -24 821 -17 c 128,-1,7
 814 -10 814 -10 814 0 c 2,8,-1
 814 30.2005 l 1,9,10
 797.634 19.8165 797.634 19.8165 778.343 8.41647 c 0,11,12
 729.56 -21.2777 729.56 -21.2777 670.762 -37.1687 c 0,13,14
 612.185 -53 612.185 -53 549 -53 c 0,15,16
 464.479 -53 464.479 -53 396.42 -26.4145 c 0,17,18
 327.857 -0.703773 327.857 -0.703773 285.257 40.8047 c 0,19,20
 244.06 80.918 244.06 80.918 219.235 134.886 c 0,21,22
 194.975 186.57 194.975 186.57 185.42 237.529 c 0,23,24
 176 286.721 176 286.721 176 340 c 2,25,-1
 176 695 l 1,26,-1
 34 695 l 2,27,28
 24 695 24 695 17 702 c 128,-1,29
 10 709 10 709 10 719 c 2,30,-1
 10 881 l 2,31,32
 10 891 10 891 17 898 c 128,-1,33
 24 905 24 905 34 905 c 2,34,-1
 368 905 l 2,35,36
 378 905 378 905 385 898 c 128,-1,37
 392 891 392 891 392 881 c 2,38,-1
 392 323.562 l 1,39,40
 393.953 284.333 393.953 284.333 405.63 251.995 c 0,41,42
 422.016 204.56 422.016 204.56 453.191 184.05 c 0,43,44
 485.187 163 485.187 163 541 163 c 0,45,46
 676.7 163 676.7 163 814 291.325 c 1,47,-1
 814 695 l 1,48,-1
 662 695 l 2,49,50
 652 695 652 695 645 702 c 128,-1,51
 638 709 638 709 638 719 c 2,52,-1
 638 881 l 2,53,54
 638 891 638 891 645 898 c 128,-1,55
 652 905 652 905 662 905 c 2,56,-1
 1006 905 l 2,57,58
 1016 905 1016 905 1023 898 c 128,-1,59
 1030 891 1030 891 1030 881 c 2,60,-1
 1030 185 l 1,61,-1
 1172 185 l 2,62,63
 1182 185 1182 185 1189 178 c 128,-1,64
 1196 171 1196 171 1196 161 c 2,0,-1
EndSplineSet
EndChar

StartChar: v
Encoding: 118 118 89
Width: 1228
Flags: W
LayerCount: 2
Fore
SplineSet
1069.64 695 m 1,0,-1
 706.34 -10.9817 l 2,1,2
 699.641 -24 699.641 -24 685 -24 c 2,3,-1
 546 -24 l 2,4,5
 531.395 -24 531.395 -24 524.684 -11.0286 c 2,6,-1
 159.395 695 l 1,7,-1
 10 695 l 2,8,9
 0 695 0 695 -7 702 c 128,-1,10
 -14 709 -14 709 -14 719 c 2,11,-1
 -14 881 l 2,12,13
 -14 891 -14 891 -7 898 c 128,-1,14
 0 905 0 905 10 905 c 2,15,-1
 512 905 l 2,16,17
 522 905 522 905 529 898 c 128,-1,18
 536 891 536 891 536 881 c 2,19,-1
 536 719 l 2,20,21
 536 709 536 709 529 702 c 128,-1,22
 522 695 522 695 512 695 c 2,23,-1
 401.562 695 l 1,24,-1
 621.126 220.843 l 1,25,-1
 843.254 695 l 1,26,-1
 738 695 l 2,27,28
 728 695 728 695 721 702 c 128,-1,29
 714 709 714 709 714 719 c 2,30,-1
 714 881 l 2,31,32
 714 891 714 891 721 898 c 128,-1,33
 728 905 728 905 738 905 c 2,34,-1
 1218 905 l 2,35,36
 1228 905 1228 905 1235 898 c 128,-1,37
 1242 891 1242 891 1242 881 c 2,38,-1
 1242 719 l 2,39,40
 1242 709 1242 709 1235 702 c 128,-1,41
 1228 695 1228 695 1218 695 c 2,42,-1
 1069.64 695 l 1,0,-1
EndSplineSet
EndChar

StartChar: w
Encoding: 119 119 90
Width: 1228
Flags: W
LayerCount: 2
Fore
SplineSet
1187.52 695 m 1,0,-1
 962.859 -7.31231 l 2,1,2
 957.521 -24 957.521 -24 940 -24 c 2,3,-1
 787 -24 l 2,4,5
 770.276 -24 770.276 -24 764.485 -8.31036 c 2,6,-1
 615.333 395.788 l 1,7,-1
 470.593 -8.09664 l 2,8,9
 464.894 -24 464.894 -24 448 -24 c 2,10,-1
 301 -24 l 2,11,12
 283.525 -24 283.525 -24 278.16 -7.36992 c 2,13,-1
 51.5256 695 l 1,14,-1
 -27 695 l 2,15,16
 -37 695 -37 695 -44 702 c 128,-1,17
 -51 709 -51 709 -51 719 c 2,18,-1
 -51 881 l 2,19,20
 -51 891 -51 891 -44 898 c 128,-1,21
 -37 905 -37 905 -27 905 c 2,22,-1
 405 905 l 2,23,24
 415 905 415 905 422 898 c 128,-1,25
 429 891 429 891 429 881 c 2,26,-1
 429 719 l 2,27,28
 429 709 429 709 422 702 c 128,-1,29
 415 695 415 695 405 695 c 2,30,-1
 276.961 695 l 1,31,-1
 389.459 307.593 l 1,32,-1
 541.422 729.139 l 2,33,34
 547.14 745 547.14 745 564 745 c 2,35,-1
 681 745 l 2,36,37
 697.888 745 697.888 745 703.591 729.104 c 2,38,-1
 857.805 299.198 l 1,39,-1
 974.874 695 l 1,40,-1
 845 695 l 2,41,42
 835 695 835 695 828 702 c 128,-1,43
 821 709 821 709 821 719 c 2,44,-1
 821 881 l 2,45,46
 821 891 821 891 828 898 c 128,-1,47
 835 905 835 905 845 905 c 2,48,-1
 1259 905 l 2,49,50
 1269 905 1269 905 1276 898 c 128,-1,51
 1283 891 1283 891 1283 881 c 2,52,-1
 1283 719 l 2,53,54
 1283 709 1283 709 1276 702 c 128,-1,55
 1269 695 1269 695 1259 695 c 2,56,-1
 1187.52 695 l 1,0,-1
EndSplineSet
EndChar

StartChar: x
Encoding: 120 120 91
Width: 1228
Flags: W
LayerCount: 2
Fore
SplineSet
1232 161 m 2,0,-1
 1232 0 l 2,1,2
 1232 -10 1232 -10 1225 -17 c 128,-1,3
 1218 -24 1218 -24 1208 -24 c 2,4,-1
 728 -24 l 2,5,6
 718 -24 718 -24 711 -17 c 128,-1,7
 704 -10 704 -10 704 0 c 2,8,-1
 704 161 l 2,9,10
 704 171 704 171 711 178 c 128,-1,11
 718 185 718 185 728 185 c 2,12,-1
 769.617 185 l 1,13,-1
 609.922 346.903 l 1,14,-1
 448.755 185 l 1,15,-1
 490 185 l 2,16,17
 500 185 500 185 507 178 c 128,-1,18
 514 171 514 171 514 161 c 2,19,-1
 514 0 l 2,20,21
 514 -10 514 -10 507 -17 c 128,-1,22
 500 -24 500 -24 490 -24 c 2,23,-1
 20 -24 l 2,24,25
 10 -24 10 -24 3 -17 c 128,-1,26
 -4 -10 -4 -10 -4 0 c 2,27,-1
 -4 161 l 2,28,29
 -4 171 -4 171 3 178 c 128,-1,30
 10 185 10 185 20 185 c 2,31,-1
 156.747 185 l 1,32,-1
 459.047 458.817 l 1,33,-1
 192.887 695 l 1,34,-1
 52 695 l 2,35,36
 42 695 42 695 35 702 c 128,-1,37
 28 709 28 709 28 719 c 2,38,-1
 28 881 l 2,39,40
 28 891 28 891 35 898 c 128,-1,41
 42 905 42 905 52 905 c 2,42,-1
 512 905 l 2,43,44
 522 905 522 905 529 898 c 128,-1,45
 536 891 536 891 536 881 c 2,46,-1
 536 719 l 2,47,48
 536 709 536 709 529 702 c 128,-1,49
 522 695 522 695 512 695 c 2,50,-1
 489.941 695 l 1,51,-1
 610 574.941 l 1,52,-1
 730.059 695 l 1,53,-1
 716 695 l 2,54,55
 706 695 706 695 699 702 c 128,-1,56
 692 709 692 709 692 719 c 2,57,-1
 692 881 l 2,58,59
 692 891 692 891 699 898 c 128,-1,60
 706 905 706 905 716 905 c 2,61,-1
 1156 905 l 2,62,63
 1166 905 1166 905 1173 898 c 128,-1,64
 1180 891 1180 891 1180 881 c 2,65,-1
 1180 719 l 2,66,67
 1180 709 1180 709 1173 702 c 128,-1,68
 1166 695 1166 695 1156 695 c 2,69,-1
 1022.21 695 l 1,70,-1
 760.026 459.128 l 1,71,-1
 1069.11 185 l 1,72,-1
 1208 185 l 2,73,74
 1218 185 1218 185 1225 178 c 128,-1,75
 1232 171 1232 171 1232 161 c 2,0,-1
EndSplineSet
EndChar

StartChar: y
Encoding: 121 121 92
Width: 1228
Flags: W
LayerCount: 2
Fore
SplineSet
752 -152 m 2,0,-1
 752 -313 l 2,1,2
 752 -323 752 -323 745 -330 c 128,-1,3
 738 -337 738 -337 728 -337 c 2,4,-1
 50 -337 l 2,5,6
 40 -337 40 -337 33 -330 c 128,-1,7
 26 -323 26 -323 26 -313 c 2,8,-1
 26 -152 l 2,9,10
 26 -142 26 -142 33 -135 c 128,-1,11
 40 -128 40 -128 50 -128 c 2,12,-1
 364.698 -128 l 1,13,-1
 490.1 72.6437 l 1,14,-1
 139.965 695 l 1,15,-1
 16 695 l 2,16,17
 6 695 6 695 -1 702 c 128,-1,18
 -8 709 -8 709 -8 719 c 2,19,-1
 -8 881 l 2,20,21
 -8 891 -8 891 -1 898 c 128,-1,22
 6 905 6 905 16 905 c 2,23,-1
 464 905 l 2,24,25
 474 905 474 905 481 898 c 128,-1,26
 488 891 488 891 488 881 c 2,27,-1
 488 719 l 2,28,29
 488 709 488 709 481 702 c 128,-1,30
 474 695 474 695 464 695 c 2,31,-1
 383.501 695 l 1,32,-1
 616.07 247.027 l 1,33,-1
 873.526 695 l 1,34,-1
 798 695 l 2,35,36
 788 695 788 695 781 702 c 128,-1,37
 774 709 774 709 774 719 c 2,38,-1
 774 881 l 2,39,40
 774 891 774 891 781 898 c 128,-1,41
 788 905 788 905 798 905 c 2,42,-1
 1238 905 l 2,43,44
 1248 905 1248 905 1255 898 c 128,-1,45
 1262 891 1262 891 1262 881 c 2,46,-1
 1262 719 l 2,47,48
 1262 709 1262 709 1255 702 c 128,-1,49
 1248 695 1248 695 1238 695 c 2,50,-1
 1119.41 695 l 1,51,-1
 612.95 -128 l 1,52,-1
 728 -128 l 2,53,54
 738 -128 738 -128 745 -135 c 128,-1,55
 752 -142 752 -142 752 -152 c 2,0,-1
EndSplineSet
EndChar

StartChar: z
Encoding: 122 122 93
Width: 1228
Flags: W
LayerCount: 2
Fore
SplineSet
1072 350 m 2,0,-1
 1072 0 l 2,1,2
 1072 -10 1072 -10 1065 -17 c 128,-1,3
 1058 -24 1058 -24 1048 -24 c 2,4,-1
 180 -24 l 2,5,6
 170 -24 170 -24 163 -17 c 128,-1,7
 156 -10 156 -10 156 0 c 2,8,-1
 156 130 l 2,9,10
 156 140.235 156 140.235 163.386 147.319 c 2,11,-1
 734.312 695 l 1,12,-1
 386 695 l 1,13,-1
 386 537 l 2,14,15
 386 527 386 527 379 520 c 128,-1,16
 372 513 372 513 362 513 c 2,17,-1
 200 513 l 2,18,19
 190 513 190 513 183 520 c 128,-1,20
 176 527 176 527 176 537 c 2,21,-1
 176 881 l 2,22,23
 176 891 176 891 183 898 c 128,-1,24
 190 905 190 905 200 905 c 2,25,-1
 1048 905 l 2,26,27
 1058 905 1058 905 1065 898 c 128,-1,28
 1072 891 1072 891 1072 881 c 2,29,-1
 1072 759 l 2,30,31
 1072 748.804 1072 748.804 1064.66 741.726 c 2,32,-1
 487.454 185 l 1,33,-1
 864 185 l 1,34,-1
 864 350 l 2,35,36
 864 360 864 360 871 367 c 128,-1,37
 878 374 878 374 888 374 c 2,38,-1
 1048 374 l 2,39,40
 1058 374 1058 374 1065 367 c 128,-1,41
 1072 360 1072 360 1072 350 c 2,0,-1
EndSplineSet
EndChar

StartChar: braceleft
Encoding: 123 123 94
Width: 1228
Flags: W
LayerCount: 2
Fore
SplineSet
943 -260 m 2,0,1
 888.014 -260 888.014 -260 825.997 -249.664 c 0,2,3
 758.084 -237.991 758.084 -237.991 700.509 -207.071 c 0,4,5
 639.451 -173.271 639.451 -173.271 598.141 -113.478 c 1,6,7
 556 -50.2656 556 -50.2656 556 45 c 0,8,9
 556 91.1661 556 91.1661 564.347 137.074 c 0,10,11
 571.456 180.735 571.456 180.735 581.603 223.351 c 0,12,13
 590.411 263.472 590.411 263.472 598.379 302.283 c 1,14,15
 604 338.351 604 338.351 604 372 c 0,16,17
 604 408.927 604 408.927 578.483 430.691 c 0,18,19
 546.758 457.407 546.758 457.407 489.074 462 c 1,20,-1
 448 462 l 2,21,22
 438 462 438 462 431 469 c 128,-1,23
 424 476 424 476 424 486 c 2,24,-1
 424 652 l 2,25,26
 424 662 424 662 431 669 c 128,-1,27
 438 676 438 676 448 676 c 2,28,-1
 489.234 676 l 1,29,30
 517.214 677.872 517.214 677.872 539.766 686.547 c 0,31,32
 561.58 694.097 561.58 694.097 576.382 706.225 c 0,33,34
 589.497 717.995 589.497 717.995 597.418 733.498 c 0,35,36
 604 747.803 604 747.803 604 766 c 0,37,38
 604 799.648 604 799.648 598.379 835.718 c 1,39,40
 590.41 874.529 590.41 874.529 581.603 914.648 c 0,41,42
 571.457 957.259 571.457 957.259 564.347 1000.93 c 0,43,44
 556 1046.83 556 1046.83 556 1093 c 0,45,46
 556 1188.27 556 1188.27 598.141 1251.48 c 1,47,48
 639.445 1311.26 639.445 1311.26 700.513 1345.07 c 0,49,50
 758.073 1375.99 758.073 1375.99 825.991 1387.66 c 0,51,52
 888.003 1398 888.003 1398 943 1398 c 2,53,-1
 975 1398 l 2,54,55
 984.921 1398 984.921 1398 991.879 1390.65 c 128,-1,56
 998.837 1383.31 998.837 1383.31 998.996 1374.43 c 2,57,-1
 1002 1206.43 l 2,58,59
 1002.18 1196.18 1002.18 1196.18 994.541 1189.09 c 128,-1,60
 986.903 1182 986.903 1182 978 1182 c 2,61,-1
 945 1182 l 2,62,63
 919.808 1182 919.808 1182 891.651 1180.06 c 0,64,65
 864.972 1178.22 864.972 1178.22 840.923 1171.74 c 0,66,67
 818.496 1166.36 818.496 1166.36 799.711 1156.52 c 0,68,69
 785.499 1149.79 785.499 1149.79 779.023 1141.37 c 0,70,71
 778.635 1140.86 778.635 1140.86 778.222 1140.38 c 2,72,-1
 773.97 1135.42 l 1,73,74
 771.545 1130.35 771.545 1130.35 770.534 1125.29 c 0,75,76
 770.361 1124.43 770.361 1124.43 770.124 1123.58 c 0,77,78
 766 1108.73 766 1108.73 766 1093 c 0,79,80
 766 1065.31 766 1065.31 772.524 1031.76 c 0,81,82
 780.472 994.005 780.472 994.005 789.423 952.233 c 0,83,84
 799.534 908.757 799.534 908.757 807.653 862.064 c 0,85,86
 816 813.023 816 813.023 816 763 c 0,87,88
 816 725.448 816 725.448 804.938 688.939 c 0,89,90
 794.088 654.221 794.088 654.221 775.705 622.863 c 0,91,92
 758.393 593.332 758.393 593.332 734.82 568.025 c 1,93,94
 757.798 544.432 757.798 544.432 775.166 517.017 c 0,95,96
 816 454.631 816 454.631 816 375 c 0,97,98
 816 324.976 816 324.976 807.654 275.937 c 0,99,100
 799.533 229.242 799.533 229.242 789.424 185.767 c 0,101,102
 780.448 143.882 780.448 143.882 772.524 106.239 c 0,103,104
 766 72.6863 766 72.6863 766 45 c 0,105,106
 766 29.2712 766 29.2712 770.125 14.4235 c 0,107,108
 770.292 13.8192 770.292 13.8192 770.428 13.2063 c 0,109,110
 771.534 8.2317 771.534 8.2317 774.272 2.97081 c 2,111,-1
 779.367 -3.82284 l 2,112,113
 785.875 -12.9341 785.875 -12.9341 798.499 -19.4186 c 0,114,115
 817.422 -28.3126 817.422 -28.3126 840.82 -33.7123 c 0,116,117
 864.984 -40.2177 864.984 -40.2177 891.651 -42.0569 c 0,118,119
 919.826 -44 919.826 -44 945 -44 c 2,120,-1
 978 -44 l 2,121,122
 988.255 -44 988.255 -44 995.205 -51.7635 c 128,-1,123
 1002.16 -59.5271 1002.16 -59.5271 1002 -68.4285 c 2,124,-1
 998.996 -236.428 l 2,125,126
 998.819 -246.348 998.819 -246.348 991.35 -253.174 c 128,-1,127
 983.881 -260 983.881 -260 975 -260 c 2,128,-1
 943 -260 l 2,0,1
EndSplineSet
EndChar

StartChar: bar
Encoding: 124 124 95
Width: 1228
Flags: W
LayerCount: 2
Fore
SplineSet
702 -436 m 2,0,-1
 528 -436 l 2,1,2
 518 -436 518 -436 511 -429 c 128,-1,3
 504 -422 504 -422 504 -412 c 2,4,-1
 504 1410 l 2,5,6
 504 1420 504 1420 511 1427 c 128,-1,7
 518 1434 518 1434 528 1434 c 2,8,-1
 702 1434 l 2,9,10
 712 1434 712 1434 719 1427 c 128,-1,11
 726 1420 726 1420 726 1410 c 2,12,-1
 726 -412 l 2,13,14
 726 -422 726 -422 719 -429 c 128,-1,15
 712 -436 712 -436 702 -436 c 2,0,-1
EndSplineSet
EndChar

StartChar: braceright
Encoding: 125 125 96
Width: 1228
Flags: W
LayerCount: 2
Fore
SplineSet
458.516 14.9575 m 0,0,1
 462 30.6354 462 30.6354 462 47 c 0,2,3
 462 74.5863 462 74.5863 456.41 108.552 c 1,4,5
 448.409 146.551 448.409 146.551 439.577 187.767 c 0,6,7
 429.472 231.218 429.472 231.218 421.305 278.175 c 1,8,9
 414 327.224 414 327.224 414 377 c 0,10,11
 414 457.05 414 457.05 453.748 518.879 c 0,12,13
 470.824 546.045 470.824 546.045 494.18 570.025 c 1,14,15
 470.605 595.335 470.605 595.335 453.295 624.863 c 0,16,17
 434.91 656.225 434.91 656.225 423.961 691.261 c 1,18,19
 414 727.786 414 727.786 414 765 c 0,20,21
 414 814.777 414 814.777 421.305 863.825 c 1,22,23
 429.472 910.78 429.472 910.78 439.577 954.233 c 0,24,25
 448.386 995.34 448.386 995.34 456.41 1033.45 c 1,26,27
 462 1067.41 462 1067.41 462 1095 c 0,28,29
 462 1111.36 462 1111.36 458.516 1127.04 c 0,30,31
 457.454 1132.35 457.454 1132.35 455.031 1137.42 c 1,32,-1
 450.778 1142.38 l 2,33,34
 450.365 1142.86 450.365 1142.86 449.977 1143.37 c 0,35,36
 443.501 1151.78 443.501 1151.78 429.289 1158.52 c 0,37,38
 410.503 1168.36 410.503 1168.36 388.077 1173.74 c 0,39,40
 364.027 1180.22 364.027 1180.22 337.349 1182.06 c 0,41,42
 309.192 1184 309.192 1184 284 1184 c 2,43,-1
 251 1184 l 2,44,45
 240.745 1184 240.745 1184 233.795 1191.76 c 128,-1,46
 226.845 1199.53 226.845 1199.53 227.004 1208.43 c 2,47,-1
 230.004 1376.43 l 2,48,49
 230.181 1386.35 230.181 1386.35 237.65 1393.17 c 128,-1,50
 245.119 1400 245.119 1400 254 1400 c 2,51,-1
 286 1400 l 2,52,53
 340.998 1400 340.998 1400 403.009 1389.66 c 0,54,55
 470.927 1377.99 470.927 1377.99 528.487 1347.07 c 0,56,57
 589.555 1313.26 589.555 1313.26 630.774 1253.6 c 0,58,59
 674 1190.43 674 1190.43 674 1095 c 0,60,61
 674 1049.1 674 1049.1 664.61 1002.66 c 1,62,63
 657.428 958.778 657.428 958.778 647.397 916.648 c 0,64,65
 638.47 875.983 638.47 875.983 630.56 837.417 c 0,66,67
 624 801.805 624 801.805 624 768 c 0,68,69
 624 749.929 624 749.929 631.355 735.956 c 0,70,71
 639.199 720.268 639.199 720.268 652.618 708.225 c 0,72,73
 667.419 696.097 667.419 696.097 689.234 688.547 c 0,74,75
 711.786 679.873 711.786 679.873 739.766 678 c 1,76,-1
 780 678 l 2,77,78
 790 678 790 678 797 671 c 128,-1,79
 804 664 804 664 804 654 c 2,80,-1
 804 488 l 2,81,82
 804 478 804 478 797 471 c 128,-1,83
 790 464 790 464 780 464 c 2,84,-1
 739.926 464 l 1,85,86
 682.241 459.407 682.241 459.407 650.384 432.578 c 0,87,88
 624 410.717 624 410.717 624 374 c 0,89,90
 624 340.194 624 340.194 630.56 304.583 c 0,91,92
 638.47 266.014 638.47 266.014 647.397 225.351 c 0,93,94
 657.429 183.217 657.429 183.217 664.61 139.337 c 1,95,96
 674 92.8956 674 92.8956 674 47 c 0,97,98
 674 -48.426 674 -48.426 630.775 -111.6 c 0,99,100
 589.549 -171.271 589.549 -171.271 528.491 -205.071 c 0,101,102
 470.916 -235.991 470.916 -235.991 403.003 -247.664 c 0,103,104
 340.986 -258 340.986 -258 286 -258 c 2,105,-1
 254 -258 l 2,106,107
 244.079 -258 244.079 -258 237.121 -250.654 c 128,-1,108
 230.162 -243.308 230.162 -243.308 230.004 -234.428 c 2,109,-1
 227.004 -66.4285 l 2,110,111
 226.821 -56.1749 226.821 -56.1749 234.459 -49.0874 c 128,-1,112
 242.097 -42 242.097 -42 251 -42 c 2,113,-1
 284 -42 l 2,114,115
 309.174 -42 309.174 -42 337.349 -40.0569 c 0,116,117
 364.018 -38.2176 364.018 -38.2176 388.18 -31.7122 c 0,118,119
 411.577 -26.313 411.577 -26.313 430.504 -17.4169 c 0,120,121
 443.539 -10.7368 443.539 -10.7368 450.263 -1.9955 c 0,122,123
 456.661 5.68258 456.661 5.68258 458.516 14.9575 c 0,0,1
EndSplineSet
EndChar

StartChar: asciitilde
Encoding: 126 126 97
Width: 1228
Flags: W
LayerCount: 2
Fore
SplineSet
1103.79 687.003 m 1,0,1
 1088.27 659.142 1088.27 659.142 1075.97 640.687 c 0,2,3
 1063.43 621.878 1063.43 621.878 1036.8 588.077 c 0,4,5
 1007 550.835 1007 550.835 976.828 527.128 c 0,6,7
 946.349 503.182 946.349 503.182 901.359 483.9 c 0,8,9
 853.82 464 853.82 464 803 464.001 c 0,10,11
 745.429 464 745.429 464 588.853 525.809 c 1,12,13
 489.581 568.496 489.581 568.496 465.731 576.127 c 0,14,15
 447.275 582 447.275 582 426 582 c 0,16,17
 408.225 582 408.225 582 395.478 576.173 c 128,-1,18
 382.741 570.35 382.741 570.35 367.093 552.231 c 0,19,20
 346.592 528.933 346.592 528.933 333.389 508.337 c 0,21,22
 319.206 485.028 319.206 485.028 292.695 440.844 c 2,23,-1
 269.806 401.037 l 2,24,25
 264.919 392.537 264.919 392.537 255.227 389.922 c 128,-1,26
 245.536 387.307 245.536 387.307 237.037 392.194 c 0,27,28
 233.415 394.277 233.415 394.277 230.71 397.46 c 2,29,-1
 117.71 530.46 l 2,30,31
 106.289 543.903 106.289 543.903 115.708 558.816 c 2,32,-1
 127.439 577.39 l 1,33,34
 154.865 625.071 154.865 625.071 174.031 653.314 c 0,35,36
 193.909 683.656 193.909 683.656 229.039 722.919 c 0,37,38
 268.44 767.793 268.44 767.793 318.253 789.931 c 128,-1,39
 367.909 812 367.909 812 426 812 c 0,40,41
 475.734 812 475.734 812 526.442 795.818 c 0,42,43
 569.445 781.483 569.445 781.483 663.289 742.13 c 0,44,45
 700.622 726.41 700.622 726.41 734.385 714.668 c 128,-1,46
 768.268 702.884 768.268 702.884 785.093 698.077 c 0,47,48
 796.624 694.782 796.624 694.782 801.57 694.001 c 0,49,50
 864.591 694.986 864.591 694.986 936.114 820.823 c 2,51,-1
 958.096 859.792 l 2,52,53
 962.914 868.331 962.914 868.331 972.583 871.026 c 128,-1,54
 982.252 873.721 982.252 873.721 990.792 868.904 c 1,55,-1
 996.846 864.047 l 1,56,-1
 1112.85 735.047 l 2,57,58
 1124.71 721.86 1124.71 721.86 1115.58 706.652 c 2,59,-1
 1103.79 687.003 l 1,0,1
EndSplineSet
EndChar

StartChar: exclamdown
Encoding: 161 161 99
Width: 1228
Flags: W
LayerCount: 2
Fore
SplineSet
812 795 m 0,0,1
 812 717.188 812 717.188 751.79 663.925 c 0,2,3
 693.926 614 693.926 614 614 614 c 0,4,5
 530.654 614 530.654 614 474.744 665.344 c 0,6,7
 416 719.48 416 719.48 416 797 c 0,8,9
 416 874.81 416 874.81 476.211 928.076 c 0,10,11
 534.078 978.001 534.078 978.001 614 977.997 c 128,-1,12
 693.925 978 693.925 978 751.79 928.076 c 0,13,14
 812 874.812 812 874.812 812 795 c 0,0,1
732 -340 m 2,15,-1
 494 -340 l 2,16,17
 483.693 -340 483.693 -340 476.62 -332.226 c 128,-1,18
 469.547 -324.453 469.547 -324.453 470.03 -314.801 c 2,19,-1
 512.03 525.198 l 2,20,21
 512.509 534.779 512.509 534.779 519.758 541.39 c 128,-1,22
 527.006 548 527.006 548 536 548 c 2,23,-1
 693 548 l 2,24,25
 702.602 548 702.602 548 709.578 541.088 c 128,-1,26
 716.553 534.177 716.553 534.177 716.974 525.113 c 2,27,-1
 755.974 -314.887 l 2,28,29
 756.452 -325.178 756.452 -325.178 749.015 -332.589 c 128,-1,30
 741.579 -340 741.579 -340 732 -340 c 2,15,-1
EndSplineSet
EndChar

StartChar: cent
Encoding: 162 162 100
Width: 1228
Flags: W
LayerCount: 2
Fore
SplineSet
370 583.976 m 2,0,1
 369.901 485.879 369.901 485.879 430.772 407.955 c 0,2,3
 454.096 379.248 454.096 379.248 485.193 359.869 c 0,4,5
 503.097 348.711 503.097 348.711 523 340.492 c 1,6,-1
 523 817.675 l 1,7,8
 460.033 787.473 460.033 787.473 422.474 742.18 c 0,9,10
 376.62 686.884 376.62 686.884 370 604.063 c 1,11,-1
 370 583.976 l 2,0,1
1043.47 452.733 m 0,12,13
 1047.26 445.14 1047.26 445.14 1058.03 425.566 c 0,14,15
 1068.95 405.71 1068.95 405.71 1082.42 381.766 c 0,16,17
 1095.71 358.13 1095.71 358.13 1109.5 335.479 c 0,18,19
 1123.04 313.234 1123.04 313.234 1132.53 299.95 c 0,20,21
 1138.23 291.971 1138.23 291.971 1136.58 282.07 c 128,-1,22
 1134.93 272.169 1134.93 272.169 1126.95 266.47 c 0,23,24
 1120.69 262 1120.69 262 1113 262 c 2,25,-1
 1059.8 262 l 1,26,27
 1021.56 229.818 1021.56 229.818 986.619 205.739 c 0,28,29
 947.336 178.664 947.336 178.664 921.831 168.683 c 0,30,31
 855.406 142.114 855.406 142.114 736 116.516 c 1,32,-1
 736 -181 l 2,33,34
 736 -191 736 -191 729 -198 c 128,-1,35
 722 -205 722 -205 712 -205 c 2,36,-1
 547 -205 l 2,37,38
 537 -205 537 -205 530 -198 c 128,-1,39
 523 -191 523 -191 523 -181 c 2,40,-1
 523 117.095 l 1,41,42
 431.743 139.846 431.743 139.846 386.645 165.483 c 0,43,44
 384.723 166.279 384.723 166.279 383.68 166.837 c 0,45,46
 338.102 191.217 338.102 191.217 300.431 225.173 c 128,-1,47
 262.592 259.282 262.592 259.282 234.966 301.783 c 0,48,49
 150 428.707 150 428.707 150 592 c 0,50,51
 150 757.759 150 757.759 261.696 890.524 c 0,52,53
 311.476 948.777 311.476 948.777 382.609 989.347 c 0,54,55
 445.417 1025.17 445.417 1025.17 523 1045.74 c 1,56,-1
 523 1327 l 2,57,58
 523 1337 523 1337 530 1344 c 128,-1,59
 537 1351 537 1351 547 1351 c 2,60,-1
 712 1351 l 2,61,62
 722 1351 722 1351 729 1344 c 128,-1,63
 736 1337 736 1337 736 1327 c 2,64,-1
 736 1051.33 l 1,65,66
 751.534 1048.54 751.534 1048.54 765.319 1045.4 c 0,67,68
 789.548 1039.9 789.548 1039.9 807.467 1032.05 c 0,69,70
 845.862 1015.89 845.862 1015.89 870.371 1004.14 c 0,71,72
 883.683 997.765 883.683 997.765 893.744 992.104 c 1,73,74
 895.617 1004.46 895.617 1004.46 898.466 1018.71 c 0,75,76
 900.34 1028.08 900.34 1028.08 908.463 1033.51 c 128,-1,77
 916.587 1038.95 916.587 1038.95 925.202 1037.79 c 0,78,79
 976.443 1030.89 976.443 1030.89 1018.67 1027.94 c 128,-1,80
 1060.85 1025 1060.85 1025 1081 1025 c 0,81,82
 1091.9 1025 1091.9 1025 1099.13 1016.51 c 128,-1,83
 1106.37 1008.01 1106.37 1008.01 1104.72 997.328 c 0,84,85
 1081 844.214 1081 844.214 1081 805 c 0,86,87
 1081 794.281 1081 794.281 1081.49 773.571 c 128,-1,88
 1081.99 752.788 1081.99 752.788 1082.98 727.959 c 128,-1,89
 1083.97 703.199 1083.97 703.199 1085.46 678.437 c 128,-1,90
 1086.95 653.638 1086.95 653.638 1087.97 634.261 c 0,91,92
 1088.47 624.747 1088.47 624.747 1081.95 617.501 c 128,-1,93
 1075.43 610.255 1075.43 610.255 1067.01 609.19 c 2,94,-1
 909.014 589.19 l 2,95,96
 898.227 587.824 898.227 587.824 890.114 595.341 c 128,-1,97
 882 602.858 882 602.858 882 613 c 0,98,99
 882 625.17 882 625.17 881.057 638.849 c 0,100,101
 880.064 653.255 880.064 653.255 879.076 665.586 c 128,-1,102
 878.105 677.725 878.105 677.725 877.147 686.35 c 0,103,104
 876.255 694.373 876.255 694.373 876.046 698.151 c 0,105,106
 872.246 726.777 872.246 726.777 856.594 757.646 c 0,107,108
 841.259 787.892 841.259 787.892 818.107 804.43 c 0,109,110
 782.43 829.613 782.43 829.613 736 841.583 c 1,111,-1
 736 332.469 l 1,112,113
 753.15 336.158 753.15 336.158 766.399 339.337 c 0,114,115
 789.57 344.898 789.57 344.898 802.516 349.455 c 0,116,117
 837.003 363.287 837.003 363.287 889.34 387.743 c 0,118,119
 940.66 411.725 940.66 411.725 1007.73 461.3 c 0,120,121
 1017.68 467.878 1017.68 467.878 1028.36 464.743 c 128,-1,122
 1039.03 461.608 1039.03 461.608 1043.47 452.733 c 0,12,13
EndSplineSet
EndChar

StartChar: sterling
Encoding: 163 163 101
Width: 1228
Flags: W
LayerCount: 2
Fore
SplineSet
1120.97 38.0294 m 2,0,1
 1099.42 16.4819 1099.42 16.4819 1081.88 1.00389 c 0,2,3
 1081.39 0.568788 1081.39 0.568788 1080.87 0.162813 c 0,4,5
 1060.96 -15.5535 1060.96 -15.5535 1029.16 -36.0693 c 0,6,7
 993.196 -60.0478 993.196 -60.0478 947.667 -73.0555 c 0,8,9
 903.441 -86 903.441 -86 854 -86 c 0,10,11
 782.477 -86 782.477 -86 691.56 -50.4691 c 1,12,13
 632.996 -29.3476 632.996 -29.3476 608.222 -22.3059 c 1,14,15
 587.932 -18 587.932 -18 563 -18 c 0,16,17
 484.425 -18 484.425 -18 360.041 -89.7608 c 2,18,-1
 336.093 -103.731 l 2,19,20
 327.604 -108.178 327.604 -108.178 318.799 -106.145 c 128,-1,21
 309.993 -104.111 309.993 -104.111 305.025 -97.695 c 2,22,-1
 202.025 35.305 l 2,23,24
 196.493 43.1061 196.493 43.1061 197.36 52.1376 c 128,-1,25
 198.228 61.1692 198.228 61.1692 204.029 66.9706 c 2,26,-1
 223.95 86.8916 l 2,27,28
 274.943 138.846 274.943 138.846 309.434 195.372 c 0,29,30
 342.712 251.471 342.712 251.471 355.882 299.446 c 0,31,32
 370.512 351.144 370.512 351.144 375.288 381.705 c 0,33,34
 380 411.861 380 411.861 380 440 c 0,35,36
 380 492.17 380 492.17 369.101 542 c 1,37,-1
 164 542 l 2,38,39
 154 542 154 542 147 549 c 128,-1,40
 140 556 140 556 140 566 c 2,41,-1
 140 726 l 2,42,43
 140 736 140 736 147 743 c 128,-1,44
 154 750 154 750 164 750 c 2,45,-1
 304.171 750 l 1,46,47
 274 849.724 274 849.724 274 918 c 0,48,49
 274 1085.76 274 1085.76 401.046 1198.93 c 0,50,51
 525.863 1310 525.863 1310 696 1310 c 0,52,53
 808.546 1310 808.546 1310 928.075 1265.4 c 1,54,55
 935.659 1276 935.659 1276 948 1276 c 2,56,-1
 1103 1276 l 2,57,58
 1114.46 1276 1114.46 1276 1121.72 1266.77 c 128,-1,59
 1128.99 1257.54 1128.99 1257.54 1126.35 1246.44 c 0,60,61
 1121.31 1225.29 1121.31 1225.29 1115.13 1204.59 c 0,62,63
 1086.72 1092.55 1086.72 1092.55 1077.93 984.11 c 2,64,-1
 1075.93 958.159 l 2,65,66
 1075.26 949.485 1075.26 949.485 1068.85 943.237 c 128,-1,67
 1062.43 936.989 1062.43 936.989 1054.58 936.139 c 2,68,-1
 897.584 919.139 l 2,69,70
 886.205 917.907 886.205 917.907 878.236 926.286 c 128,-1,71
 870.268 934.665 870.268 934.665 871.074 944.889 c 2,72,-1
 874.048 982.553 l 1,73,74
 877 1040.61 877 1040.61 877 1048 c 0,75,76
 877 1053.62 877 1053.62 875.625 1056.37 c 1,77,78
 850.703 1068.5 850.703 1068.5 802.685 1081.85 c 0,79,80
 749.852 1096 749.852 1096 700 1096 c 0,81,82
 598.722 1096 598.722 1096 542.699 1041.76 c 0,83,84
 486 986.836 486 986.836 486 920 c 0,85,86
 486 885.09 486 885.09 496.306 845.74 c 1,87,88
 504.054 812.168 504.054 812.168 525.137 750 c 1,89,-1
 1016 750 l 2,90,91
 1026 750 1026 750 1033 743 c 128,-1,92
 1040 736 1040 736 1040 726 c 2,93,-1
 1040 566 l 2,94,95
 1040 556 1040 556 1033 549 c 128,-1,96
 1026 542 1026 542 1016 542 c 2,97,-1
 581.692 542 l 1,98,99
 588 492.52 588 492.52 588 449 c 0,100,101
 588 358.933 588 358.933 567.266 279.108 c 0,102,103
 554.338 226.715 554.338 226.715 539.65 189.945 c 1,104,105
 557.098 192 557.098 192 573 192 c 0,106,107
 647.621 192 647.621 192 751.863 150.304 c 0,108,109
 818.563 124 818.563 124 848 124 c 0,110,111
 878.819 124 878.819 124 902.705 137.179 c 0,112,113
 933.876 153.237 933.876 153.237 986.783 195.562 c 1,114,-1
 1011.56 216.377 l 2,115,116
 1020.14 222.875 1020.14 222.875 1030.11 221.46 c 128,-1,117
 1040.08 220.046 1040.08 220.046 1045.71 213.03 c 2,118,-1
 1143.71 91.0301 l 2,119,120
 1149.44 83.4736 1149.44 83.4736 1148.73 74.281 c 128,-1,121
 1148.03 65.0885 1148.03 65.0885 1141.97 59.0294 c 2,122,-1
 1120.97 38.0294 l 2,0,1
EndSplineSet
EndChar

StartChar: currency
Encoding: 164 164 102
Width: 1228
Flags: W
LayerCount: 2
Fore
SplineSet
612 366 m 0,0,1
 707.647 366 707.647 366 767.488 429.411 c 0,2,3
 828 494.44 828 494.44 828 580 c 128,-1,4
 828 665.568 828 665.568 768.477 729.6 c 0,5,6
 709.642 792 709.642 792 614 792 c 0,7,8
 518.677 792 518.677 792 461.758 728.855 c 0,9,10
 402 663.661 402 663.661 402 580 c 0,11,12
 402 493.336 402 493.336 461.765 428.138 c 0,13,14
 517.69 366 517.69 366 612 366 c 0,0,1
1137.9 177.957 m 2,15,-1
 1020.9 61.9568 l 2,16,17
 1013.32 54.9762 1013.32 54.9762 1003.45 55.2692 c 128,-1,18
 993.574 55.5621 993.574 55.5621 987.131 61.9287 c 2,19,-1
 831.889 215.333 l 1,20,21
 735.328 156 735.328 156 614 156 c 0,22,23
 495.016 156 495.016 156 397.222 215.443 c 1,24,-1
 241.869 61.9287 l 2,25,26
 234.281 54.9608 234.281 54.9608 224.408 55.2701 c 128,-1,27
 214.535 55.5795 214.535 55.5795 208.102 61.9568 c 2,28,-1
 91.1024 177.957 l 2,29,30
 83.8634 185.979 83.8634 185.979 84.3775 195.978 c 128,-1,31
 84.8916 205.978 84.8916 205.978 91.2303 212.169 c 2,32,-1
 249.765 367.017 l 1,33,34
 194 465.467 194 465.467 194 563 c 0,35,36
 194 630.11 194 630.11 209.293 688.118 c 0,37,38
 224.518 745.87 224.518 745.87 239.846 774.337 c 0,39,40
 244.199 782.498 244.199 782.498 249.5 791.402 c 1,41,-1
 90.1284 948.931 l 2,42,43
 82.8295 956.655 82.8295 956.655 83.2778 966.883 c 128,-1,44
 83.7262 977.111 83.7262 977.111 90.6296 983.55 c 2,45,-1
 209.63 1094.55 l 2,46,47
 216.915 1101.1 216.915 1101.1 226.62 1100.82 c 128,-1,48
 236.324 1100.54 236.324 1100.54 242.869 1094.07 c 2,49,-1
 397.317 941.463 l 1,50,51
 495.154 1000 495.154 1000 614 1000 c 0,52,53
 730.077 1000 730.077 1000 830.615 940.396 c 1,54,-1
 986.131 1094.07 l 2,55,56
 993.315 1100.81 993.315 1100.81 1002.95 1100.8 c 128,-1,57
 1012.58 1100.78 1012.58 1100.78 1019.22 1094.69 c 0,58,59
 1031.1 1083.8 1031.1 1083.8 1042.28 1073.64 c 2,60,-1
 1138.41 983.509 l 2,61,62
 1145.91 975.951 1145.91 975.951 1145.73 965.738 c 128,-1,63
 1145.54 955.526 1145.54 955.526 1138.87 948.931 c 2,64,-1
 979.518 791.42 l 1,65,66
 1038 693.264 1038 693.264 1038 594 c 0,67,68
 1038 468.05 1038 468.05 979.429 365.907 c 1,69,-1
 1137.72 212.219 l 2,70,71
 1145.05 204.307 1145.05 204.307 1144.64 194.276 c 128,-1,72
 1144.24 184.245 1144.24 184.245 1137.9 177.957 c 2,15,-1
EndSplineSet
EndChar

StartChar: yen
Encoding: 165 165 103
Width: 1228
Flags: W
LayerCount: 2
Fore
SplineSet
946 -56 m 2,0,-1
 296 -56 l 2,1,2
 286 -56 286 -56 279 -49 c 128,-1,3
 272 -42 272 -42 272 -32 c 2,4,-1
 272 128 l 2,5,6
 272 138 272 138 279 145 c 128,-1,7
 286 152 286 152 296 152 c 2,8,-1
 514 152 l 1,9,-1
 514 228 l 1,10,-1
 238 228 l 2,11,12
 228 228 228 228 221 235 c 128,-1,13
 214 242 214 242 214 252 c 2,14,-1
 214 414 l 2,15,16
 214 424 214 424 221 431 c 128,-1,17
 228 438 228 438 238 438 c 2,18,-1
 514 438 l 1,19,-1
 514 444 l 1,20,-1
 238 444 l 2,21,22
 228 444 228 444 221 451 c 128,-1,23
 214 458 214 458 214 468 c 2,24,-1
 214 628 l 2,25,26
 214 638 214 638 221 645 c 128,-1,27
 228 652 228 652 238 652 c 2,28,-1
 477.285 652 l 1,29,-1
 162.176 1062 l 1,30,-1
 34 1062 l 2,31,32
 24 1062 24 1062 17 1069 c 128,-1,33
 10 1076 10 1076 10 1086 c 2,34,-1
 10 1246 l 2,35,36
 10 1256 10 1256 17 1263 c 128,-1,37
 24 1270 24 1270 34 1270 c 2,38,-1
 502 1270 l 2,39,40
 512 1270 512 1270 519 1263 c 128,-1,41
 526 1256 526 1256 526 1246 c 2,42,-1
 526 1086 l 2,43,44
 526 1076 526 1076 519 1069 c 128,-1,45
 512 1062 512 1062 502 1062 c 2,46,-1
 427.893 1062 l 1,47,-1
 620.761 812.547 l 1,48,-1
 808.846 1062 l 1,49,-1
 734 1062 l 2,50,51
 724 1062 724 1062 717 1069 c 128,-1,52
 710 1076 710 1076 710 1086 c 2,53,-1
 710 1246 l 2,54,55
 710 1256 710 1256 717 1263 c 128,-1,56
 724 1270 724 1270 734 1270 c 2,57,-1
 1196 1270 l 2,58,59
 1206 1270 1206 1270 1213 1263 c 128,-1,60
 1220 1256 1220 1256 1220 1246 c 2,61,-1
 1220 1086 l 2,62,63
 1220 1076 1220 1076 1213 1069 c 128,-1,64
 1206 1062 1206 1062 1196 1062 c 2,65,-1
 1068.05 1062 l 1,66,-1
 762.791 652 l 1,67,-1
 998 652 l 2,68,69
 1008 652 1008 652 1015 645 c 128,-1,70
 1022 638 1022 638 1022 628 c 2,71,-1
 1022 468 l 2,72,73
 1022 458 1022 458 1015 451 c 128,-1,74
 1008 444 1008 444 998 444 c 2,75,-1
 726 444 l 1,76,-1
 726 438 l 1,77,-1
 998 438 l 2,78,79
 1008 438 1008 438 1015 431 c 128,-1,80
 1022 424 1022 424 1022 414 c 2,81,-1
 1022 252 l 2,82,83
 1022 242 1022 242 1015 235 c 128,-1,84
 1008 228 1008 228 998 228 c 2,85,-1
 726 228 l 1,86,-1
 726 152 l 1,87,-1
 946 152 l 2,88,89
 956 152 956 152 963 145 c 128,-1,90
 970 138 970 138 970 128 c 2,91,-1
 970 -32 l 2,92,93
 970 -42 970 -42 963 -49 c 128,-1,94
 956 -56 956 -56 946 -56 c 2,0,-1
EndSplineSet
EndChar

StartChar: brokenbar
Encoding: 166 166 104
Width: 1228
Flags: W
LayerCount: 2
Fore
SplineSet
702 -436 m 2,0,-1
 528 -436 l 2,1,2
 518 -436 518 -436 511 -429 c 128,-1,3
 504 -422 504 -422 504 -412 c 2,4,-1
 504 418 l 2,5,6
 504 428 504 428 511 435 c 128,-1,7
 518 442 518 442 528 442 c 2,8,-1
 702 442 l 2,9,10
 712 442 712 442 719 435 c 128,-1,11
 726 428 726 428 726 418 c 2,12,-1
 726 -412 l 2,13,14
 726 -422 726 -422 719 -429 c 128,-1,15
 712 -436 712 -436 702 -436 c 2,0,-1
702 558 m 2,16,-1
 528 558 l 2,17,18
 518 558 518 558 511 565 c 128,-1,19
 504 572 504 572 504 582 c 2,20,-1
 504 1410 l 2,21,22
 504 1420 504 1420 511 1427 c 128,-1,23
 518 1434 518 1434 528 1434 c 2,24,-1
 702 1434 l 2,25,26
 712 1434 712 1434 719 1427 c 128,-1,27
 726 1420 726 1420 726 1410 c 2,28,-1
 726 582 l 2,29,30
 726 572 726 572 719 565 c 128,-1,31
 712 558 712 558 702 558 c 2,16,-1
EndSplineSet
EndChar

StartChar: section
Encoding: 167 167 105
Width: 1228
Flags: W
LayerCount: 2
Fore
SplineSet
758.031 301.924 m 1,0,1
 781.348 305.012 781.348 305.012 798.477 311.436 c 0,2,3
 818.089 318.979 818.089 318.979 823.977 326.633 c 0,4,5
 824.656 327.515 824.656 327.515 825.413 328.331 c 0,6,7
 834.875 338.521 834.875 338.521 837.335 345.898 c 0,8,9
 840 353.228 840 353.228 840 358 c 0,10,11
 840 375.808 840 375.808 828.102 391.205 c 0,12,13
 807.023 417.783 807.023 417.783 735.314 473.018 c 2,14,-1
 492.59 661.589 l 1,15,16
 474.097 657.893 474.097 657.893 460.527 651.431 c 0,17,18
 441.552 641.943 441.552 641.943 433.671 634.704 c 1,19,20
 426.37 625.603 426.37 625.603 422.059 615.546 c 128,-1,21
 417.719 605.419 417.719 605.419 416.693 601.143 c 0,22,23
 416 595.946 416 595.946 416 592 c 0,24,25
 416 580.887 416 580.887 425.309 568.254 c 0,26,27
 440.288 547.987 440.288 547.987 497.66 504.002 c 2,28,-1
 758.031 301.924 l 1,0,1
604 -34 m 2,29,30
 650.809 -34 650.809 -34 686.012 -10.8163 c 0,31,32
 710 4.26205 710 4.26205 710 35 c 0,33,34
 710 50.9958 710 50.9958 701.602 65.3502 c 0,35,36
 689.686 83.6929 689.686 83.6929 647.544 114.841 c 1,37,-1
 373.294 326.033 l 2,38,39
 331.739 358.465 331.739 358.465 308.227 378.911 c 0,40,41
 282.95 401.029 282.95 401.029 255.902 432.237 c 0,42,43
 224.829 467.748 224.829 467.748 211.333 507.113 c 0,44,45
 198 544.889 198 544.889 198 590 c 0,46,47
 198 680.235 198 680.235 259.139 758.841 c 0,48,49
 293.096 801.505 293.096 801.505 335.835 826.402 c 1,50,51
 314 875.779 314 875.779 314 935.997 c 0,52,53
 314 1011.86 314 1011.86 350.641 1070.71 c 0,54,55
 385.337 1126 385.337 1126 433.346 1158.74 c 0,56,57
 506.415 1210 506.415 1210 657 1210 c 2,58,-1
 994 1210 l 2,59,60
 1004 1210 1004 1210 1011 1203 c 128,-1,61
 1018 1196 1018 1196 1018 1186 c 2,62,-1
 1018 848 l 2,63,64
 1018 838 1018 838 1011 831 c 128,-1,65
 1004 824 1004 824 994 824 c 2,66,-1
 832 824 l 2,67,68
 822 824 822 824 815 831 c 128,-1,69
 808 838 808 838 808 848 c 2,70,-1
 808 1000 l 1,71,-1
 629 1000 l 2,72,73
 570.324 1000 570.324 1000 550.86 984.654 c 0,74,75
 534 971.361 534 971.361 534 938 c 0,76,77
 534 898.116 534 898.116 585.428 860.18 c 1,78,-1
 868.75 642.933 l 2,79,80
 917.147 604.618 917.147 604.618 941.612 584.231 c 0,81,82
 968.015 560.997 968.015 560.997 997.999 526.876 c 0,83,84
 1032.15 488.317 1032.15 488.317 1046.74 445.669 c 0,85,86
 1060 405.903 1060 405.903 1060 358 c 0,87,88
 1060 321.794 1060 321.794 1050.04 285.261 c 1,89,90
 1039.04 250.061 1039.04 250.061 1017.42 214.392 c 0,91,92
 992.55 174.821 992.55 174.821 946.962 144.799 c 0,93,94
 930.797 134.696 930.797 134.696 912.19 126.444 c 1,95,96
 928 81.0999 928 81.0999 928 37 c 0,97,98
 928 -94.6781 928 -94.6781 830.768 -170.919 c 0,99,100
 739.223 -242 739.223 -242 592 -242 c 2,101,-1
 236 -242 l 2,102,103
 226 -242 226 -242 219 -235 c 128,-1,104
 212 -228 212 -228 212 -218 c 2,105,-1
 212 142 l 2,106,107
 212 152 212 152 219 159 c 128,-1,108
 226 166 226 166 236 166 c 2,109,-1
 398 166 l 2,110,111
 408 166 408 166 415 159 c 128,-1,112
 422 152 422 152 422 142 c 2,113,-1
 422 -34 l 1,114,-1
 604 -34 l 2,29,30
EndSplineSet
EndChar

StartChar: dieresis
Encoding: 168 168 106
Width: 1228
Flags: W
LayerCount: 2
Fore
SplineSet
854 994 m 2,0,-1
 642 994 l 2,1,2
 632 994 632 994 625 1001 c 128,-1,3
 618 1008 618 1008 618 1018 c 2,4,-1
 618 1304 l 2,5,6
 618 1314 618 1314 625 1321 c 128,-1,7
 632 1328 632 1328 642 1328 c 2,8,-1
 854 1328 l 2,9,10
 864 1328 864 1328 871 1321 c 128,-1,11
 878 1314 878 1314 878 1304 c 2,12,-1
 878 1018 l 2,13,14
 878 1008 878 1008 871 1001 c 128,-1,15
 864 994 864 994 854 994 c 2,0,-1
588 994 m 2,16,-1
 376 994 l 2,17,18
 366 994 366 994 359 1001 c 128,-1,19
 352 1008 352 1008 352 1018 c 2,20,-1
 352 1304 l 2,21,22
 352 1314 352 1314 359 1321 c 128,-1,23
 366 1328 366 1328 376 1328 c 2,24,-1
 588 1328 l 2,25,26
 598 1328 598 1328 605 1321 c 128,-1,27
 612 1314 612 1314 612 1304 c 2,28,-1
 612 1018 l 2,29,30
 612 1008 612 1008 605 1001 c 128,-1,31
 598 994 598 994 588 994 c 2,16,-1
EndSplineSet
EndChar

StartChar: copyright
Encoding: 169 169 107
Width: 1228
Flags: W
LayerCount: 2
Fore
SplineSet
969.864 325.923 m 2,0,1
 928.25 285.35 928.25 285.35 882.52 254.171 c 0,2,3
 836.492 222.788 836.492 222.788 798.231 206.846 c 0,4,5
 760.6 191.167 760.6 191.167 723.398 181.736 c 128,-1,6
 686.012 172.258 686.012 172.258 661.177 170.099 c 0,7,8
 639.139 168 639.139 168 617 168 c 0,9,10
 527.625 168 527.625 168 452.708 203.319 c 0,11,12
 378.52 238.8 378.52 238.8 330 301.338 c 0,13,14
 284.413 360.705 284.413 360.705 260.199 436.506 c 1,15,16
 235 511.054 235 511.054 235 595 c 0,17,18
 235 605.726 235 605.726 236.054 615.8 c 0,19,20
 239.343 692.134 239.343 692.134 263.47 759.272 c 0,21,22
 292.221 835.939 292.221 835.939 343.523 890.449 c 128,-1,23
 394.819 944.951 394.819 944.951 464.565 976.071 c 0,24,25
 487.942 985.635 487.942 985.635 512.413 993.082 c 0,26,27
 560.85 1006 560.85 1006 614 1006 c 0,28,29
 690.925 1006 690.925 1006 750.983 976.726 c 1,30,31
 751.815 987.303 751.815 987.303 758.638 993.651 c 128,-1,32
 765.461 1000 765.461 1000 775 1000 c 2,33,-1
 884 1000 l 2,34,35
 894.275 1000 894.275 1000 901.267 992.233 c 128,-1,36
 908.26 984.466 908.26 984.466 907.99 975.294 c 2,37,-1
 906.993 941.415 l 1,38,39
 905.028 840.202 905.028 840.202 919.816 716.966 c 1,40,-1
 923.803 686.071 l 2,41,42
 925.037 676.505 925.037 676.505 919.074 668.641 c 128,-1,43
 913.111 660.777 913.111 660.777 903.753 659.295 c 2,44,-1
 783.753 640.295 l 2,45,46
 773.652 638.696 773.652 638.696 765.628 645.281 c 128,-1,47
 757.604 651.866 757.604 651.866 756.288 660.295 c 2,48,-1
 751.324 692.06 l 1,49,50
 740.295 754.565 740.295 754.565 720.031 786.676 c 1,51,52
 687.994 832 687.994 832 612 832 c 0,53,54
 587.201 832 587.201 832 563.755 826.698 c 0,55,56
 546.752 822.156 546.752 822.156 529.93 815.14 c 1,57,58
 493.935 797.381 493.935 797.381 469.609 767.843 c 0,59,60
 443.401 735.31 443.401 735.31 428.688 691.168 c 0,61,62
 414.914 652.604 414.914 652.604 414 608.751 c 0,63,64
 414 602.446 414 602.446 413.004 594.385 c 1,65,66
 413.179 561.303 413.179 561.303 419.64 527.153 c 0,67,68
 425.207 492.821 425.207 492.821 440.906 456.806 c 0,69,70
 456.303 423.295 456.303 423.295 478.925 397.959 c 0,71,72
 499.7 374.587 499.7 374.587 535.074 357.785 c 0,73,74
 570.151 342 570.151 342 617 342 c 0,75,76
 679.421 342 679.421 342 733.483 368.573 c 0,77,78
 792.454 397.107 792.454 397.107 852.055 450.938 c 1,79,-1
 876.196 472.062 l 2,80,81
 883.591 478.401 883.591 478.401 893.364 477.824 c 128,-1,82
 903.137 477.247 903.137 477.247 909.552 470.369 c 2,83,-1
 992.552 381.369 l 2,84,85
 999.115 374.144 999.115 374.144 998.843 364.387 c 128,-1,86
 998.57 354.629 998.57 354.629 991.971 348.029 c 2,87,-1
 969.864 325.923 l 2,0,1
1075 592 m 0,88,89
 1075 717.545 1075 717.545 1013.24 823.953 c 128,-1,90
 951.424 930.468 951.424 930.468 845.413 992.266 c 128,-1,91
 739.513 1054 739.513 1054 615 1054 c 0,92,93
 522.859 1054 522.859 1054 437.335 1017.89 c 128,-1,94
 351.655 981.714 351.655 981.714 289.971 920.029 c 128,-1,95
 228.286 858.345 228.286 858.345 192.085 772.606 c 0,96,97
 155 686.076 155 686.076 155 592 c 0,98,99
 155 467.529 155 467.529 217.194 361.656 c 0,100,101
 279.512 255.572 279.512 255.572 385.587 193.734 c 128,-1,102
 491.485 132 491.485 132 615 132 c 128,-1,103
 738.519 132 738.519 132 844.413 193.734 c 128,-1,104
 950.487 255.573 950.487 255.573 1012.81 361.656 c 0,105,106
 1075 467.526 1075 467.526 1075 592 c 0,88,89
1177.8 266.021 m 0,107,108
 1091.6 115.453 1091.6 115.453 941.508 28.7199 c 128,-1,109
 791.434 -58 791.434 -58 615 -58 c 128,-1,110
 438.545 -58 438.545 -58 288.961 28.738 c 128,-1,111
 139.434 115.443 139.434 115.443 52.233 265.969 c 128,-1,112
 -35 416.552 -35 416.552 -35 594 c 0,113,114
 -35 772.49 -35 772.49 52.2831 922.116 c 0,115,116
 140.535 1072.66 140.535 1072.66 290.069 1158.32 c 128,-1,117
 439.623 1244 439.623 1244 615 1244 c 0,118,119
 791.394 1244 791.394 1244 941.454 1157.81 c 128,-1,120
 1091.54 1071.61 1091.54 1071.61 1178.28 921.508 c 128,-1,121
 1265 771.446 1265 771.446 1265 594 c 128,-1,122
 1265 416.566 1265 416.566 1177.8 266.021 c 0,107,108
EndSplineSet
EndChar

StartChar: ordfeminine
Encoding: 170 170 108
Width: 1228
Flags: W
LayerCount: 2
Fore
SplineSet
896 488 m 2,0,-1
 332 488 l 2,1,2
 322 488 322 488 315 495 c 128,-1,3
 308 502 308 502 308 512 c 2,4,-1
 308 650 l 2,5,6
 308 660 308 660 315 667 c 128,-1,7
 322 674 322 674 332 674 c 2,8,-1
 896 674 l 2,9,10
 906 674 906 674 913 667 c 128,-1,11
 920 660 920 660 920 650 c 2,12,-1
 920 512 l 2,13,14
 920 502 920 502 913 495 c 128,-1,15
 906 488 906 488 896 488 c 2,0,-1
644.051 880.796 m 1,16,17
 614.196 884 614.196 884 592 884 c 0,18,19
 534.49 884 534.49 884 504.001 866.216 c 0,20,21
 488 857.072 488 857.072 488 848 c 0,22,23
 488 842.738 488 842.738 497.146 835.624 c 0,24,25
 510.822 824 510.822 824 528 824 c 0,26,27
 584.533 824 584.533 824 644.051 880.796 c 1,16,17
906 652 m 2,28,-1
 676 652 l 2,29,30
 661.293 652 661.293 652 654.518 665.297 c 1,31,32
 645.26 660.982 645.26 660.982 636.671 657.621 c 0,33,34
 585.442 638 585.442 638 528 638 c 0,35,36
 435.03 638 435.03 638 367.177 696.955 c 0,37,38
 298 758.194 298 758.194 298 848 c 0,39,40
 298 950.118 298 950.118 382.13 1012.13 c 1,41,42
 381.289 1013.71 381.289 1013.71 380.871 1014.71 c 2,43,-1
 325.871 1145.71 l 2,44,45
 321.894 1155.18 321.894 1155.18 326.351 1164.63 c 128,-1,46
 330.807 1174.08 330.807 1174.08 339.336 1177.38 c 2,47,-1
 370.198 1189.33 l 1,48,49
 506.376 1244 506.376 1244 600 1244 c 0,50,51
 712.047 1244 712.047 1244 776.337 1187.53 c 0,52,53
 842 1129.86 842 1129.86 842 1024 c 2,54,-1
 842 838 l 1,55,-1
 906 838 l 2,56,57
 916 838 916 838 923 831 c 128,-1,58
 930 824 930 824 930 814 c 2,59,-1
 930 676 l 2,60,61
 930 666 930 666 923 659 c 128,-1,62
 916 652 916 652 906 652 c 2,28,-1
EndSplineSet
EndChar

StartChar: guillemotleft
Encoding: 171 171 109
Width: 1228
Flags: W
LayerCount: 2
Fore
SplineSet
987.392 -11.2318 m 2,0,-1
 452.392 446.768 l 2,1,2
 444.118 453.947 444.118 453.947 444.156 465.043 c 128,-1,3
 444.194 476.14 444.194 476.14 452.297 483.15 c 2,4,-1
 986.297 945.15 l 2,5,6
 994.348 951.596 994.348 951.596 1004.16 950.632 c 128,-1,7
 1013.98 949.668 1013.98 949.668 1019.96 942.918 c 2,8,-1
 1128.96 819.918 l 2,9,10
 1135.66 811.414 1135.66 811.414 1134.5 801.494 c 128,-1,11
 1133.34 791.573 1133.34 791.573 1126.68 785.827 c 2,12,-1
 754.711 464.972 l 1,13,-1
 1119.7 149.149 l 2,14,15
 1127 142.839 1127 142.839 1127.79 132.946 c 128,-1,16
 1128.59 123.053 1128.59 123.053 1122.61 115.843 c 2,17,-1
 1021.61 -8.15681 l 2,18,19
 1015.12 -16.117 1015.12 -16.117 1004.35 -16.6369 c 128,-1,20
 993.579 -17.1568 993.579 -17.1568 987.392 -11.2318 c 2,0,-1
629.339 -12.186 m 2,21,-1
 96.3389 446.814 l 2,22,23
 88.0883 454.062 88.0883 454.062 88.1711 465.121 c 128,-1,24
 88.2539 476.18 88.2539 476.18 96.283 483.138 c 2,25,-1
 628.283 944.138 l 2,26,27
 635.676 950.448 635.676 950.448 645.474 949.829 c 128,-1,28
 655.272 949.21 655.272 949.21 661.68 942.231 c 2,29,-1
 773.68 820.231 l 2,30,31
 780.578 812.079 780.578 812.079 779.622 801.952 c 128,-1,32
 778.666 791.825 778.666 791.825 771.63 785.788 c 2,33,-1
 397.71 464.878 l 1,34,-1
 760.751 149.109 l 2,35,36
 768.006 142.798 768.006 142.798 768.754 132.863 c 128,-1,37
 769.502 122.927 769.502 122.927 763.741 116.007 c 2,38,-1
 663.741 -8.99268 l 2,39,40
 657.315 -17.0246 657.315 -17.0246 646.593 -17.6678 c 128,-1,41
 635.87 -18.3111 635.87 -18.3111 629.339 -12.186 c 2,21,-1
EndSplineSet
EndChar

StartChar: logicalnot
Encoding: 172 172 110
Width: 1228
Flags: W
LayerCount: 2
Fore
SplineSet
1096 290 m 2,0,-1
 928 290 l 2,1,2
 918 290 918 290 911 297 c 128,-1,3
 904 304 904 304 904 314 c 2,4,-1
 904 738 l 1,5,-1
 152 738 l 2,6,7
 142 738 142 738 135 745 c 128,-1,8
 128 752 128 752 128 762 c 2,9,-1
 128 930 l 2,10,11
 128 940 128 940 135 947 c 128,-1,12
 142 954 142 954 152 954 c 2,13,-1
 1096 954 l 2,14,15
 1106 954 1106 954 1113 947 c 128,-1,16
 1120 940 1120 940 1120 930 c 2,17,-1
 1120 314 l 2,18,19
 1120 304 1120 304 1113 297 c 128,-1,20
 1106 290 1106 290 1096 290 c 2,0,-1
EndSplineSet
EndChar

